solid OpenSCAD_Model
  facet normal 0.8314696123025449 0.5555702330196026 3.180918016588256e-18
    outer loop
      vertex 21.257537879754125 21.257537879754125 0
      vertex 21.029926490863147 21.598182396016657 0
      vertex 21.029926490863147 21.598182396016657 1.5
    endloop
  endfacet
  facet normal 0.5555702330196026 0.8314696123025449 0
    outer loop
      vertex 21.257537879754125 21.257537879754125 0
      vertex 21.257537879754125 21.257537879754125 1.5
      vertex 21.598182396016657 21.029926490863147 0
    endloop
  endfacet
  facet normal 0.9807852804032308 0.19509032201612647 3.2135747232890796e-18
    outer loop
      vertex 21.029926490863147 21.598182396016657 0
      vertex 20.95 22 0
      vertex 20.95 22 1.5
    endloop
  endfacet
  facet normal 0.9807852804032308 -0.19509032201612647 -3.2135747232890796e-18
    outer loop
      vertex 20.95 22 0
      vertex 21.029926490863147 22.401817603983343 0
      vertex 21.029926490863147 22.401817603983343 1.5
    endloop
  endfacet
  facet normal 0.8314696123025449 -0.5555702330196026 -3.180918016588256e-18
    outer loop
      vertex 21.029926490863147 22.401817603983343 0
      vertex 21.257537879754125 22.742462120245875 0
      vertex 21.257537879754125 22.742462120245875 1.5
    endloop
  endfacet
  facet normal 0.5555702330196026 -0.8314696123025449 0
    outer loop
      vertex 21.598182396016657 22.970073509136853 0
      vertex 21.598182396016657 22.970073509136853 1.5
      vertex 21.257537879754125 22.742462120245875 0
    endloop
  endfacet
  facet normal 0.19509032201612647 0.9807852804032308 0
    outer loop
      vertex 21.598182396016657 21.029926490863147 0
      vertex 21.598182396016657 21.029926490863147 1.5
      vertex 22 20.95 0
    endloop
  endfacet
  facet normal -0.19509032201612647 0.9807852804032308 0
    outer loop
      vertex 22 20.95 0
      vertex 22 20.95 1.5
      vertex 22.401817603983343 21.029926490863147 0
    endloop
  endfacet
  facet normal -0.5555702330196026 0.8314696123025449 0
    outer loop
      vertex 22.401817603983343 21.029926490863147 0
      vertex 22.401817603983343 21.029926490863147 1.5
      vertex 22.742462120245875 21.257537879754125 0
    endloop
  endfacet
  facet normal -0.8314696123025449 0.5555702330196026 0
    outer loop
      vertex 22.742462120245875 21.257537879754125 0
      vertex 22.742462120245875 21.257537879754125 1.5
      vertex 22.970073509136853 21.598182396016657 0
    endloop
  endfacet
  facet normal 0.19509032201612647 -0.9807852804032308 0
    outer loop
      vertex 22 23.05 0
      vertex 22 23.05 1.5
      vertex 21.598182396016657 22.970073509136853 0
    endloop
  endfacet
  facet normal -0.19509032201612647 -0.9807852804032308 0
    outer loop
      vertex 22.401817603983343 22.970073509136853 0
      vertex 22.401817603983343 22.970073509136853 1.5
      vertex 22 23.05 0
    endloop
  endfacet
  facet normal -0.9807852804032308 0.19509032201612647 -3.2135747232890796e-18
    outer loop
      vertex 23.05 22 0
      vertex 22.970073509136853 21.598182396016657 0
      vertex 22.970073509136853 21.598182396016657 1.5
    endloop
  endfacet
  facet normal -0.9807852804032308 -0.19509032201612647 3.2135747232890796e-18
    outer loop
      vertex 22.970073509136853 22.401817603983343 0
      vertex 23.05 22 0
      vertex 23.05 22 1.5
    endloop
  endfacet
  facet normal -0.5555702330196026 -0.8314696123025449 3.180918016588256e-18
    outer loop
      vertex 22.401817603983343 22.970073509136853 0
      vertex 22.742462120245875 22.742462120245875 0
      vertex 22.742462120245875 22.742462120245875 1.5
    endloop
  endfacet
  facet normal -0.8314696123025449 -0.5555702330196026 3.180918016588256e-18
    outer loop
      vertex 22.742462120245875 22.742462120245875 0
      vertex 22.970073509136853 22.401817603983343 0
      vertex 22.970073509136853 22.401817603983343 1.5
    endloop
  endfacet
  facet normal 0.8314696123025449 0.5555702330196026 0
    outer loop
      vertex 21.257537879754125 21.257537879754125 0
      vertex 21.029926490863147 21.598182396016657 1.5
      vertex 21.257537879754125 21.257537879754125 1.5
    endloop
  endfacet
  facet normal 0.5555702330196026 0.8314696123025449 0
    outer loop
      vertex 21.598182396016657 21.029926490863147 0
      vertex 21.257537879754125 21.257537879754125 1.5
      vertex 21.598182396016657 21.029926490863147 1.5
    endloop
  endfacet
  facet normal 0.9807852804032308 0.19509032201612647 0
    outer loop
      vertex 21.029926490863147 21.598182396016657 0
      vertex 20.95 22 1.5
      vertex 21.029926490863147 21.598182396016657 1.5
    endloop
  endfacet
  facet normal 0.9807852804032308 -0.19509032201612647 0
    outer loop
      vertex 20.95 22 0
      vertex 21.029926490863147 22.401817603983343 1.5
      vertex 20.95 22 1.5
    endloop
  endfacet
  facet normal 0.8314696123025449 -0.5555702330196026 0
    outer loop
      vertex 21.029926490863147 22.401817603983343 0
      vertex 21.257537879754125 22.742462120245875 1.5
      vertex 21.029926490863147 22.401817603983343 1.5
    endloop
  endfacet
  facet normal 0.5555702330196026 -0.8314696123025449 0
    outer loop
      vertex 21.257537879754125 22.742462120245875 0
      vertex 21.598182396016657 22.970073509136853 1.5
      vertex 21.257537879754125 22.742462120245875 1.5
    endloop
  endfacet
  facet normal 0.19509032201612647 0.9807852804032308 0
    outer loop
      vertex 22 20.95 0
      vertex 21.598182396016657 21.029926490863147 1.5
      vertex 22 20.95 1.5
    endloop
  endfacet
  facet normal -0.19509032201612647 0.9807852804032308 0
    outer loop
      vertex 22.401817603983343 21.029926490863147 0
      vertex 22 20.95 1.5
      vertex 22.401817603983343 21.029926490863147 1.5
    endloop
  endfacet
  facet normal -0.5555702330196026 0.8314696123025449 0
    outer loop
      vertex 22.742462120245875 21.257537879754125 0
      vertex 22.401817603983343 21.029926490863147 1.5
      vertex 22.742462120245875 21.257537879754125 1.5
    endloop
  endfacet
  facet normal -0.8314696123025449 0.5555702330196026 0
    outer loop
      vertex 22.970073509136853 21.598182396016657 0
      vertex 22.742462120245875 21.257537879754125 1.5
      vertex 22.970073509136853 21.598182396016657 1.5
    endloop
  endfacet
  facet normal 0.19509032201612647 -0.9807852804032308 0
    outer loop
      vertex 21.598182396016657 22.970073509136853 0
      vertex 22 23.05 1.5
      vertex 21.598182396016657 22.970073509136853 1.5
    endloop
  endfacet
  facet normal -0.19509032201612647 -0.9807852804032308 0
    outer loop
      vertex 22 23.05 0
      vertex 22.401817603983343 22.970073509136853 1.5
      vertex 22 23.05 1.5
    endloop
  endfacet
  facet normal -0.9807852804032308 0.19509032201612647 0
    outer loop
      vertex 23.05 22 0
      vertex 22.970073509136853 21.598182396016657 1.5
      vertex 23.05 22 1.5
    endloop
  endfacet
  facet normal -0.9807852804032308 -0.19509032201612647 0
    outer loop
      vertex 22.970073509136853 22.401817603983343 0
      vertex 23.05 22 1.5
      vertex 22.970073509136853 22.401817603983343 1.5
    endloop
  endfacet
  facet normal -0.5555702330196026 -0.8314696123025449 0
    outer loop
      vertex 22.401817603983343 22.970073509136853 0
      vertex 22.742462120245875 22.742462120245875 1.5
      vertex 22.401817603983343 22.970073509136853 1.5
    endloop
  endfacet
  facet normal -0.8314696123025449 -0.5555702330196026 0
    outer loop
      vertex 22.742462120245875 22.742462120245875 0
      vertex 22.970073509136853 22.401817603983343 1.5
      vertex 22.742462120245875 22.742462120245875 1.5
    endloop
  endfacet
  facet normal 0.5555702330195996 0.8314696123025469 -5.795709248235599e-18
    outer loop
      vertex 21.598182396016657 2.029926490863149 0
      vertex 21.257537879754125 2.257537879754125 0
      vertex 21.257537879754125 2.257537879754125 1.5
    endloop
  endfacet
  facet normal 0.8314696123025439 0.5555702330196042 0
    outer loop
      vertex 21.029926490863147 2.598182396016656 1.5
      vertex 21.257537879754125 2.257537879754125 0
      vertex 21.029926490863147 2.598182396016656 0
    endloop
  endfacet
  facet normal 0.9807852804032311 0.1950903220161259 0
    outer loop
      vertex 20.95 3 1.5
      vertex 21.029926490863147 2.598182396016656 0
      vertex 20.95 3 0
    endloop
  endfacet
  facet normal 0.9807852804032311 -0.1950903220161259 0
    outer loop
      vertex 21.029926490863147 3.401817603983344 1.5
      vertex 20.95 3 0
      vertex 21.029926490863147 3.401817603983344 0
    endloop
  endfacet
  facet normal 0.8314696123025439 -0.5555702330196042 1.908148757427764e-19
    outer loop
      vertex 21.029926490863147 3.401817603983344 0
      vertex 21.257537879754125 3.742462120245875 0
      vertex 21.257537879754125 3.742462120245875 1.5
    endloop
  endfacet
  facet normal 0.5555702330195996 -0.8314696123025469 0
    outer loop
      vertex 21.598182396016657 3.970073509136851 0
      vertex 21.598182396016657 3.970073509136851 1.5
      vertex 21.257537879754125 3.742462120245875 0
    endloop
  endfacet
  facet normal 0.19509032201612908 0.9807852804032303 0
    outer loop
      vertex 21.598182396016657 2.029926490863149 1.5
      vertex 22 1.95 0
      vertex 21.598182396016657 2.029926490863149 0
    endloop
  endfacet
  facet normal -0.19509032201612908 0.9807852804032303 0
    outer loop
      vertex 22 1.95 1.5
      vertex 22.401817603983343 2.029926490863149 0
      vertex 22 1.95 0
    endloop
  endfacet
  facet normal -0.5555702330195996 0.8314696123025469 0
    outer loop
      vertex 22.401817603983343 2.029926490863149 1.5
      vertex 22.742462120245875 2.257537879754125 0
      vertex 22.401817603983343 2.029926490863149 0
    endloop
  endfacet
  facet normal -0.8314696123025439 0.5555702330196042 0
    outer loop
      vertex 22.742462120245875 2.257537879754125 0
      vertex 22.742462120245875 2.257537879754125 1.5
      vertex 22.970073509136853 2.598182396016656 0
    endloop
  endfacet
  facet normal -0.9807852804032311 0.1950903220161259 6.919308355610233e-19
    outer loop
      vertex 23.05 3 0
      vertex 22.970073509136853 2.598182396016656 0
      vertex 22.970073509136853 2.598182396016656 1.5
    endloop
  endfacet
  facet normal 0.19509032201612858 -0.9807852804032304 0
    outer loop
      vertex 22 4.05 0
      vertex 22 4.05 1.5
      vertex 21.598182396016657 3.970073509136851 0
    endloop
  endfacet
  facet normal -0.19509032201612858 -0.9807852804032304 0
    outer loop
      vertex 22.401817603983343 3.970073509136851 0
      vertex 22.401817603983343 3.970073509136851 1.5
      vertex 22 4.05 0
    endloop
  endfacet
  facet normal -0.5555702330195996 -0.8314696123025469 -5.795709248235599e-18
    outer loop
      vertex 22.401817603983343 3.970073509136851 0
      vertex 22.742462120245875 3.742462120245875 0
      vertex 22.742462120245875 3.742462120245875 1.5
    endloop
  endfacet
  facet normal -0.9807852804032311 -0.1950903220161259 -6.919308355610233e-19
    outer loop
      vertex 22.970073509136853 3.401817603983344 0
      vertex 23.05 3 0
      vertex 23.05 3 1.5
    endloop
  endfacet
  facet normal -0.8314696123025439 -0.5555702330196042 -1.908148757427764e-19
    outer loop
      vertex 22.742462120245875 3.742462120245875 0
      vertex 22.970073509136853 3.401817603983344 0
      vertex 22.970073509136853 3.401817603983344 1.5
    endloop
  endfacet
  facet normal 0.5555702330195996 0.8314696123025469 0
    outer loop
      vertex 21.598182396016657 2.029926490863149 1.5
      vertex 21.598182396016657 2.029926490863149 0
      vertex 21.257537879754125 2.257537879754125 1.5
    endloop
  endfacet
  facet normal 0.8314696123025439 0.5555702330196042 -1.908148757427764e-19
    outer loop
      vertex 21.029926490863147 2.598182396016656 1.5
      vertex 21.257537879754125 2.257537879754125 1.5
      vertex 21.257537879754125 2.257537879754125 0
    endloop
  endfacet
  facet normal 0.9807852804032311 0.1950903220161259 -6.919308355610233e-19
    outer loop
      vertex 20.95 3 1.5
      vertex 21.029926490863147 2.598182396016656 1.5
      vertex 21.029926490863147 2.598182396016656 0
    endloop
  endfacet
  facet normal 0.9807852804032311 -0.1950903220161259 6.919308355610233e-19
    outer loop
      vertex 21.029926490863147 3.401817603983344 1.5
      vertex 20.95 3 1.5
      vertex 20.95 3 0
    endloop
  endfacet
  facet normal 0.8314696123025439 -0.5555702330196042 1.908148757427764e-19
    outer loop
      vertex 21.257537879754125 3.742462120245875 1.5
      vertex 21.029926490863147 3.401817603983344 1.5
      vertex 21.029926490863147 3.401817603983344 0
    endloop
  endfacet
  facet normal 0.5555702330195996 -0.8314696123025469 0
    outer loop
      vertex 21.257537879754125 3.742462120245875 0
      vertex 21.598182396016657 3.970073509136851 1.5
      vertex 21.257537879754125 3.742462120245875 1.5
    endloop
  endfacet
  facet normal 0.19509032201612908 0.9807852804032303 0
    outer loop
      vertex 22 1.95 1.5
      vertex 22 1.95 0
      vertex 21.598182396016657 2.029926490863149 1.5
    endloop
  endfacet
  facet normal -0.19509032201612908 0.9807852804032303 0
    outer loop
      vertex 22.401817603983343 2.029926490863149 1.5
      vertex 22.401817603983343 2.029926490863149 0
      vertex 22 1.95 1.5
    endloop
  endfacet
  facet normal -0.5555702330195996 0.8314696123025469 0
    outer loop
      vertex 22.742462120245875 2.257537879754125 0
      vertex 22.401817603983343 2.029926490863149 1.5
      vertex 22.742462120245875 2.257537879754125 1.5
    endloop
  endfacet
  facet normal -0.8314696123025439 0.5555702330196042 0
    outer loop
      vertex 22.970073509136853 2.598182396016656 0
      vertex 22.742462120245875 2.257537879754125 1.5
      vertex 22.970073509136853 2.598182396016656 1.5
    endloop
  endfacet
  facet normal -0.9807852804032311 0.1950903220161259 0
    outer loop
      vertex 23.05 3 0
      vertex 22.970073509136853 2.598182396016656 1.5
      vertex 23.05 3 1.5
    endloop
  endfacet
  facet normal 0.19509032201612858 -0.9807852804032304 0
    outer loop
      vertex 21.598182396016657 3.970073509136851 0
      vertex 22 4.05 1.5
      vertex 21.598182396016657 3.970073509136851 1.5
    endloop
  endfacet
  facet normal -0.19509032201612858 -0.9807852804032304 0
    outer loop
      vertex 22 4.05 0
      vertex 22.401817603983343 3.970073509136851 1.5
      vertex 22 4.05 1.5
    endloop
  endfacet
  facet normal -0.9807852804032311 -0.1950903220161259 0
    outer loop
      vertex 22.970073509136853 3.401817603983344 0
      vertex 23.05 3 1.5
      vertex 22.970073509136853 3.401817603983344 1.5
    endloop
  endfacet
  facet normal -0.8314696123025439 -0.5555702330196042 0
    outer loop
      vertex 22.742462120245875 3.742462120245875 0
      vertex 22.970073509136853 3.401817603983344 1.5
      vertex 22.742462120245875 3.742462120245875 1.5
    endloop
  endfacet
  facet normal -0.5555702330195996 -0.8314696123025469 0
    outer loop
      vertex 22.401817603983343 3.970073509136851 0
      vertex 22.742462120245875 3.742462120245875 1.5
      vertex 22.401817603983343 3.970073509136851 1.5
    endloop
  endfacet
  facet normal 0.8314696123025469 0.5555702330195996 0
    outer loop
      vertex 2.029926490863149 21.598182396016657 1.5
      vertex 2.257537879754125 21.257537879754125 0
      vertex 2.029926490863149 21.598182396016657 0
    endloop
  endfacet
  facet normal 0.5555702330196042 0.8314696123025439 0
    outer loop
      vertex 2.257537879754125 21.257537879754125 1.5
      vertex 2.598182396016656 21.029926490863147 0
      vertex 2.257537879754125 21.257537879754125 0
    endloop
  endfacet
  facet normal 0.1950903220161259 0.9807852804032311 0
    outer loop
      vertex 2.598182396016656 21.029926490863147 1.5
      vertex 3 20.95 0
      vertex 2.598182396016656 21.029926490863147 0
    endloop
  endfacet
  facet normal 0.9807852804032303 0.19509032201612908 0
    outer loop
      vertex 1.95 22 1.5
      vertex 2.029926490863149 21.598182396016657 0
      vertex 1.95 22 0
    endloop
  endfacet
  facet normal 0.9807852804032303 -0.19509032201612908 0
    outer loop
      vertex 2.029926490863149 22.401817603983343 1.5
      vertex 1.95 22 0
      vertex 2.029926490863149 22.401817603983343 0
    endloop
  endfacet
  facet normal 0.8314696123025469 -0.5555702330195996 5.795709248235599e-18
    outer loop
      vertex 2.029926490863149 22.401817603983343 0
      vertex 2.257537879754125 22.742462120245875 0
      vertex 2.257537879754125 22.742462120245875 1.5
    endloop
  endfacet
  facet normal 0.5555702330196042 -0.8314696123025439 0
    outer loop
      vertex 2.598182396016656 22.970073509136853 0
      vertex 2.598182396016656 22.970073509136853 1.5
      vertex 2.257537879754125 22.742462120245875 0
    endloop
  endfacet
  facet normal 0.1950903220161259 -0.9807852804032311 0
    outer loop
      vertex 3 23.05 0
      vertex 3 23.05 1.5
      vertex 2.598182396016656 22.970073509136853 0
    endloop
  endfacet
  facet normal -0.1950903220161259 0.9807852804032311 0
    outer loop
      vertex 3 20.95 1.5
      vertex 3.401817603983344 21.029926490863147 0
      vertex 3 20.95 0
    endloop
  endfacet
  facet normal -0.5555702330196042 0.8314696123025439 0
    outer loop
      vertex 3.401817603983344 21.029926490863147 1.5
      vertex 3.742462120245875 21.257537879754125 0
      vertex 3.401817603983344 21.029926490863147 0
    endloop
  endfacet
  facet normal -0.8314696123025469 0.5555702330195996 0
    outer loop
      vertex 3.742462120245875 21.257537879754125 0
      vertex 3.742462120245875 21.257537879754125 1.5
      vertex 3.970073509136851 21.598182396016657 0
    endloop
  endfacet
  facet normal -0.1950903220161259 -0.9807852804032311 0
    outer loop
      vertex 3.401817603983344 22.970073509136853 0
      vertex 3.401817603983344 22.970073509136853 1.5
      vertex 3 23.05 0
    endloop
  endfacet
  facet normal -0.5555702330196042 -0.8314696123025439 0
    outer loop
      vertex 3.742462120245875 22.742462120245875 0
      vertex 3.742462120245875 22.742462120245875 1.5
      vertex 3.401817603983344 22.970073509136853 0
    endloop
  endfacet
  facet normal -0.9807852804032304 0.19509032201612858 1.6716438352144252e-18
    outer loop
      vertex 4.05 22 0
      vertex 3.970073509136851 21.598182396016657 0
      vertex 3.970073509136851 21.598182396016657 1.5
    endloop
  endfacet
  facet normal -0.9807852804032304 -0.19509032201612858 -1.6716438352144252e-18
    outer loop
      vertex 3.970073509136851 22.401817603983343 0
      vertex 4.05 22 0
      vertex 4.05 22 1.5
    endloop
  endfacet
  facet normal -0.8314696123025469 -0.5555702330195996 -5.795709248235599e-18
    outer loop
      vertex 3.742462120245875 22.742462120245875 0
      vertex 3.970073509136851 22.401817603983343 0
      vertex 3.970073509136851 22.401817603983343 1.5
    endloop
  endfacet
  facet normal 0.8314696123025469 0.5555702330195996 -5.795709248235599e-18
    outer loop
      vertex 2.029926490863149 21.598182396016657 1.5
      vertex 2.257537879754125 21.257537879754125 1.5
      vertex 2.257537879754125 21.257537879754125 0
    endloop
  endfacet
  facet normal 0.5555702330196042 0.8314696123025439 0
    outer loop
      vertex 2.598182396016656 21.029926490863147 1.5
      vertex 2.598182396016656 21.029926490863147 0
      vertex 2.257537879754125 21.257537879754125 1.5
    endloop
  endfacet
  facet normal 0.1950903220161259 0.9807852804032311 0
    outer loop
      vertex 3 20.95 1.5
      vertex 3 20.95 0
      vertex 2.598182396016656 21.029926490863147 1.5
    endloop
  endfacet
  facet normal 0.9807852804032303 0.19509032201612908 -7.012333570327437e-20
    outer loop
      vertex 1.95 22 1.5
      vertex 2.029926490863149 21.598182396016657 1.5
      vertex 2.029926490863149 21.598182396016657 0
    endloop
  endfacet
  facet normal 0.9807852804032303 -0.19509032201612908 7.012333570327437e-20
    outer loop
      vertex 2.029926490863149 22.401817603983343 1.5
      vertex 1.95 22 1.5
      vertex 1.95 22 0
    endloop
  endfacet
  facet normal 0.8314696123025469 -0.5555702330195996 5.795709248235599e-18
    outer loop
      vertex 2.257537879754125 22.742462120245875 1.5
      vertex 2.029926490863149 22.401817603983343 1.5
      vertex 2.029926490863149 22.401817603983343 0
    endloop
  endfacet
  facet normal 0.5555702330196042 -0.8314696123025439 0
    outer loop
      vertex 2.257537879754125 22.742462120245875 0
      vertex 2.598182396016656 22.970073509136853 1.5
      vertex 2.257537879754125 22.742462120245875 1.5
    endloop
  endfacet
  facet normal 0.1950903220161259 -0.9807852804032311 0
    outer loop
      vertex 2.598182396016656 22.970073509136853 0
      vertex 3 23.05 1.5
      vertex 2.598182396016656 22.970073509136853 1.5
    endloop
  endfacet
  facet normal -0.1950903220161259 0.9807852804032311 0
    outer loop
      vertex 3.401817603983344 21.029926490863147 1.5
      vertex 3.401817603983344 21.029926490863147 0
      vertex 3 20.95 1.5
    endloop
  endfacet
  facet normal -0.5555702330196042 0.8314696123025439 0
    outer loop
      vertex 3.742462120245875 21.257537879754125 0
      vertex 3.401817603983344 21.029926490863147 1.5
      vertex 3.742462120245875 21.257537879754125 1.5
    endloop
  endfacet
  facet normal -0.8314696123025469 0.5555702330195996 0
    outer loop
      vertex 3.970073509136851 21.598182396016657 0
      vertex 3.742462120245875 21.257537879754125 1.5
      vertex 3.970073509136851 21.598182396016657 1.5
    endloop
  endfacet
  facet normal -0.1950903220161259 -0.9807852804032311 0
    outer loop
      vertex 3 23.05 0
      vertex 3.401817603983344 22.970073509136853 1.5
      vertex 3 23.05 1.5
    endloop
  endfacet
  facet normal -0.8314696123025469 -0.5555702330195996 0
    outer loop
      vertex 3.742462120245875 22.742462120245875 0
      vertex 3.970073509136851 22.401817603983343 1.5
      vertex 3.742462120245875 22.742462120245875 1.5
    endloop
  endfacet
  facet normal -0.5555702330196042 -0.8314696123025439 0
    outer loop
      vertex 3.401817603983344 22.970073509136853 0
      vertex 3.742462120245875 22.742462120245875 1.5
      vertex 3.401817603983344 22.970073509136853 1.5
    endloop
  endfacet
  facet normal -0.9807852804032304 0.19509032201612858 0
    outer loop
      vertex 4.05 22 0
      vertex 3.970073509136851 21.598182396016657 1.5
      vertex 4.05 22 1.5
    endloop
  endfacet
  facet normal -0.9807852804032304 -0.19509032201612858 0
    outer loop
      vertex 3.970073509136851 22.401817603983343 0
      vertex 4.05 22 1.5
      vertex 3.970073509136851 22.401817603983343 1.5
    endloop
  endfacet
  facet normal 0.8314696123025459 0.5555702330196011 0
    outer loop
      vertex 2.029926490863149 2.598182396016656 1.5
      vertex 2.257537879754125 2.257537879754125 0
      vertex 2.029926490863149 2.598182396016656 0
    endloop
  endfacet
  facet normal 0.9807852804032305 0.1950903220161285 0
    outer loop
      vertex 1.95 3 1.5
      vertex 2.029926490863149 2.598182396016656 0
      vertex 1.95 3 0
    endloop
  endfacet
  facet normal 0.5555702330196011 0.8314696123025459 0
    outer loop
      vertex 2.257537879754125 2.257537879754125 1.5
      vertex 2.598182396016656 2.029926490863149 0
      vertex 2.257537879754125 2.257537879754125 0
    endloop
  endfacet
  facet normal 0.1950903220161285 0.9807852804032305 0
    outer loop
      vertex 2.598182396016656 2.029926490863149 1.5
      vertex 3 1.95 0
      vertex 2.598182396016656 2.029926490863149 0
    endloop
  endfacet
  facet normal 0.9807852804032305 -0.1950903220161285 0
    outer loop
      vertex 2.029926490863149 3.401817603983344 1.5
      vertex 1.95 3 0
      vertex 2.029926490863149 3.401817603983344 0
    endloop
  endfacet
  facet normal 0.8314696123025459 -0.5555702330196011 0
    outer loop
      vertex 2.257537879754125 3.742462120245875 1.5
      vertex 2.029926490863149 3.401817603983344 0
      vertex 2.257537879754125 3.742462120245875 0
    endloop
  endfacet
  facet normal 0.5555702330196011 -0.8314696123025459 0
    outer loop
      vertex 2.598182396016656 3.970073509136851 1.5
      vertex 2.257537879754125 3.742462120245875 0
      vertex 2.598182396016656 3.970073509136851 0
    endloop
  endfacet
  facet normal 0.19509032201612794 -0.9807852804032305 0
    outer loop
      vertex 3 4.05 1.5
      vertex 2.598182396016656 3.970073509136851 0
      vertex 3 4.05 0
    endloop
  endfacet
  facet normal -0.1950903220161285 0.9807852804032305 0
    outer loop
      vertex 3 1.95 1.5
      vertex 3.401817603983344 2.029926490863149 0
      vertex 3 1.95 0
    endloop
  endfacet
  facet normal -0.5555702330196011 0.8314696123025459 0
    outer loop
      vertex 3.401817603983344 2.029926490863149 1.5
      vertex 3.742462120245875 2.257537879754125 0
      vertex 3.401817603983344 2.029926490863149 0
    endloop
  endfacet
  facet normal -0.8314696123025459 0.5555702330196011 0
    outer loop
      vertex 3.742462120245875 2.257537879754125 0
      vertex 3.742462120245875 2.257537879754125 1.5
      vertex 3.970073509136851 2.598182396016656 0
    endloop
  endfacet
  facet normal -0.9807852804032305 0.19509032201612794 0
    outer loop
      vertex 3.970073509136851 2.598182396016656 1.5
      vertex 4.05 3 0
      vertex 3.970073509136851 2.598182396016656 0
    endloop
  endfacet
  facet normal -0.5555702330196011 -0.8314696123025459 -9.167442140570515e-18
    outer loop
      vertex 3.401817603983344 3.970073509136851 0
      vertex 3.742462120245875 3.742462120245875 0
      vertex 3.742462120245875 3.742462120245875 1.5
    endloop
  endfacet
  facet normal -0.19509032201612794 -0.9807852804032305 0
    outer loop
      vertex 3.401817603983344 3.970073509136851 1.5
      vertex 3 4.05 0
      vertex 3.401817603983344 3.970073509136851 0
    endloop
  endfacet
  facet normal -0.9807852804032305 -0.19509032201612794 0
    outer loop
      vertex 4.05 3 1.5
      vertex 3.970073509136851 3.401817603983344 0
      vertex 4.05 3 0
    endloop
  endfacet
  facet normal -0.8314696123025459 -0.5555702330196011 0
    outer loop
      vertex 3.970073509136851 3.401817603983344 1.5
      vertex 3.742462120245875 3.742462120245875 0
      vertex 3.970073509136851 3.401817603983344 0
    endloop
  endfacet
  facet normal 0.8314696123025459 0.5555702330196011 -9.167442140570515e-18
    outer loop
      vertex 2.029926490863149 2.598182396016656 1.5
      vertex 2.257537879754125 2.257537879754125 1.5
      vertex 2.257537879754125 2.257537879754125 0
    endloop
  endfacet
  facet normal 0.9807852804032305 0.1950903220161285 -3.975628894555772e-18
    outer loop
      vertex 1.95 3 1.5
      vertex 2.029926490863149 2.598182396016656 1.5
      vertex 2.029926490863149 2.598182396016656 0
    endloop
  endfacet
  facet normal 0.5555702330196011 0.8314696123025459 0
    outer loop
      vertex 2.598182396016656 2.029926490863149 1.5
      vertex 2.598182396016656 2.029926490863149 0
      vertex 2.257537879754125 2.257537879754125 1.5
    endloop
  endfacet
  facet normal 0.1950903220161285 0.9807852804032305 0
    outer loop
      vertex 3 1.95 1.5
      vertex 3 1.95 0
      vertex 2.598182396016656 2.029926490863149 1.5
    endloop
  endfacet
  facet normal 0.9807852804032305 -0.1950903220161285 3.975628894555772e-18
    outer loop
      vertex 2.029926490863149 3.401817603983344 1.5
      vertex 1.95 3 1.5
      vertex 1.95 3 0
    endloop
  endfacet
  facet normal 0.8314696123025459 -0.5555702330196011 9.167442140570515e-18
    outer loop
      vertex 2.257537879754125 3.742462120245875 1.5
      vertex 2.029926490863149 3.401817603983344 1.5
      vertex 2.029926490863149 3.401817603983344 0
    endloop
  endfacet
  facet normal 0.5555702330196011 -0.8314696123025459 0
    outer loop
      vertex 2.257537879754125 3.742462120245875 1.5
      vertex 2.257537879754125 3.742462120245875 0
      vertex 2.598182396016656 3.970073509136851 1.5
    endloop
  endfacet
  facet normal 0.19509032201612794 -0.9807852804032305 0
    outer loop
      vertex 2.598182396016656 3.970073509136851 1.5
      vertex 2.598182396016656 3.970073509136851 0
      vertex 3 4.05 1.5
    endloop
  endfacet
  facet normal -0.1950903220161285 0.9807852804032305 0
    outer loop
      vertex 3.401817603983344 2.029926490863149 1.5
      vertex 3.401817603983344 2.029926490863149 0
      vertex 3 1.95 1.5
    endloop
  endfacet
  facet normal -0.5555702330196011 0.8314696123025459 0
    outer loop
      vertex 3.742462120245875 2.257537879754125 1.5
      vertex 3.742462120245875 2.257537879754125 0
      vertex 3.401817603983344 2.029926490863149 1.5
    endloop
  endfacet
  facet normal -0.8314696123025459 0.5555702330196011 9.167442140570515e-18
    outer loop
      vertex 3.742462120245875 2.257537879754125 1.5
      vertex 3.970073509136851 2.598182396016656 1.5
      vertex 3.970073509136851 2.598182396016656 0
    endloop
  endfacet
  facet normal -0.9807852804032305 0.19509032201612794 5.577149394066436e-18
    outer loop
      vertex 3.970073509136851 2.598182396016656 1.5
      vertex 4.05 3 1.5
      vertex 4.05 3 0
    endloop
  endfacet
  facet normal -0.8314696123025459 -0.5555702330196011 -9.167442140570515e-18
    outer loop
      vertex 3.970073509136851 3.401817603983344 1.5
      vertex 3.742462120245875 3.742462120245875 1.5
      vertex 3.742462120245875 3.742462120245875 0
    endloop
  endfacet
  facet normal -0.19509032201612794 -0.9807852804032305 0
    outer loop
      vertex 3 4.05 1.5
      vertex 3 4.05 0
      vertex 3.401817603983344 3.970073509136851 1.5
    endloop
  endfacet
  facet normal -0.5555702330196011 -0.8314696123025459 0
    outer loop
      vertex 3.401817603983344 3.970073509136851 1.5
      vertex 3.401817603983344 3.970073509136851 0
      vertex 3.742462120245875 3.742462120245875 1.5
    endloop
  endfacet
  facet normal -0.9807852804032305 -0.19509032201612794 -5.577149394066436e-18
    outer loop
      vertex 4.05 3 1.5
      vertex 3.970073509136851 3.401817603983344 1.5
      vertex 3.970073509136851 3.401817603983344 0
    endloop
  endfacet
  facet normal 0 0 -1
    outer loop
      vertex 0 0 0
      vertex 1.95 3 0
      vertex 2.029926490863149 2.598182396016656 0
    endloop
  endfacet
  facet normal 0 0 -1
    outer loop
      vertex 0 0 0
      vertex 2.029926490863149 2.598182396016656 0
      vertex 2.257537879754125 2.257537879754125 0
    endloop
  endfacet
  facet normal 0 0 -1
    outer loop
      vertex 0 0 0
      vertex 2.257537879754125 2.257537879754125 0
      vertex 2.598182396016656 2.029926490863149 0
    endloop
  endfacet
  facet normal 0 0 -1
    outer loop
      vertex 0 0 0
      vertex 2.598182396016656 2.029926490863149 0
      vertex 3 1.95 0
    endloop
  endfacet
  facet normal 0 0 -1
    outer loop
      vertex 0 0 0
      vertex 3.401817603983344 21.029926490863147 0
      vertex 1.95 3 0
    endloop
  endfacet
  facet normal 0 0 -1
    outer loop
      vertex 1.95 3 0
      vertex 3.401817603983344 21.029926490863147 0
      vertex 2.029926490863149 3.401817603983344 0
    endloop
  endfacet
  facet normal 0 0 -1
    outer loop
      vertex 2.029926490863149 3.401817603983344 0
      vertex 3.401817603983344 21.029926490863147 0
      vertex 2.257537879754125 3.742462120245875 0
    endloop
  endfacet
  facet normal 0 0 -1
    outer loop
      vertex 2.598182396016656 3.970073509136851 0
      vertex 2.257537879754125 3.742462120245875 0
      vertex 3.401817603983344 21.029926490863147 0
    endloop
  endfacet
  facet normal 0 0 -1
    outer loop
      vertex 3 4.05 0
      vertex 2.598182396016656 3.970073509136851 0
      vertex 3.401817603983344 21.029926490863147 0
    endloop
  endfacet
  facet normal 0 0 -1
    outer loop
      vertex 0 0 0
      vertex 3 1.95 0
      vertex 24.7 0 0
    endloop
  endfacet
  facet normal 0 0 -1
    outer loop
      vertex 24.7 0 0
      vertex 3 1.95 0
      vertex 3.401817603983344 2.029926490863149 0
    endloop
  endfacet
  facet normal 0 0 -1
    outer loop
      vertex 24.7 0 0
      vertex 3.401817603983344 2.029926490863149 0
      vertex 3.742462120245875 2.257537879754125 0
    endloop
  endfacet
  facet normal 0 0 -1
    outer loop
      vertex 3.742462120245875 2.257537879754125 0
      vertex 3.970073509136851 2.598182396016656 0
      vertex 21.257537879754125 2.257537879754125 0
    endloop
  endfacet
  facet normal 0 0 -1
    outer loop
      vertex 4.05 3 0
      vertex 21.029926490863147 2.598182396016656 0
      vertex 3.970073509136851 2.598182396016656 0
    endloop
  endfacet
  facet normal 0 0 -1
    outer loop
      vertex 3.970073509136851 3.401817603983344 0
      vertex 20.95 3 0
      vertex 4.05 3 0
    endloop
  endfacet
  facet normal 0 0 -1
    outer loop
      vertex 3.401817603983344 3.970073509136851 0
      vertex 3 4.05 0
      vertex 21.029926490863147 21.598182396016657 0
    endloop
  endfacet
  facet normal 0 0 -1
    outer loop
      vertex 3.742462120245875 3.742462120245875 0
      vertex 3.401817603983344 3.970073509136851 0
      vertex 21.257537879754125 21.257537879754125 0
    endloop
  endfacet
  facet normal 0 0 -1
    outer loop
      vertex 3.742462120245875 3.742462120245875 0
      vertex 21.598182396016657 21.029926490863147 0
      vertex 3.970073509136851 3.401817603983344 0
    endloop
  endfacet
  facet normal 0 0 1
    outer loop
      vertex 0 0 1.5
      vertex 2.029926490863149 2.598182396016656 1.5
      vertex 1.95 3 1.5
    endloop
  endfacet
  facet normal 0 0 1
    outer loop
      vertex 0 0 1.5
      vertex 2.257537879754125 2.257537879754125 1.5
      vertex 2.029926490863149 2.598182396016656 1.5
    endloop
  endfacet
  facet normal 0 0 1
    outer loop
      vertex 0 0 1.5
      vertex 2.598182396016656 2.029926490863149 1.5
      vertex 2.257537879754125 2.257537879754125 1.5
    endloop
  endfacet
  facet normal 0 0 1
    outer loop
      vertex 0 0 1.5
      vertex 3 1.95 1.5
      vertex 2.598182396016656 2.029926490863149 1.5
    endloop
  endfacet
  facet normal 0 0 1
    outer loop
      vertex 0 0 1.5
      vertex 3.401817603983344 2.029926490863149 1.5
      vertex 3 1.95 1.5
    endloop
  endfacet
  facet normal -1 0 0
    outer loop
      vertex 0 0 0
      vertex 0 0 1.5
      vertex 0 24.7 1.5
    endloop
  endfacet
  facet normal 0 0 1
    outer loop
      vertex 0 0 1.5
      vertex 1.95 3 1.5
      vertex 2.257537879754125 21.257537879754125 1.5
    endloop
  endfacet
  facet normal 0 0 1
    outer loop
      vertex 2.029926490863149 3.401817603983344 1.5
      vertex 2.257537879754125 21.257537879754125 1.5
      vertex 1.95 3 1.5
    endloop
  endfacet
  facet normal 0 0 1
    outer loop
      vertex 2.257537879754125 3.742462120245875 1.5
      vertex 2.257537879754125 21.257537879754125 1.5
      vertex 2.029926490863149 3.401817603983344 1.5
    endloop
  endfacet
  facet normal 0 0 1
    outer loop
      vertex 2.257537879754125 3.742462120245875 1.5
      vertex 2.598182396016656 3.970073509136851 1.5
      vertex 2.257537879754125 21.257537879754125 1.5
    endloop
  endfacet
  facet normal 0 0 1
    outer loop
      vertex 2.598182396016656 3.970073509136851 1.5
      vertex 3 4.05 1.5
      vertex 2.598182396016656 21.029926490863147 1.5
    endloop
  endfacet
  facet normal 0 0 1
    outer loop
      vertex 3 4.05 1.5
      vertex 3.401817603983344 3.970073509136851 1.5
      vertex 3 20.95 1.5
    endloop
  endfacet
  facet normal 0 0 1
    outer loop
      vertex 3.401817603983344 3.970073509136851 1.5
      vertex 3.742462120245875 3.742462120245875 1.5
      vertex 3.401817603983344 21.029926490863147 1.5
    endloop
  endfacet
  facet normal 0 0 1
    outer loop
      vertex 3.401817603983344 21.029926490863147 1.5
      vertex 3.742462120245875 3.742462120245875 1.5
      vertex 3.970073509136851 3.401817603983344 1.5
    endloop
  endfacet
  facet normal 0 -1 0
    outer loop
      vertex 0 0 0
      vertex 24.7 0 1.5
      vertex 0 0 1.5
    endloop
  endfacet
  facet normal 0 0 1
    outer loop
      vertex 0 0 1.5
      vertex 21.257537879754125 2.257537879754125 1.5
      vertex 3.401817603983344 2.029926490863149 1.5
    endloop
  endfacet
  facet normal 0 0 1
    outer loop
      vertex 3.742462120245875 2.257537879754125 1.5
      vertex 3.401817603983344 2.029926490863149 1.5
      vertex 21.257537879754125 2.257537879754125 1.5
    endloop
  endfacet
  facet normal 0 0 1
    outer loop
      vertex 3.742462120245875 2.257537879754125 1.5
      vertex 21.029926490863147 2.598182396016656 1.5
      vertex 3.970073509136851 2.598182396016656 1.5
    endloop
  endfacet
  facet normal 0 0 1
    outer loop
      vertex 3.970073509136851 2.598182396016656 1.5
      vertex 20.95 3 1.5
      vertex 4.05 3 1.5
    endloop
  endfacet
  facet normal 0 0 1
    outer loop
      vertex 4.05 3 1.5
      vertex 21.029926490863147 3.401817603983344 1.5
      vertex 3.970073509136851 3.401817603983344 1.5
    endloop
  endfacet
  facet normal 0 0 1
    outer loop
      vertex 3.401817603983344 21.029926490863147 1.5
      vertex 3.970073509136851 3.401817603983344 1.5
      vertex 21.029926490863147 3.401817603983344 1.5
    endloop
  endfacet
  facet normal 0 0 -1
    outer loop
      vertex 0 0 0
      vertex 1.95 22 0
      vertex 2.029926490863149 21.598182396016657 0
    endloop
  endfacet
  facet normal 0 0 -1
    outer loop
      vertex 0 0 0
      vertex 2.029926490863149 21.598182396016657 0
      vertex 2.257537879754125 21.257537879754125 0
    endloop
  endfacet
  facet normal 0 0 -1
    outer loop
      vertex 0 0 0
      vertex 2.257537879754125 21.257537879754125 0
      vertex 2.598182396016656 21.029926490863147 0
    endloop
  endfacet
  facet normal 0 0 -1
    outer loop
      vertex 0 0 0
      vertex 2.598182396016656 21.029926490863147 0
      vertex 3 20.95 0
    endloop
  endfacet
  facet normal 0 0 -1
    outer loop
      vertex 0 0 0
      vertex 3 20.95 0
      vertex 3.401817603983344 21.029926490863147 0
    endloop
  endfacet
  facet normal 0 0 -1
    outer loop
      vertex 0 0 0
      vertex 0 24.7 0
      vertex 1.95 22 0
    endloop
  endfacet
  facet normal -1 0 0
    outer loop
      vertex 0 0 0
      vertex 0 24.7 1.5
      vertex 0 24.7 0
    endloop
  endfacet
  facet normal 0 0 -1
    outer loop
      vertex 0 24.7 0
      vertex 2.029926490863149 22.401817603983343 0
      vertex 1.95 22 0
    endloop
  endfacet
  facet normal 0 0 -1
    outer loop
      vertex 0 24.7 0
      vertex 2.257537879754125 22.742462120245875 0
      vertex 2.029926490863149 22.401817603983343 0
    endloop
  endfacet
  facet normal 0 0 -1
    outer loop
      vertex 0 24.7 0
      vertex 2.598182396016656 22.970073509136853 0
      vertex 2.257537879754125 22.742462120245875 0
    endloop
  endfacet
  facet normal 0 0 -1
    outer loop
      vertex 0 24.7 0
      vertex 3 23.05 0
      vertex 2.598182396016656 22.970073509136853 0
    endloop
  endfacet
  facet normal 0 0 -1
    outer loop
      vertex 3 4.05 0
      vertex 3.401817603983344 21.029926490863147 0
      vertex 20.95 22 0
    endloop
  endfacet
  facet normal 0 0 -1
    outer loop
      vertex 3.401817603983344 22.970073509136853 0
      vertex 3 23.05 0
      vertex 21.257537879754125 22.742462120245875 0
    endloop
  endfacet
  facet normal 0 0 -1
    outer loop
      vertex 0 24.7 0
      vertex 21.257537879754125 22.742462120245875 0
      vertex 3 23.05 0
    endloop
  endfacet
  facet normal 0 0 -1
    outer loop
      vertex 3.401817603983344 21.029926490863147 0
      vertex 3.742462120245875 21.257537879754125 0
      vertex 20.95 22 0
    endloop
  endfacet
  facet normal 0 0 -1
    outer loop
      vertex 3.742462120245875 21.257537879754125 0
      vertex 3.970073509136851 21.598182396016657 0
      vertex 20.95 22 0
    endloop
  endfacet
  facet normal 0 0 -1
    outer loop
      vertex 4.05 22 0
      vertex 20.95 22 0
      vertex 3.970073509136851 21.598182396016657 0
    endloop
  endfacet
  facet normal 0 0 -1
    outer loop
      vertex 3.970073509136851 22.401817603983343 0
      vertex 20.95 22 0
      vertex 4.05 22 0
    endloop
  endfacet
  facet normal 0 0 -1
    outer loop
      vertex 3.742462120245875 22.742462120245875 0
      vertex 21.029926490863147 22.401817603983343 0
      vertex 3.970073509136851 22.401817603983343 0
    endloop
  endfacet
  facet normal 0 0 -1
    outer loop
      vertex 3.742462120245875 22.742462120245875 0
      vertex 3.401817603983344 22.970073509136853 0
      vertex 21.257537879754125 22.742462120245875 0
    endloop
  endfacet
  facet normal 0 1 0
    outer loop
      vertex 0 24.7 0
      vertex 0 24.7 1.5
      vertex 24.7 24.7 0
    endloop
  endfacet
  facet normal 0 0 1
    outer loop
      vertex 0 0 1.5
      vertex 2.029926490863149 21.598182396016657 1.5
      vertex 1.95 22 1.5
    endloop
  endfacet
  facet normal 0 0 1
    outer loop
      vertex 0 0 1.5
      vertex 2.257537879754125 21.257537879754125 1.5
      vertex 2.029926490863149 21.598182396016657 1.5
    endloop
  endfacet
  facet normal 0 0 1
    outer loop
      vertex 2.598182396016656 3.970073509136851 1.5
      vertex 2.598182396016656 21.029926490863147 1.5
      vertex 2.257537879754125 21.257537879754125 1.5
    endloop
  endfacet
  facet normal 0 0 1
    outer loop
      vertex 3 4.05 1.5
      vertex 3 20.95 1.5
      vertex 2.598182396016656 21.029926490863147 1.5
    endloop
  endfacet
  facet normal 0 0 1
    outer loop
      vertex 0 0 1.5
      vertex 1.95 22 1.5
      vertex 0 24.7 1.5
    endloop
  endfacet
  facet normal 0 0 1
    outer loop
      vertex 3.401817603983344 3.970073509136851 1.5
      vertex 3.401817603983344 21.029926490863147 1.5
      vertex 3 20.95 1.5
    endloop
  endfacet
  facet normal 0 0 1
    outer loop
      vertex 0 24.7 1.5
      vertex 1.95 22 1.5
      vertex 2.029926490863149 22.401817603983343 1.5
    endloop
  endfacet
  facet normal 0 0 1
    outer loop
      vertex 0 24.7 1.5
      vertex 2.029926490863149 22.401817603983343 1.5
      vertex 2.257537879754125 22.742462120245875 1.5
    endloop
  endfacet
  facet normal 0 0 1
    outer loop
      vertex 0 24.7 1.5
      vertex 2.257537879754125 22.742462120245875 1.5
      vertex 2.598182396016656 22.970073509136853 1.5
    endloop
  endfacet
  facet normal 0 0 1
    outer loop
      vertex 0 24.7 1.5
      vertex 2.598182396016656 22.970073509136853 1.5
      vertex 3 23.05 1.5
    endloop
  endfacet
  facet normal 0 0 1
    outer loop
      vertex 3.742462120245875 21.257537879754125 1.5
      vertex 3.401817603983344 21.029926490863147 1.5
      vertex 21.257537879754125 3.742462120245875 1.5
    endloop
  endfacet
  facet normal 0 0 1
    outer loop
      vertex 3.742462120245875 21.257537879754125 1.5
      vertex 21.598182396016657 3.970073509136851 1.5
      vertex 3.970073509136851 21.598182396016657 1.5
    endloop
  endfacet
  facet normal 0 0 1
    outer loop
      vertex 3.970073509136851 21.598182396016657 1.5
      vertex 22 4.05 1.5
      vertex 4.05 22 1.5
    endloop
  endfacet
  facet normal 0 0 1
    outer loop
      vertex 0 24.7 1.5
      vertex 3 23.05 1.5
      vertex 21.257537879754125 21.257537879754125 1.5
    endloop
  endfacet
  facet normal 0 0 1
    outer loop
      vertex 3 23.05 1.5
      vertex 3.401817603983344 22.970073509136853 1.5
      vertex 21.257537879754125 21.257537879754125 1.5
    endloop
  endfacet
  facet normal 0 0 1
    outer loop
      vertex 3.401817603983344 22.970073509136853 1.5
      vertex 3.742462120245875 22.742462120245875 1.5
      vertex 21.257537879754125 21.257537879754125 1.5
    endloop
  endfacet
  facet normal 0 0 1
    outer loop
      vertex 4.05 22 1.5
      vertex 21.257537879754125 21.257537879754125 1.5
      vertex 3.970073509136851 22.401817603983343 1.5
    endloop
  endfacet
  facet normal 0 0 1
    outer loop
      vertex 3.970073509136851 22.401817603983343 1.5
      vertex 21.257537879754125 21.257537879754125 1.5
      vertex 3.742462120245875 22.742462120245875 1.5
    endloop
  endfacet
  facet normal 0 0 -1
    outer loop
      vertex 3.970073509136851 2.598182396016656 0
      vertex 21.029926490863147 2.598182396016656 0
      vertex 21.257537879754125 2.257537879754125 0
    endloop
  endfacet
  facet normal 0 0 -1
    outer loop
      vertex 4.05 3 0
      vertex 20.95 3 0
      vertex 21.029926490863147 2.598182396016656 0
    endloop
  endfacet
  facet normal 0 0 -1
    outer loop
      vertex 3.970073509136851 3.401817603983344 0
      vertex 21.029926490863147 3.401817603983344 0
      vertex 20.95 3 0
    endloop
  endfacet
  facet normal 0 0 -1
    outer loop
      vertex 24.7 0 0
      vertex 3.742462120245875 2.257537879754125 0
      vertex 22 1.95 0
    endloop
  endfacet
  facet normal 0 0 -1
    outer loop
      vertex 3.742462120245875 2.257537879754125 0
      vertex 21.257537879754125 2.257537879754125 0
      vertex 21.598182396016657 2.029926490863149 0
    endloop
  endfacet
  facet normal 0 0 -1
    outer loop
      vertex 3.742462120245875 2.257537879754125 0
      vertex 21.598182396016657 2.029926490863149 0
      vertex 22 1.95 0
    endloop
  endfacet
  facet normal 0 -1 0
    outer loop
      vertex 0 0 0
      vertex 24.7 0 0
      vertex 24.7 0 1.5
    endloop
  endfacet
  facet normal 0 0 -1
    outer loop
      vertex 3.970073509136851 3.401817603983344 0
      vertex 21.598182396016657 21.029926490863147 0
      vertex 21.029926490863147 3.401817603983344 0
    endloop
  endfacet
  facet normal 0 0 -1
    outer loop
      vertex 24.7 0 0
      vertex 22 1.95 0
      vertex 22.401817603983343 2.029926490863149 0
    endloop
  endfacet
  facet normal 0 0 -1
    outer loop
      vertex 24.7 0 0
      vertex 22.401817603983343 2.029926490863149 0
      vertex 22.742462120245875 2.257537879754125 0
    endloop
  endfacet
  facet normal 0 0 -1
    outer loop
      vertex 24.7 0 0
      vertex 22.742462120245875 2.257537879754125 0
      vertex 22.970073509136853 2.598182396016656 0
    endloop
  endfacet
  facet normal 0 0 -1
    outer loop
      vertex 24.7 0 0
      vertex 22.970073509136853 2.598182396016656 0
      vertex 23.05 3 0
    endloop
  endfacet
  facet normal 0 0 -1
    outer loop
      vertex 24.7 0 0
      vertex 23.05 3 0
      vertex 22.970073509136853 3.401817603983344 0
    endloop
  endfacet
  facet normal 0 0 -1
    outer loop
      vertex 21.029926490863147 3.401817603983344 0
      vertex 21.598182396016657 21.029926490863147 0
      vertex 21.257537879754125 3.742462120245875 0
    endloop
  endfacet
  facet normal 0 0 -1
    outer loop
      vertex 21.598182396016657 3.970073509136851 0
      vertex 21.257537879754125 3.742462120245875 0
      vertex 21.598182396016657 21.029926490863147 0
    endloop
  endfacet
  facet normal 0 0 -1
    outer loop
      vertex 24.7 0 0
      vertex 22.970073509136853 3.401817603983344 0
      vertex 22.742462120245875 21.257537879754125 0
    endloop
  endfacet
  facet normal 0 0 -1
    outer loop
      vertex 22 4.05 0
      vertex 21.598182396016657 3.970073509136851 0
      vertex 22 20.95 0
    endloop
  endfacet
  facet normal 0 0 -1
    outer loop
      vertex 22.401817603983343 3.970073509136851 0
      vertex 22 4.05 0
      vertex 22.401817603983343 21.029926490863147 0
    endloop
  endfacet
  facet normal 0 0 -1
    outer loop
      vertex 22.401817603983343 3.970073509136851 0
      vertex 22.742462120245875 21.257537879754125 0
      vertex 22.742462120245875 3.742462120245875 0
    endloop
  endfacet
  facet normal 0 0 -1
    outer loop
      vertex 22.742462120245875 3.742462120245875 0
      vertex 22.742462120245875 21.257537879754125 0
      vertex 22.970073509136853 3.401817603983344 0
    endloop
  endfacet
  facet normal 1 0 0
    outer loop
      vertex 24.7 0 0
      vertex 24.7 24.7 0
      vertex 24.7 0 1.5
    endloop
  endfacet
  facet normal 0 0 1
    outer loop
      vertex 0 0 1.5
      vertex 21.598182396016657 2.029926490863149 1.5
      vertex 21.257537879754125 2.257537879754125 1.5
    endloop
  endfacet
  facet normal 0 0 1
    outer loop
      vertex 0 0 1.5
      vertex 22 1.95 1.5
      vertex 21.598182396016657 2.029926490863149 1.5
    endloop
  endfacet
  facet normal 0 0 1
    outer loop
      vertex 3.742462120245875 2.257537879754125 1.5
      vertex 21.257537879754125 2.257537879754125 1.5
      vertex 21.029926490863147 2.598182396016656 1.5
    endloop
  endfacet
  facet normal 0 0 1
    outer loop
      vertex 3.970073509136851 2.598182396016656 1.5
      vertex 21.029926490863147 2.598182396016656 1.5
      vertex 20.95 3 1.5
    endloop
  endfacet
  facet normal 0 0 1
    outer loop
      vertex 4.05 3 1.5
      vertex 20.95 3 1.5
      vertex 21.029926490863147 3.401817603983344 1.5
    endloop
  endfacet
  facet normal 0 0 1
    outer loop
      vertex 0 0 1.5
      vertex 24.7 0 1.5
      vertex 22 1.95 1.5
    endloop
  endfacet
  facet normal 0 0 1
    outer loop
      vertex 3.401817603983344 21.029926490863147 1.5
      vertex 21.029926490863147 3.401817603983344 1.5
      vertex 21.257537879754125 3.742462120245875 1.5
    endloop
  endfacet
  facet normal 0 0 1
    outer loop
      vertex 3.742462120245875 21.257537879754125 1.5
      vertex 21.257537879754125 3.742462120245875 1.5
      vertex 21.598182396016657 3.970073509136851 1.5
    endloop
  endfacet
  facet normal 0 0 1
    outer loop
      vertex 3.970073509136851 21.598182396016657 1.5
      vertex 21.598182396016657 3.970073509136851 1.5
      vertex 22 4.05 1.5
    endloop
  endfacet
  facet normal 0 0 1
    outer loop
      vertex 24.7 0 1.5
      vertex 22.401817603983343 2.029926490863149 1.5
      vertex 22 1.95 1.5
    endloop
  endfacet
  facet normal 0 0 1
    outer loop
      vertex 24.7 0 1.5
      vertex 22.742462120245875 2.257537879754125 1.5
      vertex 22.401817603983343 2.029926490863149 1.5
    endloop
  endfacet
  facet normal 0 0 1
    outer loop
      vertex 24.7 0 1.5
      vertex 22.970073509136853 2.598182396016656 1.5
      vertex 22.742462120245875 2.257537879754125 1.5
    endloop
  endfacet
  facet normal 0 0 1
    outer loop
      vertex 24.7 0 1.5
      vertex 23.05 3 1.5
      vertex 22.970073509136853 2.598182396016656 1.5
    endloop
  endfacet
  facet normal 0 0 1
    outer loop
      vertex 24.7 0 1.5
      vertex 21.257537879754125 21.257537879754125 1.5
      vertex 23.05 3 1.5
    endloop
  endfacet
  facet normal 0 0 1
    outer loop
      vertex 23.05 3 1.5
      vertex 21.257537879754125 21.257537879754125 1.5
      vertex 22.970073509136853 3.401817603983344 1.5
    endloop
  endfacet
  facet normal 0 0 1
    outer loop
      vertex 22 4.05 1.5
      vertex 22.401817603983343 3.970073509136851 1.5
      vertex 21.257537879754125 21.257537879754125 1.5
    endloop
  endfacet
  facet normal 0 0 1
    outer loop
      vertex 22.970073509136853 3.401817603983344 1.5
      vertex 21.257537879754125 21.257537879754125 1.5
      vertex 22.742462120245875 3.742462120245875 1.5
    endloop
  endfacet
  facet normal 0 0 1
    outer loop
      vertex 22.401817603983343 3.970073509136851 1.5
      vertex 22.742462120245875 3.742462120245875 1.5
      vertex 21.257537879754125 21.257537879754125 1.5
    endloop
  endfacet
  facet normal 0 0 -1
    outer loop
      vertex 3 4.05 0
      vertex 20.95 22 0
      vertex 21.029926490863147 21.598182396016657 0
    endloop
  endfacet
  facet normal 0 0 -1
    outer loop
      vertex 3.401817603983344 3.970073509136851 0
      vertex 21.029926490863147 21.598182396016657 0
      vertex 21.257537879754125 21.257537879754125 0
    endloop
  endfacet
  facet normal 0 0 -1
    outer loop
      vertex 3.742462120245875 3.742462120245875 0
      vertex 21.257537879754125 21.257537879754125 0
      vertex 21.598182396016657 21.029926490863147 0
    endloop
  endfacet
  facet normal 0 0 -1
    outer loop
      vertex 3.970073509136851 22.401817603983343 0
      vertex 21.029926490863147 22.401817603983343 0
      vertex 20.95 22 0
    endloop
  endfacet
  facet normal 0 0 -1
    outer loop
      vertex 3.742462120245875 22.742462120245875 0
      vertex 21.257537879754125 22.742462120245875 0
      vertex 21.029926490863147 22.401817603983343 0
    endloop
  endfacet
  facet normal 0 0 -1
    outer loop
      vertex 0 24.7 0
      vertex 21.598182396016657 22.970073509136853 0
      vertex 21.257537879754125 22.742462120245875 0
    endloop
  endfacet
  facet normal 0 0 -1
    outer loop
      vertex 0 24.7 0
      vertex 22 23.05 0
      vertex 21.598182396016657 22.970073509136853 0
    endloop
  endfacet
  facet normal 0 0 -1
    outer loop
      vertex 0 24.7 0
      vertex 24.7 24.7 0
      vertex 22 23.05 0
    endloop
  endfacet
  facet normal 0 0 -1
    outer loop
      vertex 21.598182396016657 3.970073509136851 0
      vertex 21.598182396016657 21.029926490863147 0
      vertex 22 20.95 0
    endloop
  endfacet
  facet normal 0 0 -1
    outer loop
      vertex 22 4.05 0
      vertex 22 20.95 0
      vertex 22.401817603983343 21.029926490863147 0
    endloop
  endfacet
  facet normal 0 0 -1
    outer loop
      vertex 22.401817603983343 3.970073509136851 0
      vertex 22.401817603983343 21.029926490863147 0
      vertex 22.742462120245875 21.257537879754125 0
    endloop
  endfacet
  facet normal 0 0 -1
    outer loop
      vertex 24.7 0 0
      vertex 22.742462120245875 21.257537879754125 0
      vertex 22.970073509136853 21.598182396016657 0
    endloop
  endfacet
  facet normal 0 0 -1
    outer loop
      vertex 24.7 0 0
      vertex 22.970073509136853 21.598182396016657 0
      vertex 23.05 22 0
    endloop
  endfacet
  facet normal 0 0 -1
    outer loop
      vertex 24.7 0 0
      vertex 23.05 22 0
      vertex 24.7 24.7 0
    endloop
  endfacet
  facet normal 0 0 -1
    outer loop
      vertex 24.7 24.7 0
      vertex 22.401817603983343 22.970073509136853 0
      vertex 22 23.05 0
    endloop
  endfacet
  facet normal 0 0 -1
    outer loop
      vertex 24.7 24.7 0
      vertex 23.05 22 0
      vertex 22.970073509136853 22.401817603983343 0
    endloop
  endfacet
  facet normal 0 0 -1
    outer loop
      vertex 24.7 24.7 0
      vertex 22.742462120245875 22.742462120245875 0
      vertex 22.401817603983343 22.970073509136853 0
    endloop
  endfacet
  facet normal 0 0 -1
    outer loop
      vertex 24.7 24.7 0
      vertex 22.970073509136853 22.401817603983343 0
      vertex 22.742462120245875 22.742462120245875 0
    endloop
  endfacet
  facet normal 0 0 1
    outer loop
      vertex 4.05 22 1.5
      vertex 22 4.05 1.5
      vertex 21.257537879754125 21.257537879754125 1.5
    endloop
  endfacet
  facet normal 0 1 0
    outer loop
      vertex 0 24.7 1.5
      vertex 24.7 24.7 1.5
      vertex 24.7 24.7 0
    endloop
  endfacet
  facet normal 0 0 1
    outer loop
      vertex 0 24.7 1.5
      vertex 21.029926490863147 21.598182396016657 1.5
      vertex 20.95 22 1.5
    endloop
  endfacet
  facet normal 0 0 1
    outer loop
      vertex 0 24.7 1.5
      vertex 21.257537879754125 21.257537879754125 1.5
      vertex 21.029926490863147 21.598182396016657 1.5
    endloop
  endfacet
  facet normal 0 0 1
    outer loop
      vertex 0 24.7 1.5
      vertex 20.95 22 1.5
      vertex 21.029926490863147 22.401817603983343 1.5
    endloop
  endfacet
  facet normal 0 0 1
    outer loop
      vertex 0 24.7 1.5
      vertex 21.029926490863147 22.401817603983343 1.5
      vertex 21.257537879754125 22.742462120245875 1.5
    endloop
  endfacet
  facet normal 0 0 1
    outer loop
      vertex 0 24.7 1.5
      vertex 21.257537879754125 22.742462120245875 1.5
      vertex 21.598182396016657 22.970073509136853 1.5
    endloop
  endfacet
  facet normal 0 0 1
    outer loop
      vertex 0 24.7 1.5
      vertex 21.598182396016657 22.970073509136853 1.5
      vertex 22 23.05 1.5
    endloop
  endfacet
  facet normal 0 0 1
    outer loop
      vertex 0 24.7 1.5
      vertex 22 23.05 1.5
      vertex 24.7 24.7 1.5
    endloop
  endfacet
  facet normal 1 0 0
    outer loop
      vertex 24.7 0 1.5
      vertex 24.7 24.7 0
      vertex 24.7 24.7 1.5
    endloop
  endfacet
  facet normal 0 0 1
    outer loop
      vertex 24.7 0 1.5
      vertex 21.598182396016657 21.029926490863147 1.5
      vertex 21.257537879754125 21.257537879754125 1.5
    endloop
  endfacet
  facet normal 0 0 1
    outer loop
      vertex 24.7 0 1.5
      vertex 22 20.95 1.5
      vertex 21.598182396016657 21.029926490863147 1.5
    endloop
  endfacet
  facet normal 0 0 1
    outer loop
      vertex 24.7 0 1.5
      vertex 22.401817603983343 21.029926490863147 1.5
      vertex 22 20.95 1.5
    endloop
  endfacet
  facet normal 0 0 1
    outer loop
      vertex 24.7 0 1.5
      vertex 22.742462120245875 21.257537879754125 1.5
      vertex 22.401817603983343 21.029926490863147 1.5
    endloop
  endfacet
  facet normal 0 0 1
    outer loop
      vertex 24.7 0 1.5
      vertex 22.970073509136853 21.598182396016657 1.5
      vertex 22.742462120245875 21.257537879754125 1.5
    endloop
  endfacet
  facet normal 0 0 1
    outer loop
      vertex 24.7 0 1.5
      vertex 23.05 22 1.5
      vertex 22.970073509136853 21.598182396016657 1.5
    endloop
  endfacet
  facet normal 0 0 1
    outer loop
      vertex 24.7 0 1.5
      vertex 24.7 24.7 1.5
      vertex 23.05 22 1.5
    endloop
  endfacet
  facet normal 0 0 1
    outer loop
      vertex 24.7 24.7 1.5
      vertex 22 23.05 1.5
      vertex 22.401817603983343 22.970073509136853 1.5
    endloop
  endfacet
  facet normal 0 0 1
    outer loop
      vertex 24.7 24.7 1.5
      vertex 22.970073509136853 22.401817603983343 1.5
      vertex 23.05 22 1.5
    endloop
  endfacet
  facet normal 0 0 1
    outer loop
      vertex 24.7 24.7 1.5
      vertex 22.401817603983343 22.970073509136853 1.5
      vertex 22.742462120245875 22.742462120245875 1.5
    endloop
  endfacet
  facet normal 0 0 1
    outer loop
      vertex 24.7 24.7 1.5
      vertex 22.742462120245875 22.742462120245875 1.5
      vertex 22.970073509136853 22.401817603983343 1.5
    endloop
  endfacet
endsolid OpenSCAD_Model
