solid OpenSCAD_Model
  facet normal 0 0 -1
    outer loop
      vertex -2.6792506442827313 -1.1097819538587603 0
      vertex -2.5114736709748717 1.45 0
      vertex -2.5114736709748717 -1.45 0
    endloop
  endfacet
  facet normal 0 0 -1
    outer loop
      vertex -2.6792506442827313 -1.1097819538587603 0
      vertex -2.801184896238298 -0.7505752307973101 0
      vertex -2.6792506442827313 1.1097819538587603 0
    endloop
  endfacet
  facet normal 0 0 -1
    outer loop
      vertex -2.801184896238298 -0.7505752307973101 0
      vertex -2.87519009798405 -0.37852595743814954 0
      vertex -2.801184896238298 0.7505752307973101 0
    endloop
  endfacet
  facet normal 0 0 -1
    outer loop
      vertex -2.300724686844582 -1.7654081441252898 0
      vertex -2.5114736709748717 -1.45 0
      vertex -2.300724686844582 1.7654081441252898 0
    endloop
  endfacet
  facet normal 0 0 -1
    outer loop
      vertex -1.7654081441252898 -2.300724686844582 0
      vertex -1.45 2.5114736709748717 0
      vertex -1.45 -2.5114736709748717 0
    endloop
  endfacet
  facet normal 0 0 -1
    outer loop
      vertex -2.300724686844582 -1.7654081441252898 0
      vertex -2.0506096654409878 2.0506096654409878 0
      vertex -2.0506096654409878 -2.0506096654409878 0
    endloop
  endfacet
  facet normal 0 0 -1
    outer loop
      vertex -1.7654081441252898 -2.300724686844582 0
      vertex -2.0506096654409878 -2.0506096654409878 0
      vertex -1.7654081441252898 2.300724686844582 0
    endloop
  endfacet
  facet normal 0 0 -1
    outer loop
      vertex -1.1097819538587603 -2.6792506442827313 0
      vertex -0.6363961030678928 -0.6363961030678928 0
      vertex -0.7505752307973101 -2.801184896238298 0
    endloop
  endfacet
  facet normal 0 0 -1
    outer loop
      vertex -0.7505752307973101 -2.801184896238298 0
      vertex -0.23293714059226867 -0.8693332436601615 0
      vertex -0.37852595743814954 -2.87519009798405 0
    endloop
  endfacet
  facet normal 0 0 -1
    outer loop
      vertex -0.37852595743814954 -2.87519009798405 0
      vertex 0 -0.9 0
      vertex 0 -2.9 0
    endloop
  endfacet
  facet normal 0 0 -1
    outer loop
      vertex -0.7505752307973101 -2.801184896238298 0
      vertex -0.45 -0.7794228634059948 0
      vertex -0.23293714059226867 -0.8693332436601615 0
    endloop
  endfacet
  facet normal 0 0 -1
    outer loop
      vertex -0.37852595743814954 -2.87519009798405 0
      vertex -0.23293714059226867 -0.8693332436601615 0
      vertex 0 -0.9 0
    endloop
  endfacet
  facet normal 0 0 -1
    outer loop
      vertex -1.1097819538587603 -2.6792506442827313 0
      vertex -1.45 -2.5114736709748717 0
      vertex -1.1097819538587603 2.6792506442827313 0
    endloop
  endfacet
  facet normal 0 0 -1
    outer loop
      vertex -1.1097819538587603 -2.6792506442827313 0
      vertex -0.8693332436601615 -0.23293714059226867 0
      vertex -0.7794228634059948 -0.45 0
    endloop
  endfacet
  facet normal 0 0 -1
    outer loop
      vertex -1.1097819538587603 -2.6792506442827313 0
      vertex -0.7794228634059948 -0.45 0
      vertex -0.6363961030678928 -0.6363961030678928 0
    endloop
  endfacet
  facet normal 0 0 -1
    outer loop
      vertex -1.1097819538587603 -2.6792506442827313 0
      vertex -0.9 0 0
      vertex -0.8693332436601615 -0.23293714059226867 0
    endloop
  endfacet
  facet normal 0 0 -1
    outer loop
      vertex -0.7505752307973101 -2.801184896238298 0
      vertex -0.6363961030678928 -0.6363961030678928 0
      vertex -0.45 -0.7794228634059948 0
    endloop
  endfacet
  facet normal -0.7518398074789775 -0.6593458151000687 0
    outer loop
      vertex -2.300724686844582 -1.7654081441252898 0
      vertex -2.0506096654409878 -2.0506096654409878 0
      vertex -2.300724686844582 -1.7654081441252898 1.6
    endloop
  endfacet
  facet normal -0.8314696123025456 -0.5555702330196018 -4.579832709038449e-18
    outer loop
      vertex -2.300724686844582 -1.7654081441252898 0
      vertex -2.5114736709748717 -1.45 1.6
      vertex -2.5114736709748717 -1.45 0
    endloop
  endfacet
  facet normal -0.6593458151000687 -0.7518398074789775 0
    outer loop
      vertex -1.7654081441252898 -2.300724686844582 0
      vertex -1.7654081441252898 -2.300724686844582 1.6
      vertex -2.0506096654409878 -2.0506096654409878 0
    endloop
  endfacet
  facet normal -0.5555702330196018 -0.8314696123025456 -4.579832709038449e-18
    outer loop
      vertex -1.7654081441252898 -2.300724686844582 0
      vertex -1.45 -2.5114736709748717 0
      vertex -1.45 -2.5114736709748717 1.6
    endloop
  endfacet
  facet normal -0.8314696123025456 -0.5555702330196018 0
    outer loop
      vertex -2.300724686844582 -1.7654081441252898 0
      vertex -2.300724686844582 -1.7654081441252898 1.6
      vertex -2.5114736709748717 -1.45 1.6
    endloop
  endfacet
  facet normal -0.5555702330196018 -0.8314696123025456 0
    outer loop
      vertex -1.7654081441252898 -2.300724686844582 0
      vertex -1.45 -2.5114736709748717 1.6
      vertex -1.7654081441252898 -2.300724686844582 1.6
    endloop
  endfacet
  facet normal -0.7518398074789775 -0.6593458151000687 0
    outer loop
      vertex -2.0506096654409878 -2.0506096654409878 0
      vertex -2.0506096654409878 -2.0506096654409878 1.6
      vertex -2.300724686844582 -1.7654081441252898 1.6
    endloop
  endfacet
  facet normal -0.6593458151000687 -0.7518398074789775 0
    outer loop
      vertex -2.0506096654409878 -2.0506096654409878 0
      vertex -1.7654081441252898 -2.300724686844582 1.6
      vertex -2.0506096654409878 -2.0506096654409878 1.6
    endloop
  endfacet
  facet normal -0.8968727415326883 -0.4422886902190015 0
    outer loop
      vertex -2.6792506442827313 -1.1097819538587603 0
      vertex -2.5114736709748717 -1.45 0
      vertex -2.6792506442827313 -1.1097819538587603 1.6
    endloop
  endfacet
  facet normal -0.9469301294951056 -0.321439465303162 5.707011983618961e-19
    outer loop
      vertex -2.6792506442827313 -1.1097819538587603 0
      vertex -2.801184896238298 -0.7505752307973101 1.6
      vertex -2.801184896238298 -0.7505752307973101 0
    endloop
  endfacet
  facet normal -0.9807852804032304 -0.19509032201612836 1.6450643145380516e-18
    outer loop
      vertex -2.801184896238298 -0.7505752307973101 0
      vertex -2.87519009798405 -0.37852595743814954 1.6
      vertex -2.87519009798405 -0.37852595743814954 0
    endloop
  endfacet
  facet normal -0.9978589232386036 -0.06540312923014305 7.725748715303991e-19
    outer loop
      vertex -2.87519009798405 -0.37852595743814954 0
      vertex -2.9 0 1.6
      vertex -2.9 0 0
    endloop
  endfacet
  facet normal -0.8968727415326883 -0.4422886902190015 0
    outer loop
      vertex -2.5114736709748717 -1.45 0
      vertex -2.5114736709748717 -1.45 1.6
      vertex -2.6792506442827313 -1.1097819538587603 1.6
    endloop
  endfacet
  facet normal -0.9469301294951056 -0.321439465303162 0
    outer loop
      vertex -2.6792506442827313 -1.1097819538587603 0
      vertex -2.6792506442827313 -1.1097819538587603 1.6
      vertex -2.801184896238298 -0.7505752307973101 1.6
    endloop
  endfacet
  facet normal -0.9807852804032304 -0.19509032201612836 0
    outer loop
      vertex -2.801184896238298 -0.7505752307973101 0
      vertex -2.801184896238298 -0.7505752307973101 1.6
      vertex -2.87519009798405 -0.37852595743814954 1.6
    endloop
  endfacet
  facet normal -0.9978589232386036 -0.06540312923014305 0
    outer loop
      vertex -2.87519009798405 -0.37852595743814954 0
      vertex -2.87519009798405 -0.37852595743814954 1.6
      vertex -2.9 0 1.6
    endloop
  endfacet
  facet normal 0 0 1
    outer loop
      vertex -2.6792506442827313 -1.1097819538587603 1.6
      vertex -2.801184896238298 0.7505752307973101 1.6
      vertex -2.801184896238298 -0.7505752307973101 1.6
    endloop
  endfacet
  facet normal 0 0 1
    outer loop
      vertex -2.6792506442827313 -1.1097819538587603 1.6
      vertex -2.5114736709748717 -1.45 1.6
      vertex -2.6792506442827313 1.1097819538587603 1.6
    endloop
  endfacet
  facet normal 0 0 1
    outer loop
      vertex -2.801184896238298 -0.7505752307973101 1.6
      vertex -2.87519009798405 0.37852595743814954 1.6
      vertex -2.87519009798405 -0.37852595743814954 1.6
    endloop
  endfacet
  facet normal 0 0 1
    outer loop
      vertex -2.300724686844582 -1.7654081441252898 1.6
      vertex -2.5114736709748717 1.45 1.6
      vertex -2.5114736709748717 -1.45 1.6
    endloop
  endfacet
  facet normal 0 0 1
    outer loop
      vertex -2.300724686844582 -1.7654081441252898 1.6
      vertex -2.0506096654409878 -2.0506096654409878 1.6
      vertex -2.300724686844582 1.7654081441252898 1.6
    endloop
  endfacet
  facet normal 0 0 1
    outer loop
      vertex -1.7654081441252898 -2.300724686844582 1.6
      vertex -2.0506096654409878 2.0506096654409878 1.6
      vertex -2.0506096654409878 -2.0506096654409878 1.6
    endloop
  endfacet
  facet normal 0 0 1
    outer loop
      vertex -1.7654081441252898 -2.300724686844582 1.6
      vertex -1.45 -2.5114736709748717 1.6
      vertex -1.7654081441252898 2.300724686844582 1.6
    endloop
  endfacet
  facet normal -0.4422886902190015 -0.8968727415326883 0
    outer loop
      vertex -1.1097819538587603 -2.6792506442827313 0
      vertex -1.1097819538587603 -2.6792506442827313 1.6
      vertex -1.45 -2.5114736709748717 0
    endloop
  endfacet
  facet normal -0.321439465303162 -0.9469301294951056 5.707011983618961e-19
    outer loop
      vertex -1.1097819538587603 -2.6792506442827313 0
      vertex -0.7505752307973101 -2.801184896238298 0
      vertex -0.7505752307973101 -2.801184896238298 1.6
    endloop
  endfacet
  facet normal -0.19509032201612836 -0.9807852804032304 1.6450643145380516e-18
    outer loop
      vertex -0.7505752307973101 -2.801184896238298 0
      vertex -0.37852595743814954 -2.87519009798405 0
      vertex -0.37852595743814954 -2.87519009798405 1.6
    endloop
  endfacet
  facet normal -0.06540312923014305 -0.9978589232386036 7.725748715303991e-19
    outer loop
      vertex -0.37852595743814954 -2.87519009798405 0
      vertex 0 -2.9 0
      vertex 0 -2.9 1.6
    endloop
  endfacet
  facet normal -0.4422886902190015 -0.8968727415326883 0
    outer loop
      vertex -1.45 -2.5114736709748717 0
      vertex -1.1097819538587603 -2.6792506442827313 1.6
      vertex -1.45 -2.5114736709748717 1.6
    endloop
  endfacet
  facet normal -0.321439465303162 -0.9469301294951056 0
    outer loop
      vertex -1.1097819538587603 -2.6792506442827313 0
      vertex -0.7505752307973101 -2.801184896238298 1.6
      vertex -1.1097819538587603 -2.6792506442827313 1.6
    endloop
  endfacet
  facet normal -0.19509032201612836 -0.9807852804032304 0
    outer loop
      vertex -0.7505752307973101 -2.801184896238298 0
      vertex -0.37852595743814954 -2.87519009798405 1.6
      vertex -0.7505752307973101 -2.801184896238298 1.6
    endloop
  endfacet
  facet normal -0.06540312923014305 -0.9978589232386036 0
    outer loop
      vertex -0.37852595743814954 -2.87519009798405 0
      vertex 0 -2.9 1.6
      vertex -0.37852595743814954 -2.87519009798405 1.6
    endloop
  endfacet
  facet normal 0 0 1
    outer loop
      vertex -1.1097819538587603 -2.6792506442827313 1.6
      vertex -1.45 2.5114736709748717 1.6
      vertex -1.45 -2.5114736709748717 1.6
    endloop
  endfacet
  facet normal 0 0 1
    outer loop
      vertex -1.1097819538587603 -2.6792506442827313 1.6
      vertex -0.7505752307973101 -2.801184896238298 1.6
      vertex -1.1097819538587603 2.6792506442827313 1.6
    endloop
  endfacet
  facet normal 0 0 1
    outer loop
      vertex -0.7505752307973101 -2.801184896238298 1.6
      vertex -0.37852595743814954 -2.87519009798405 1.6
      vertex -0.7505752307973101 2.801184896238298 1.6
    endloop
  endfacet
  facet normal 0 0 1
    outer loop
      vertex -0.37852595743814954 -2.87519009798405 1.6
      vertex 0 -2.9 1.6
      vertex -0.37852595743814954 2.87519009798405 1.6
    endloop
  endfacet
  facet normal 0 0 -1
    outer loop
      vertex -2.87519009798405 -0.37852595743814954 0
      vertex -2.9 0 0
      vertex -2.87519009798405 0.37852595743814954 0
    endloop
  endfacet
  facet normal 0 0 -1
    outer loop
      vertex -2.87519009798405 -0.37852595743814954 0
      vertex -2.87519009798405 0.37852595743814954 0
      vertex -2.801184896238298 0.7505752307973101 0
    endloop
  endfacet
  facet normal 0 0 -1
    outer loop
      vertex -2.801184896238298 -0.7505752307973101 0
      vertex -2.801184896238298 0.7505752307973101 0
      vertex -2.6792506442827313 1.1097819538587603 0
    endloop
  endfacet
  facet normal 0 0 -1
    outer loop
      vertex -2.6792506442827313 -1.1097819538587603 0
      vertex -2.6792506442827313 1.1097819538587603 0
      vertex -2.5114736709748717 1.45 0
    endloop
  endfacet
  facet normal 0 0 -1
    outer loop
      vertex -2.5114736709748717 -1.45 0
      vertex -2.5114736709748717 1.45 0
      vertex -2.300724686844582 1.7654081441252898 0
    endloop
  endfacet
  facet normal 0 0 -1
    outer loop
      vertex -2.300724686844582 -1.7654081441252898 0
      vertex -2.300724686844582 1.7654081441252898 0
      vertex -2.0506096654409878 2.0506096654409878 0
    endloop
  endfacet
  facet normal 0 0 -1
    outer loop
      vertex -2.0506096654409878 -2.0506096654409878 0
      vertex -2.0506096654409878 2.0506096654409878 0
      vertex -1.7654081441252898 2.300724686844582 0
    endloop
  endfacet
  facet normal 0 0 -1
    outer loop
      vertex -1.7654081441252898 -2.300724686844582 0
      vertex -1.7654081441252898 2.300724686844582 0
      vertex -1.45 2.5114736709748717 0
    endloop
  endfacet
  facet normal 0 0 -1
    outer loop
      vertex -1.1097819538587603 -2.6792506442827313 0
      vertex -0.7505752307973101 2.801184896238298 0
      vertex -0.9 0 0
    endloop
  endfacet
  facet normal 0 0 -1
    outer loop
      vertex -1.45 -2.5114736709748717 0
      vertex -1.45 2.5114736709748717 0
      vertex -1.1097819538587603 2.6792506442827313 0
    endloop
  endfacet
  facet normal 0 0 -1
    outer loop
      vertex -1.1097819538587603 -2.6792506442827313 0
      vertex -1.1097819538587603 2.6792506442827313 0
      vertex -0.7505752307973101 2.801184896238298 0
    endloop
  endfacet
  facet normal 0 0 -1
    outer loop
      vertex -0.7505752307973101 2.801184896238298 0
      vertex -0.8693332436601615 0.23293714059226867 0
      vertex -0.9 0 0
    endloop
  endfacet
  facet normal 0 0 -1
    outer loop
      vertex -0.7505752307973101 2.801184896238298 0
      vertex -0.7794228634059948 0.45 0
      vertex -0.8693332436601615 0.23293714059226867 0
    endloop
  endfacet
  facet normal 0 0 -1
    outer loop
      vertex -0.7505752307973101 2.801184896238298 0
      vertex -0.6363961030678928 0.6363961030678928 0
      vertex -0.7794228634059948 0.45 0
    endloop
  endfacet
  facet normal 0 0 -1
    outer loop
      vertex -0.37852595743814954 2.87519009798405 0
      vertex -0.45 0.7794228634059948 0
      vertex -0.6363961030678928 0.6363961030678928 0
    endloop
  endfacet
  facet normal 0 0 -1
    outer loop
      vertex -0.7505752307973101 2.801184896238298 0
      vertex -0.37852595743814954 2.87519009798405 0
      vertex -0.6363961030678928 0.6363961030678928 0
    endloop
  endfacet
  facet normal 0 0 -1
    outer loop
      vertex -0.37852595743814954 2.87519009798405 0
      vertex -0.23293714059226867 0.8693332436601615 0
      vertex -0.45 0.7794228634059948 0
    endloop
  endfacet
  facet normal 0 0 -1
    outer loop
      vertex 0 2.9 0
      vertex 0 0.9 0
      vertex -0.23293714059226867 0.8693332436601615 0
    endloop
  endfacet
  facet normal 0 0 -1
    outer loop
      vertex -0.37852595743814954 2.87519009798405 0
      vertex 0 2.9 0
      vertex -0.23293714059226867 0.8693332436601615 0
    endloop
  endfacet
  facet normal -0.9978589232386036 0.06540312923014305 -7.725748715303991e-19
    outer loop
      vertex -2.9 0 0
      vertex -2.87519009798405 0.37852595743814954 1.6
      vertex -2.87519009798405 0.37852595743814954 0
    endloop
  endfacet
  facet normal -0.9807852804032304 0.19509032201612836 -1.6450643145380516e-18
    outer loop
      vertex -2.87519009798405 0.37852595743814954 0
      vertex -2.801184896238298 0.7505752307973101 1.6
      vertex -2.801184896238298 0.7505752307973101 0
    endloop
  endfacet
  facet normal -0.9469301294951056 0.321439465303162 -5.707011983618961e-19
    outer loop
      vertex -2.801184896238298 0.7505752307973101 0
      vertex -2.6792506442827313 1.1097819538587603 1.6
      vertex -2.6792506442827313 1.1097819538587603 0
    endloop
  endfacet
  facet normal -0.8968727415326883 0.4422886902190015 5.546957554969129e-18
    outer loop
      vertex -2.6792506442827313 1.1097819538587603 0
      vertex -2.5114736709748717 1.45 1.6
      vertex -2.5114736709748717 1.45 0
    endloop
  endfacet
  facet normal -0.9978589232386036 0.06540312923014305 0
    outer loop
      vertex -2.9 0 0
      vertex -2.9 0 1.6
      vertex -2.87519009798405 0.37852595743814954 1.6
    endloop
  endfacet
  facet normal -0.9807852804032304 0.19509032201612836 0
    outer loop
      vertex -2.87519009798405 0.37852595743814954 0
      vertex -2.87519009798405 0.37852595743814954 1.6
      vertex -2.801184896238298 0.7505752307973101 1.6
    endloop
  endfacet
  facet normal 0 0 1
    outer loop
      vertex -2.87519009798405 -0.37852595743814954 1.6
      vertex -2.87519009798405 0.37852595743814954 1.6
      vertex -2.9 0 1.6
    endloop
  endfacet
  facet normal 0 0 1
    outer loop
      vertex -2.801184896238298 -0.7505752307973101 1.6
      vertex -2.801184896238298 0.7505752307973101 1.6
      vertex -2.87519009798405 0.37852595743814954 1.6
    endloop
  endfacet
  facet normal 0 0 1
    outer loop
      vertex -2.6792506442827313 -1.1097819538587603 1.6
      vertex -2.6792506442827313 1.1097819538587603 1.6
      vertex -2.801184896238298 0.7505752307973101 1.6
    endloop
  endfacet
  facet normal 0 0 1
    outer loop
      vertex -2.5114736709748717 -1.45 1.6
      vertex -2.5114736709748717 1.45 1.6
      vertex -2.6792506442827313 1.1097819538587603 1.6
    endloop
  endfacet
  facet normal 0 0 1
    outer loop
      vertex -2.300724686844582 -1.7654081441252898 1.6
      vertex -2.300724686844582 1.7654081441252898 1.6
      vertex -2.5114736709748717 1.45 1.6
    endloop
  endfacet
  facet normal -0.9469301294951056 0.321439465303162 0
    outer loop
      vertex -2.801184896238298 0.7505752307973101 0
      vertex -2.801184896238298 0.7505752307973101 1.6
      vertex -2.6792506442827313 1.1097819538587603 1.6
    endloop
  endfacet
  facet normal -0.8968727415326883 0.4422886902190015 0
    outer loop
      vertex -2.6792506442827313 1.1097819538587603 0
      vertex -2.6792506442827313 1.1097819538587603 1.6
      vertex -2.5114736709748717 1.45 1.6
    endloop
  endfacet
  facet normal 0 0 1
    outer loop
      vertex -2.0506096654409878 -2.0506096654409878 1.6
      vertex -2.0506096654409878 2.0506096654409878 1.6
      vertex -2.300724686844582 1.7654081441252898 1.6
    endloop
  endfacet
  facet normal 0 0 1
    outer loop
      vertex -1.7654081441252898 -2.300724686844582 1.6
      vertex -1.7654081441252898 2.300724686844582 1.6
      vertex -2.0506096654409878 2.0506096654409878 1.6
    endloop
  endfacet
  facet normal 0 0 1
    outer loop
      vertex -1.45 -2.5114736709748717 1.6
      vertex -1.45 2.5114736709748717 1.6
      vertex -1.7654081441252898 2.300724686844582 1.6
    endloop
  endfacet
  facet normal -0.8314696123025456 0.5555702330196018 4.579832709038449e-18
    outer loop
      vertex -2.5114736709748717 1.45 0
      vertex -2.300724686844582 1.7654081441252898 1.6
      vertex -2.300724686844582 1.7654081441252898 0
    endloop
  endfacet
  facet normal -0.7518398074789775 0.6593458151000687 -9.72096982002563e-18
    outer loop
      vertex -2.300724686844582 1.7654081441252898 0
      vertex -2.0506096654409878 2.0506096654409878 1.6
      vertex -2.0506096654409878 2.0506096654409878 0
    endloop
  endfacet
  facet normal -0.6593458151000687 0.7518398074789775 0
    outer loop
      vertex -2.0506096654409878 2.0506096654409878 0
      vertex -2.0506096654409878 2.0506096654409878 1.6
      vertex -1.7654081441252898 2.300724686844582 0
    endloop
  endfacet
  facet normal -0.5555702330196018 0.8314696123025456 0
    outer loop
      vertex -1.7654081441252898 2.300724686844582 0
      vertex -1.7654081441252898 2.300724686844582 1.6
      vertex -1.45 2.5114736709748717 0
    endloop
  endfacet
  facet normal -0.8314696123025456 0.5555702330196018 0
    outer loop
      vertex -2.5114736709748717 1.45 0
      vertex -2.5114736709748717 1.45 1.6
      vertex -2.300724686844582 1.7654081441252898 1.6
    endloop
  endfacet
  facet normal -0.7518398074789775 0.6593458151000687 0
    outer loop
      vertex -2.300724686844582 1.7654081441252898 0
      vertex -2.300724686844582 1.7654081441252898 1.6
      vertex -2.0506096654409878 2.0506096654409878 1.6
    endloop
  endfacet
  facet normal -0.6593458151000687 0.7518398074789775 0
    outer loop
      vertex -1.7654081441252898 2.300724686844582 0
      vertex -2.0506096654409878 2.0506096654409878 1.6
      vertex -1.7654081441252898 2.300724686844582 1.6
    endloop
  endfacet
  facet normal -0.5555702330196018 0.8314696123025456 0
    outer loop
      vertex -1.45 2.5114736709748717 0
      vertex -1.7654081441252898 2.300724686844582 1.6
      vertex -1.45 2.5114736709748717 1.6
    endloop
  endfacet
  facet normal 0 0 1
    outer loop
      vertex -1.1097819538587603 -2.6792506442827313 1.6
      vertex -1.1097819538587603 2.6792506442827313 1.6
      vertex -1.45 2.5114736709748717 1.6
    endloop
  endfacet
  facet normal 0 0 1
    outer loop
      vertex -0.7505752307973101 -2.801184896238298 1.6
      vertex -0.7505752307973101 2.801184896238298 1.6
      vertex -1.1097819538587603 2.6792506442827313 1.6
    endloop
  endfacet
  facet normal 0 0 1
    outer loop
      vertex -0.37852595743814954 -2.87519009798405 1.6
      vertex -0.37852595743814954 2.87519009798405 1.6
      vertex -0.7505752307973101 2.801184896238298 1.6
    endloop
  endfacet
  facet normal 0 0 1
    outer loop
      vertex -0.37852595743814954 2.87519009798405 1.6
      vertex 0 -2.9 1.6
      vertex 0 2.9 1.6
    endloop
  endfacet
  facet normal -0.4422886902190015 0.8968727415326883 0
    outer loop
      vertex -1.45 2.5114736709748717 0
      vertex -1.45 2.5114736709748717 1.6
      vertex -1.1097819538587603 2.6792506442827313 0
    endloop
  endfacet
  facet normal -0.321439465303162 0.9469301294951056 0
    outer loop
      vertex -1.1097819538587603 2.6792506442827313 0
      vertex -1.1097819538587603 2.6792506442827313 1.6
      vertex -0.7505752307973101 2.801184896238298 0
    endloop
  endfacet
  facet normal -0.19509032201612836 0.9807852804032304 0
    outer loop
      vertex -0.7505752307973101 2.801184896238298 0
      vertex -0.7505752307973101 2.801184896238298 1.6
      vertex -0.37852595743814954 2.87519009798405 0
    endloop
  endfacet
  facet normal -0.06540312923014305 0.9978589232386036 0
    outer loop
      vertex -0.37852595743814954 2.87519009798405 0
      vertex -0.37852595743814954 2.87519009798405 1.6
      vertex 0 2.9 0
    endloop
  endfacet
  facet normal -0.4422886902190015 0.8968727415326883 0
    outer loop
      vertex -1.1097819538587603 2.6792506442827313 0
      vertex -1.45 2.5114736709748717 1.6
      vertex -1.1097819538587603 2.6792506442827313 1.6
    endloop
  endfacet
  facet normal -0.321439465303162 0.9469301294951056 0
    outer loop
      vertex -0.7505752307973101 2.801184896238298 0
      vertex -1.1097819538587603 2.6792506442827313 1.6
      vertex -0.7505752307973101 2.801184896238298 1.6
    endloop
  endfacet
  facet normal -0.19509032201612836 0.9807852804032304 0
    outer loop
      vertex -0.37852595743814954 2.87519009798405 0
      vertex -0.7505752307973101 2.801184896238298 1.6
      vertex -0.37852595743814954 2.87519009798405 1.6
    endloop
  endfacet
  facet normal -0.06540312923014305 0.9978589232386036 -7.725748715303991e-19
    outer loop
      vertex -0.37852595743814954 2.87519009798405 1.6
      vertex 0 2.9 1.6
      vertex 0 2.9 0
    endloop
  endfacet
  facet normal 0 0 -1
    outer loop
      vertex 0 -2.9 0
      vertex 0.23293714059226867 -0.8693332436601615 0
      vertex 0.37852595743814954 -2.87519009798405 0
    endloop
  endfacet
  facet normal 0 0 -1
    outer loop
      vertex 0 -2.9 0
      vertex 0 -0.9 0
      vertex 0.23293714059226867 -0.8693332436601615 0
    endloop
  endfacet
  facet normal 0 0 -1
    outer loop
      vertex 0.37852595743814954 -2.87519009798405 0
      vertex 0.23293714059226867 -0.8693332436601615 0
      vertex 0.45 -0.7794228634059948 0
    endloop
  endfacet
  facet normal 0 0 -1
    outer loop
      vertex 0.37852595743814954 -2.87519009798405 0
      vertex 0.6363961030678928 -0.6363961030678928 0
      vertex 0.7505752307973101 -2.801184896238298 0
    endloop
  endfacet
  facet normal 0 0 -1
    outer loop
      vertex 0.37852595743814954 -2.87519009798405 0
      vertex 0.45 -0.7794228634059948 0
      vertex 0.6363961030678928 -0.6363961030678928 0
    endloop
  endfacet
  facet normal 0 0 -1
    outer loop
      vertex 0.7505752307973101 -2.801184896238298 0
      vertex 0.6363961030678928 -0.6363961030678928 0
      vertex 0.7794228634059948 -0.45 0
    endloop
  endfacet
  facet normal 0 0 -1
    outer loop
      vertex 0.7505752307973101 -2.801184896238298 0
      vertex 0.7794228634059948 -0.45 0
      vertex 0.8693332436601615 -0.23293714059226867 0
    endloop
  endfacet
  facet normal 0 0 -1
    outer loop
      vertex 0.7505752307973101 -2.801184896238298 0
      vertex 0.8693332436601615 -0.23293714059226867 0
      vertex 0.9 0 0
    endloop
  endfacet
  facet normal 0 0 -1
    outer loop
      vertex 0.7505752307973101 -2.801184896238298 0
      vertex 1.1097819538587603 2.6792506442827313 0
      vertex 1.1097819538587603 -2.6792506442827313 0
    endloop
  endfacet
  facet normal 0 0 -1
    outer loop
      vertex 1.1097819538587603 -2.6792506442827313 0
      vertex 1.45 2.5114736709748717 0
      vertex 1.45 -2.5114736709748717 0
    endloop
  endfacet
  facet normal 0 0 -1
    outer loop
      vertex 0.7505752307973101 -2.801184896238298 0
      vertex 0.9 0 0
      vertex 1.1097819538587603 2.6792506442827313 0
    endloop
  endfacet
  facet normal 0 0 -1
    outer loop
      vertex 1.45 -2.5114736709748717 0
      vertex 1.7654081441252898 2.300724686844582 0
      vertex 1.7654081441252898 -2.300724686844582 0
    endloop
  endfacet
  facet normal 0 0 -1
    outer loop
      vertex 1.7654081441252898 -2.300724686844582 0
      vertex 2.0506096654409878 2.0506096654409878 0
      vertex 2.0506096654409878 -2.0506096654409878 0
    endloop
  endfacet
  facet normal 0 0 -1
    outer loop
      vertex 2.0506096654409878 -2.0506096654409878 0
      vertex 2.300724686844582 1.7654081441252898 0
      vertex 2.300724686844582 -1.7654081441252898 0
    endloop
  endfacet
  facet normal 0 0 -1
    outer loop
      vertex 2.300724686844582 -1.7654081441252898 0
      vertex 2.5114736709748717 1.45 0
      vertex 2.5114736709748717 -1.45 0
    endloop
  endfacet
  facet normal 0 0 -1
    outer loop
      vertex 2.5114736709748717 -1.45 0
      vertex 2.6792506442827313 1.1097819538587603 0
      vertex 2.6792506442827313 -1.1097819538587603 0
    endloop
  endfacet
  facet normal 0 0 -1
    outer loop
      vertex 2.6792506442827313 -1.1097819538587603 0
      vertex 2.801184896238298 0.7505752307973101 0
      vertex 2.801184896238298 -0.7505752307973101 0
    endloop
  endfacet
  facet normal 0 0 -1
    outer loop
      vertex 2.801184896238298 -0.7505752307973101 0
      vertex 2.87519009798405 0.37852595743814954 0
      vertex 2.87519009798405 -0.37852595743814954 0
    endloop
  endfacet
  facet normal 0.06540312923014305 -0.9978589232386036 -7.725748715303991e-19
    outer loop
      vertex 0 -2.9 0
      vertex 0.37852595743814954 -2.87519009798405 0
      vertex 0.37852595743814954 -2.87519009798405 1.6
    endloop
  endfacet
  facet normal 0.19509032201612836 -0.9807852804032304 -1.6450643145380516e-18
    outer loop
      vertex 0.37852595743814954 -2.87519009798405 0
      vertex 0.7505752307973101 -2.801184896238298 0
      vertex 0.7505752307973101 -2.801184896238298 1.6
    endloop
  endfacet
  facet normal 0.321439465303162 -0.9469301294951056 -5.707011983618961e-19
    outer loop
      vertex 0.7505752307973101 -2.801184896238298 0
      vertex 1.1097819538587603 -2.6792506442827313 0
      vertex 1.1097819538587603 -2.6792506442827313 1.6
    endloop
  endfacet
  facet normal 0.4422886902190015 -0.8968727415326883 5.546957554969129e-18
    outer loop
      vertex 1.1097819538587603 -2.6792506442827313 0
      vertex 1.45 -2.5114736709748717 0
      vertex 1.45 -2.5114736709748717 1.6
    endloop
  endfacet
  facet normal 0.06540312923014305 -0.9978589232386036 0
    outer loop
      vertex 0 -2.9 0
      vertex 0.37852595743814954 -2.87519009798405 1.6
      vertex 0 -2.9 1.6
    endloop
  endfacet
  facet normal 0.19509032201612836 -0.9807852804032304 0
    outer loop
      vertex 0.37852595743814954 -2.87519009798405 0
      vertex 0.7505752307973101 -2.801184896238298 1.6
      vertex 0.37852595743814954 -2.87519009798405 1.6
    endloop
  endfacet
  facet normal 0.321439465303162 -0.9469301294951056 0
    outer loop
      vertex 0.7505752307973101 -2.801184896238298 0
      vertex 1.1097819538587603 -2.6792506442827313 1.6
      vertex 0.7505752307973101 -2.801184896238298 1.6
    endloop
  endfacet
  facet normal 0.4422886902190015 -0.8968727415326883 0
    outer loop
      vertex 1.1097819538587603 -2.6792506442827313 0
      vertex 1.45 -2.5114736709748717 1.6
      vertex 1.1097819538587603 -2.6792506442827313 1.6
    endloop
  endfacet
  facet normal 0 0 1
    outer loop
      vertex 0 -2.9 1.6
      vertex 0.37852595743814954 -2.87519009798405 1.6
      vertex 0 2.9 1.6
    endloop
  endfacet
  facet normal 0 0 1
    outer loop
      vertex 0.37852595743814954 -2.87519009798405 1.6
      vertex 0.7505752307973101 -2.801184896238298 1.6
      vertex 0.37852595743814954 2.87519009798405 1.6
    endloop
  endfacet
  facet normal 0 0 1
    outer loop
      vertex 0.7505752307973101 -2.801184896238298 1.6
      vertex 1.1097819538587603 -2.6792506442827313 1.6
      vertex 0.7505752307973101 2.801184896238298 1.6
    endloop
  endfacet
  facet normal 0 0 1
    outer loop
      vertex 1.1097819538587603 -2.6792506442827313 1.6
      vertex 1.45 -2.5114736709748717 1.6
      vertex 1.1097819538587603 2.6792506442827313 1.6
    endloop
  endfacet
  facet normal 0.5555702330196018 -0.8314696123025456 4.579832709038449e-18
    outer loop
      vertex 1.45 -2.5114736709748717 0
      vertex 1.7654081441252898 -2.300724686844582 0
      vertex 1.7654081441252898 -2.300724686844582 1.6
    endloop
  endfacet
  facet normal 0.6593458151000687 -0.7518398074789775 -9.72096982002563e-18
    outer loop
      vertex 1.7654081441252898 -2.300724686844582 0
      vertex 2.0506096654409878 -2.0506096654409878 0
      vertex 2.0506096654409878 -2.0506096654409878 1.6
    endloop
  endfacet
  facet normal 0.7518398074789775 -0.6593458151000687 0
    outer loop
      vertex 2.0506096654409878 -2.0506096654409878 0
      vertex 2.300724686844582 -1.7654081441252898 0
      vertex 2.0506096654409878 -2.0506096654409878 1.6
    endloop
  endfacet
  facet normal 0.8314696123025456 -0.5555702330196018 0
    outer loop
      vertex 2.300724686844582 -1.7654081441252898 0
      vertex 2.5114736709748717 -1.45 0
      vertex 2.300724686844582 -1.7654081441252898 1.6
    endloop
  endfacet
  facet normal 0.5555702330196018 -0.8314696123025456 0
    outer loop
      vertex 1.45 -2.5114736709748717 0
      vertex 1.7654081441252898 -2.300724686844582 1.6
      vertex 1.45 -2.5114736709748717 1.6
    endloop
  endfacet
  facet normal 0.6593458151000687 -0.7518398074789775 0
    outer loop
      vertex 1.7654081441252898 -2.300724686844582 0
      vertex 2.0506096654409878 -2.0506096654409878 1.6
      vertex 1.7654081441252898 -2.300724686844582 1.6
    endloop
  endfacet
  facet normal 0.7518398074789775 -0.6593458151000687 0
    outer loop
      vertex 2.300724686844582 -1.7654081441252898 0
      vertex 2.300724686844582 -1.7654081441252898 1.6
      vertex 2.0506096654409878 -2.0506096654409878 1.6
    endloop
  endfacet
  facet normal 0.8314696123025456 -0.5555702330196018 0
    outer loop
      vertex 2.5114736709748717 -1.45 0
      vertex 2.5114736709748717 -1.45 1.6
      vertex 2.300724686844582 -1.7654081441252898 1.6
    endloop
  endfacet
  facet normal 0.8968727415326883 -0.4422886902190015 0
    outer loop
      vertex 2.5114736709748717 -1.45 0
      vertex 2.6792506442827313 -1.1097819538587603 0
      vertex 2.5114736709748717 -1.45 1.6
    endloop
  endfacet
  facet normal 0.9469301294951056 -0.321439465303162 0
    outer loop
      vertex 2.6792506442827313 -1.1097819538587603 0
      vertex 2.801184896238298 -0.7505752307973101 0
      vertex 2.6792506442827313 -1.1097819538587603 1.6
    endloop
  endfacet
  facet normal 0.9807852804032304 -0.19509032201612836 0
    outer loop
      vertex 2.801184896238298 -0.7505752307973101 0
      vertex 2.87519009798405 -0.37852595743814954 0
      vertex 2.801184896238298 -0.7505752307973101 1.6
    endloop
  endfacet
  facet normal 0.9978589232386036 -0.06540312923014305 0
    outer loop
      vertex 2.87519009798405 -0.37852595743814954 0
      vertex 2.9 0 0
      vertex 2.87519009798405 -0.37852595743814954 1.6
    endloop
  endfacet
  facet normal 0 0 1
    outer loop
      vertex 1.45 -2.5114736709748717 1.6
      vertex 1.7654081441252898 -2.300724686844582 1.6
      vertex 1.45 2.5114736709748717 1.6
    endloop
  endfacet
  facet normal 0 0 1
    outer loop
      vertex 1.7654081441252898 -2.300724686844582 1.6
      vertex 2.0506096654409878 -2.0506096654409878 1.6
      vertex 1.7654081441252898 2.300724686844582 1.6
    endloop
  endfacet
  facet normal 0 0 1
    outer loop
      vertex 2.0506096654409878 -2.0506096654409878 1.6
      vertex 2.300724686844582 -1.7654081441252898 1.6
      vertex 2.0506096654409878 2.0506096654409878 1.6
    endloop
  endfacet
  facet normal 0.8968727415326883 -0.4422886902190015 0
    outer loop
      vertex 2.6792506442827313 -1.1097819538587603 0
      vertex 2.6792506442827313 -1.1097819538587603 1.6
      vertex 2.5114736709748717 -1.45 1.6
    endloop
  endfacet
  facet normal 0.9469301294951056 -0.321439465303162 0
    outer loop
      vertex 2.801184896238298 -0.7505752307973101 0
      vertex 2.801184896238298 -0.7505752307973101 1.6
      vertex 2.6792506442827313 -1.1097819538587603 1.6
    endloop
  endfacet
  facet normal 0.9807852804032304 -0.19509032201612836 0
    outer loop
      vertex 2.87519009798405 -0.37852595743814954 0
      vertex 2.87519009798405 -0.37852595743814954 1.6
      vertex 2.801184896238298 -0.7505752307973101 1.6
    endloop
  endfacet
  facet normal 0.9978589232386036 -0.06540312923014305 -7.725748715303991e-19
    outer loop
      vertex 2.87519009798405 -0.37852595743814954 1.6
      vertex 2.9 0 0
      vertex 2.9 0 1.6
    endloop
  endfacet
  facet normal 0 0 1
    outer loop
      vertex 2.300724686844582 -1.7654081441252898 1.6
      vertex 2.5114736709748717 -1.45 1.6
      vertex 2.300724686844582 1.7654081441252898 1.6
    endloop
  endfacet
  facet normal 0 0 1
    outer loop
      vertex 2.5114736709748717 -1.45 1.6
      vertex 2.6792506442827313 -1.1097819538587603 1.6
      vertex 2.5114736709748717 1.45 1.6
    endloop
  endfacet
  facet normal 0 0 1
    outer loop
      vertex 2.6792506442827313 -1.1097819538587603 1.6
      vertex 2.801184896238298 -0.7505752307973101 1.6
      vertex 2.6792506442827313 1.1097819538587603 1.6
    endloop
  endfacet
  facet normal 0 0 1
    outer loop
      vertex 2.801184896238298 -0.7505752307973101 1.6
      vertex 2.87519009798405 -0.37852595743814954 1.6
      vertex 2.801184896238298 0.7505752307973101 1.6
    endloop
  endfacet
  facet normal 0 0 -1
    outer loop
      vertex 0.7505752307973101 2.801184896238298 0
      vertex 0.6363961030678928 0.6363961030678928 0
      vertex 0.45 0.7794228634059948 0
    endloop
  endfacet
  facet normal 0 0 -1
    outer loop
      vertex 1.1097819538587603 2.6792506442827313 0
      vertex 0.9 0 0
      vertex 0.8693332436601615 0.23293714059226867 0
    endloop
  endfacet
  facet normal 0 0 -1
    outer loop
      vertex 1.1097819538587603 2.6792506442827313 0
      vertex 0.7794228634059948 0.45 0
      vertex 0.6363961030678928 0.6363961030678928 0
    endloop
  endfacet
  facet normal 0 0 -1
    outer loop
      vertex 1.1097819538587603 2.6792506442827313 0
      vertex 0.8693332436601615 0.23293714059226867 0
      vertex 0.7794228634059948 0.45 0
    endloop
  endfacet
  facet normal 0 0 -1
    outer loop
      vertex 1.1097819538587603 -2.6792506442827313 0
      vertex 1.1097819538587603 2.6792506442827313 0
      vertex 1.45 2.5114736709748717 0
    endloop
  endfacet
  facet normal 0 0 -1
    outer loop
      vertex 0.37852595743814954 2.87519009798405 0
      vertex 0.23293714059226867 0.8693332436601615 0
      vertex 0 0.9 0
    endloop
  endfacet
  facet normal 0 0 -1
    outer loop
      vertex 0.7505752307973101 2.801184896238298 0
      vertex 0.45 0.7794228634059948 0
      vertex 0.23293714059226867 0.8693332436601615 0
    endloop
  endfacet
  facet normal 0 0 -1
    outer loop
      vertex 0 2.9 0
      vertex 0.37852595743814954 2.87519009798405 0
      vertex 0 0.9 0
    endloop
  endfacet
  facet normal 0 0 -1
    outer loop
      vertex 0.37852595743814954 2.87519009798405 0
      vertex 0.7505752307973101 2.801184896238298 0
      vertex 0.23293714059226867 0.8693332436601615 0
    endloop
  endfacet
  facet normal 0 0 -1
    outer loop
      vertex 0.7505752307973101 2.801184896238298 0
      vertex 1.1097819538587603 2.6792506442827313 0
      vertex 0.6363961030678928 0.6363961030678928 0
    endloop
  endfacet
  facet normal 0 0 -1
    outer loop
      vertex 1.7654081441252898 -2.300724686844582 0
      vertex 1.7654081441252898 2.300724686844582 0
      vertex 2.0506096654409878 2.0506096654409878 0
    endloop
  endfacet
  facet normal 0 0 -1
    outer loop
      vertex 2.0506096654409878 -2.0506096654409878 0
      vertex 2.0506096654409878 2.0506096654409878 0
      vertex 2.300724686844582 1.7654081441252898 0
    endloop
  endfacet
  facet normal 0 0 -1
    outer loop
      vertex 1.45 -2.5114736709748717 0
      vertex 1.45 2.5114736709748717 0
      vertex 1.7654081441252898 2.300724686844582 0
    endloop
  endfacet
  facet normal 0 0 -1
    outer loop
      vertex 2.300724686844582 -1.7654081441252898 0
      vertex 2.300724686844582 1.7654081441252898 0
      vertex 2.5114736709748717 1.45 0
    endloop
  endfacet
  facet normal 0 0 -1
    outer loop
      vertex 2.87519009798405 -0.37852595743814954 0
      vertex 2.87519009798405 0.37852595743814954 0
      vertex 2.9 0 0
    endloop
  endfacet
  facet normal 0 0 -1
    outer loop
      vertex 2.801184896238298 -0.7505752307973101 0
      vertex 2.801184896238298 0.7505752307973101 0
      vertex 2.87519009798405 0.37852595743814954 0
    endloop
  endfacet
  facet normal 0 0 -1
    outer loop
      vertex 2.6792506442827313 -1.1097819538587603 0
      vertex 2.6792506442827313 1.1097819538587603 0
      vertex 2.801184896238298 0.7505752307973101 0
    endloop
  endfacet
  facet normal 0 0 -1
    outer loop
      vertex 2.5114736709748717 -1.45 0
      vertex 2.5114736709748717 1.45 0
      vertex 2.6792506442827313 1.1097819538587603 0
    endloop
  endfacet
  facet normal 0 0 1
    outer loop
      vertex 0.37852595743814954 -2.87519009798405 1.6
      vertex 0.37852595743814954 2.87519009798405 1.6
      vertex 0 2.9 1.6
    endloop
  endfacet
  facet normal 0 0 1
    outer loop
      vertex 0.7505752307973101 -2.801184896238298 1.6
      vertex 0.7505752307973101 2.801184896238298 1.6
      vertex 0.37852595743814954 2.87519009798405 1.6
    endloop
  endfacet
  facet normal 0 0 1
    outer loop
      vertex 1.1097819538587603 -2.6792506442827313 1.6
      vertex 1.1097819538587603 2.6792506442827313 1.6
      vertex 0.7505752307973101 2.801184896238298 1.6
    endloop
  endfacet
  facet normal 0 0 1
    outer loop
      vertex 1.45 -2.5114736709748717 1.6
      vertex 1.45 2.5114736709748717 1.6
      vertex 1.1097819538587603 2.6792506442827313 1.6
    endloop
  endfacet
  facet normal 0.06540312923014305 0.9978589232386036 0
    outer loop
      vertex 0 2.9 0
      vertex 0 2.9 1.6
      vertex 0.37852595743814954 2.87519009798405 0
    endloop
  endfacet
  facet normal 0.19509032201612836 0.9807852804032304 0
    outer loop
      vertex 0.37852595743814954 2.87519009798405 0
      vertex 0.37852595743814954 2.87519009798405 1.6
      vertex 0.7505752307973101 2.801184896238298 0
    endloop
  endfacet
  facet normal 0.321439465303162 0.9469301294951056 0
    outer loop
      vertex 0.7505752307973101 2.801184896238298 0
      vertex 0.7505752307973101 2.801184896238298 1.6
      vertex 1.1097819538587603 2.6792506442827313 0
    endloop
  endfacet
  facet normal 0.4422886902190015 0.8968727415326883 0
    outer loop
      vertex 1.1097819538587603 2.6792506442827313 0
      vertex 1.1097819538587603 2.6792506442827313 1.6
      vertex 1.45 2.5114736709748717 0
    endloop
  endfacet
  facet normal 0.06540312923014305 0.9978589232386036 0
    outer loop
      vertex 0.37852595743814954 2.87519009798405 0
      vertex 0 2.9 1.6
      vertex 0.37852595743814954 2.87519009798405 1.6
    endloop
  endfacet
  facet normal 0.19509032201612836 0.9807852804032304 0
    outer loop
      vertex 0.7505752307973101 2.801184896238298 0
      vertex 0.37852595743814954 2.87519009798405 1.6
      vertex 0.7505752307973101 2.801184896238298 1.6
    endloop
  endfacet
  facet normal 0.321439465303162 0.9469301294951056 0
    outer loop
      vertex 1.1097819538587603 2.6792506442827313 0
      vertex 0.7505752307973101 2.801184896238298 1.6
      vertex 1.1097819538587603 2.6792506442827313 1.6
    endloop
  endfacet
  facet normal 0.4422886902190015 0.8968727415326883 0
    outer loop
      vertex 1.45 2.5114736709748717 0
      vertex 1.1097819538587603 2.6792506442827313 1.6
      vertex 1.45 2.5114736709748717 1.6
    endloop
  endfacet
  facet normal 0.9978589232386036 0.06540312923014305 0
    outer loop
      vertex 2.9 0 0
      vertex 2.87519009798405 0.37852595743814954 0
      vertex 2.9 0 1.6
    endloop
  endfacet
  facet normal 0.9807852804032304 0.19509032201612836 0
    outer loop
      vertex 2.87519009798405 0.37852595743814954 0
      vertex 2.801184896238298 0.7505752307973101 0
      vertex 2.87519009798405 0.37852595743814954 1.6
    endloop
  endfacet
  facet normal 0.9469301294951056 0.321439465303162 0
    outer loop
      vertex 2.801184896238298 0.7505752307973101 0
      vertex 2.6792506442827313 1.1097819538587603 0
      vertex 2.801184896238298 0.7505752307973101 1.6
    endloop
  endfacet
  facet normal 0.8968727415326883 0.4422886902190015 0
    outer loop
      vertex 2.6792506442827313 1.1097819538587603 0
      vertex 2.5114736709748717 1.45 0
      vertex 2.6792506442827313 1.1097819538587603 1.6
    endloop
  endfacet
  facet normal 0 0 1
    outer loop
      vertex 1.7654081441252898 -2.300724686844582 1.6
      vertex 1.7654081441252898 2.300724686844582 1.6
      vertex 1.45 2.5114736709748717 1.6
    endloop
  endfacet
  facet normal 0 0 1
    outer loop
      vertex 2.0506096654409878 -2.0506096654409878 1.6
      vertex 2.0506096654409878 2.0506096654409878 1.6
      vertex 1.7654081441252898 2.300724686844582 1.6
    endloop
  endfacet
  facet normal 0.9978589232386036 0.06540312923014305 0
    outer loop
      vertex 2.87519009798405 0.37852595743814954 0
      vertex 2.87519009798405 0.37852595743814954 1.6
      vertex 2.9 0 1.6
    endloop
  endfacet
  facet normal 0.9807852804032304 0.19509032201612836 0
    outer loop
      vertex 2.801184896238298 0.7505752307973101 0
      vertex 2.801184896238298 0.7505752307973101 1.6
      vertex 2.87519009798405 0.37852595743814954 1.6
    endloop
  endfacet
  facet normal 0 0 1
    outer loop
      vertex 2.300724686844582 -1.7654081441252898 1.6
      vertex 2.300724686844582 1.7654081441252898 1.6
      vertex 2.0506096654409878 2.0506096654409878 1.6
    endloop
  endfacet
  facet normal 0 0 1
    outer loop
      vertex 2.5114736709748717 -1.45 1.6
      vertex 2.5114736709748717 1.45 1.6
      vertex 2.300724686844582 1.7654081441252898 1.6
    endloop
  endfacet
  facet normal 0 0 1
    outer loop
      vertex 2.87519009798405 -0.37852595743814954 1.6
      vertex 2.9 0 1.6
      vertex 2.87519009798405 0.37852595743814954 1.6
    endloop
  endfacet
  facet normal 0 0 1
    outer loop
      vertex 2.87519009798405 -0.37852595743814954 1.6
      vertex 2.87519009798405 0.37852595743814954 1.6
      vertex 2.801184896238298 0.7505752307973101 1.6
    endloop
  endfacet
  facet normal 0 0 1
    outer loop
      vertex 2.6792506442827313 -1.1097819538587603 1.6
      vertex 2.6792506442827313 1.1097819538587603 1.6
      vertex 2.5114736709748717 1.45 1.6
    endloop
  endfacet
  facet normal 0 0 1
    outer loop
      vertex 2.801184896238298 -0.7505752307973101 1.6
      vertex 2.801184896238298 0.7505752307973101 1.6
      vertex 2.6792506442827313 1.1097819538587603 1.6
    endloop
  endfacet
  facet normal 0.9469301294951056 0.321439465303162 0
    outer loop
      vertex 2.6792506442827313 1.1097819538587603 0
      vertex 2.6792506442827313 1.1097819538587603 1.6
      vertex 2.801184896238298 0.7505752307973101 1.6
    endloop
  endfacet
  facet normal 0.8968727415326883 0.4422886902190015 0
    outer loop
      vertex 2.5114736709748717 1.45 0
      vertex 2.5114736709748717 1.45 1.6
      vertex 2.6792506442827313 1.1097819538587603 1.6
    endloop
  endfacet
  facet normal 0.5555702330196018 0.8314696123025456 0
    outer loop
      vertex 1.45 2.5114736709748717 0
      vertex 1.45 2.5114736709748717 1.6
      vertex 1.7654081441252898 2.300724686844582 0
    endloop
  endfacet
  facet normal 0.6593458151000687 0.7518398074789775 9.72096982002563e-18
    outer loop
      vertex 2.0506096654409878 2.0506096654409878 0
      vertex 1.7654081441252898 2.300724686844582 0
      vertex 1.7654081441252898 2.300724686844582 1.6
    endloop
  endfacet
  facet normal 0.8314696123025456 0.5555702330196018 -4.579832709038449e-18
    outer loop
      vertex 2.300724686844582 1.7654081441252898 0
      vertex 2.5114736709748717 1.45 1.6
      vertex 2.5114736709748717 1.45 0
    endloop
  endfacet
  facet normal 0.7518398074789775 0.6593458151000687 9.72096982002563e-18
    outer loop
      vertex 2.0506096654409878 2.0506096654409878 0
      vertex 2.300724686844582 1.7654081441252898 1.6
      vertex 2.300724686844582 1.7654081441252898 0
    endloop
  endfacet
  facet normal 0.6593458151000687 0.7518398074789775 0
    outer loop
      vertex 2.0506096654409878 2.0506096654409878 0
      vertex 1.7654081441252898 2.300724686844582 1.6
      vertex 2.0506096654409878 2.0506096654409878 1.6
    endloop
  endfacet
  facet normal 0.7518398074789775 0.6593458151000687 0
    outer loop
      vertex 2.0506096654409878 2.0506096654409878 0
      vertex 2.0506096654409878 2.0506096654409878 1.6
      vertex 2.300724686844582 1.7654081441252898 1.6
    endloop
  endfacet
  facet normal 0.5555702330196018 0.8314696123025456 0
    outer loop
      vertex 1.7654081441252898 2.300724686844582 0
      vertex 1.45 2.5114736709748717 1.6
      vertex 1.7654081441252898 2.300724686844582 1.6
    endloop
  endfacet
  facet normal 0.8314696123025456 0.5555702330196018 0
    outer loop
      vertex 2.300724686844582 1.7654081441252898 0
      vertex 2.300724686844582 1.7654081441252898 1.6
      vertex 2.5114736709748717 1.45 1.6
    endloop
  endfacet
  facet normal -0.7933533402912356 -0.6087614290087202 2.4574885722511e-18
    outer loop
      vertex -0.6363961030678928 -0.6363961030678928 -0.8
      vertex -0.7794228634059948 -0.45 0
      vertex -0.7794228634059948 -0.45 -0.8
    endloop
  endfacet
  facet normal 0 0 -1
    outer loop
      vertex -0.8693332436601615 -0.23293714059226867 -0.8
      vertex -0.7794228634059948 0.45 -0.8
      vertex -0.7794228634059948 -0.45 -0.8
    endloop
  endfacet
  facet normal -0.9238795325112866 -0.38268343236509 0
    outer loop
      vertex -0.8693332436601615 -0.23293714059226867 -0.8
      vertex -0.7794228634059948 -0.45 -0.8
      vertex -0.8693332436601615 -0.23293714059226867 0
    endloop
  endfacet
  facet normal -0.9914448613738104 -0.13052619222005146 6.657263431671396e-19
    outer loop
      vertex -0.8693332436601615 -0.23293714059226867 -0.8
      vertex -0.9 0 0
      vertex -0.9 0 -0.8
    endloop
  endfacet
  facet normal -0.9238795325112866 -0.38268343236509 0
    outer loop
      vertex -0.7794228634059948 -0.45 -0.8
      vertex -0.7794228634059948 -0.45 0
      vertex -0.8693332436601615 -0.23293714059226867 0
    endloop
  endfacet
  facet normal -0.9914448613738104 -0.13052619222005146 0
    outer loop
      vertex -0.8693332436601615 -0.23293714059226867 -0.8
      vertex -0.8693332436601615 -0.23293714059226867 0
      vertex -0.9 0 0
    endloop
  endfacet
  facet normal -0.6087614290087202 -0.7933533402912356 2.4574885722511e-18
    outer loop
      vertex -0.6363961030678928 -0.6363961030678928 -0.8
      vertex -0.45 -0.7794228634059948 -0.8
      vertex -0.45 -0.7794228634059948 0
    endloop
  endfacet
  facet normal -0.38268343236509 -0.9238795325112866 -2.0815051115882946e-18
    outer loop
      vertex -0.45 -0.7794228634059948 -0.8
      vertex -0.23293714059226867 -0.8693332436601615 -0.8
      vertex -0.23293714059226867 -0.8693332436601615 0
    endloop
  endfacet
  facet normal -0.13052619222005146 -0.9914448613738104 6.657263431671396e-19
    outer loop
      vertex -0.23293714059226867 -0.8693332436601615 -0.8
      vertex 0 -0.9 -0.8
      vertex 0 -0.9 0
    endloop
  endfacet
  facet normal -0.38268343236509 -0.9238795325112866 0
    outer loop
      vertex -0.45 -0.7794228634059948 -0.8
      vertex -0.23293714059226867 -0.8693332436601615 0
      vertex -0.45 -0.7794228634059948 0
    endloop
  endfacet
  facet normal -0.13052619222005146 -0.9914448613738104 0
    outer loop
      vertex -0.23293714059226867 -0.8693332436601615 -0.8
      vertex 0 -0.9 0
      vertex -0.23293714059226867 -0.8693332436601615 0
    endloop
  endfacet
  facet normal 0 0 -1
    outer loop
      vertex -0.6363961030678928 -0.6363961030678928 -0.8
      vertex -0.7794228634059948 -0.45 -0.8
      vertex -0.6363961030678928 0.6363961030678928 -0.8
    endloop
  endfacet
  facet normal 0 0 -1
    outer loop
      vertex -0.6363961030678928 -0.6363961030678928 -0.8
      vertex -0.45 0.7794228634059948 -0.8
      vertex -0.45 -0.7794228634059948 -0.8
    endloop
  endfacet
  facet normal 0 0 -1
    outer loop
      vertex -0.45 -0.7794228634059948 -0.8
      vertex -0.23293714059226867 0.8693332436601615 -0.8
      vertex -0.23293714059226867 -0.8693332436601615 -0.8
    endloop
  endfacet
  facet normal 0 0 -1
    outer loop
      vertex -0.23293714059226867 -0.8693332436601615 -0.8
      vertex 0 0.9 -0.8
      vertex 0 -0.9 -0.8
    endloop
  endfacet
  facet normal -0.7933533402912356 -0.6087614290087202 0
    outer loop
      vertex -0.6363961030678928 -0.6363961030678928 -0.8
      vertex -0.6363961030678928 -0.6363961030678928 0
      vertex -0.7794228634059948 -0.45 0
    endloop
  endfacet
  facet normal -0.6087614290087202 -0.7933533402912356 0
    outer loop
      vertex -0.6363961030678928 -0.6363961030678928 -0.8
      vertex -0.45 -0.7794228634059948 0
      vertex -0.6363961030678928 -0.6363961030678928 0
    endloop
  endfacet
  facet normal 0 0 -1
    outer loop
      vertex -0.8693332436601615 -0.23293714059226867 -0.8
      vertex -0.9 0 -0.8
      vertex -0.8693332436601615 0.23293714059226867 -0.8
    endloop
  endfacet
  facet normal 0 0 -1
    outer loop
      vertex -0.8693332436601615 -0.23293714059226867 -0.8
      vertex -0.8693332436601615 0.23293714059226867 -0.8
      vertex -0.7794228634059948 0.45 -0.8
    endloop
  endfacet
  facet normal 0 0 -1
    outer loop
      vertex -0.7794228634059948 -0.45 -0.8
      vertex -0.7794228634059948 0.45 -0.8
      vertex -0.6363961030678928 0.6363961030678928 -0.8
    endloop
  endfacet
  facet normal -0.9914448613738104 0.13052619222005146 -6.657263431671396e-19
    outer loop
      vertex -0.9 0 -0.8
      vertex -0.8693332436601615 0.23293714059226867 0
      vertex -0.8693332436601615 0.23293714059226867 -0.8
    endloop
  endfacet
  facet normal -0.9238795325112866 0.38268343236509 2.0815051115882946e-18
    outer loop
      vertex -0.8693332436601615 0.23293714059226867 -0.8
      vertex -0.7794228634059948 0.45 0
      vertex -0.7794228634059948 0.45 -0.8
    endloop
  endfacet
  facet normal -0.9914448613738104 0.13052619222005146 0
    outer loop
      vertex -0.9 0 -0.8
      vertex -0.9 0 0
      vertex -0.8693332436601615 0.23293714059226867 0
    endloop
  endfacet
  facet normal -0.9238795325112866 0.38268343236509 0
    outer loop
      vertex -0.8693332436601615 0.23293714059226867 -0.8
      vertex -0.8693332436601615 0.23293714059226867 0
      vertex -0.7794228634059948 0.45 0
    endloop
  endfacet
  facet normal -0.7933533402912356 0.6087614290087202 0
    outer loop
      vertex -0.7794228634059948 0.45 -0.8
      vertex -0.7794228634059948 0.45 0
      vertex -0.6363961030678928 0.6363961030678928 0
    endloop
  endfacet
  facet normal 0 0 -1
    outer loop
      vertex -0.6363961030678928 -0.6363961030678928 -0.8
      vertex -0.6363961030678928 0.6363961030678928 -0.8
      vertex -0.45 0.7794228634059948 -0.8
    endloop
  endfacet
  facet normal 0 0 -1
    outer loop
      vertex -0.45 -0.7794228634059948 -0.8
      vertex -0.45 0.7794228634059948 -0.8
      vertex -0.23293714059226867 0.8693332436601615 -0.8
    endloop
  endfacet
  facet normal -0.7933533402912356 0.6087614290087202 -2.4574885722511e-18
    outer loop
      vertex -0.7794228634059948 0.45 -0.8
      vertex -0.6363961030678928 0.6363961030678928 0
      vertex -0.6363961030678928 0.6363961030678928 -0.8
    endloop
  endfacet
  facet normal -0.6087614290087202 0.7933533402912356 0
    outer loop
      vertex -0.6363961030678928 0.6363961030678928 -0.8
      vertex -0.6363961030678928 0.6363961030678928 0
      vertex -0.45 0.7794228634059948 -0.8
    endloop
  endfacet
  facet normal 0 0 -1
    outer loop
      vertex -0.23293714059226867 -0.8693332436601615 -0.8
      vertex -0.23293714059226867 0.8693332436601615 -0.8
      vertex 0 0.9 -0.8
    endloop
  endfacet
  facet normal -0.38268343236509 0.9238795325112866 0
    outer loop
      vertex -0.45 0.7794228634059948 -0.8
      vertex -0.45 0.7794228634059948 0
      vertex -0.23293714059226867 0.8693332436601615 -0.8
    endloop
  endfacet
  facet normal -0.13052619222005146 0.9914448613738104 0
    outer loop
      vertex -0.23293714059226867 0.8693332436601615 -0.8
      vertex -0.23293714059226867 0.8693332436601615 0
      vertex 0 0.9 -0.8
    endloop
  endfacet
  facet normal -0.6087614290087202 0.7933533402912356 0
    outer loop
      vertex -0.45 0.7794228634059948 -0.8
      vertex -0.6363961030678928 0.6363961030678928 0
      vertex -0.45 0.7794228634059948 0
    endloop
  endfacet
  facet normal -0.38268343236509 0.9238795325112866 0
    outer loop
      vertex -0.23293714059226867 0.8693332436601615 -0.8
      vertex -0.45 0.7794228634059948 0
      vertex -0.23293714059226867 0.8693332436601615 0
    endloop
  endfacet
  facet normal -0.13052619222005146 0.9914448613738104 0
    outer loop
      vertex 0 0.9 -0.8
      vertex -0.23293714059226867 0.8693332436601615 0
      vertex 0 0.9 0
    endloop
  endfacet
  facet normal 0.13052619222005146 -0.9914448613738104 -6.657263431671396e-19
    outer loop
      vertex 0 -0.9 -0.8
      vertex 0.23293714059226867 -0.8693332436601615 -0.8
      vertex 0.23293714059226867 -0.8693332436601615 0
    endloop
  endfacet
  facet normal 0.38268343236509 -0.9238795325112866 2.0815051115882946e-18
    outer loop
      vertex 0.23293714059226867 -0.8693332436601615 -0.8
      vertex 0.45 -0.7794228634059948 -0.8
      vertex 0.45 -0.7794228634059948 0
    endloop
  endfacet
  facet normal 0.13052619222005146 -0.9914448613738104 0
    outer loop
      vertex 0 -0.9 -0.8
      vertex 0.23293714059226867 -0.8693332436601615 0
      vertex 0 -0.9 0
    endloop
  endfacet
  facet normal 0.38268343236509 -0.9238795325112866 0
    outer loop
      vertex 0.23293714059226867 -0.8693332436601615 -0.8
      vertex 0.45 -0.7794228634059948 0
      vertex 0.23293714059226867 -0.8693332436601615 0
    endloop
  endfacet
  facet normal 0.6087614290087202 -0.7933533402912356 0
    outer loop
      vertex 0.45 -0.7794228634059948 -0.8
      vertex 0.6363961030678928 -0.6363961030678928 0
      vertex 0.45 -0.7794228634059948 0
    endloop
  endfacet
  facet normal 0 0 -1
    outer loop
      vertex 0 -0.9 -0.8
      vertex 0.23293714059226867 0.8693332436601615 -0.8
      vertex 0.23293714059226867 -0.8693332436601615 -0.8
    endloop
  endfacet
  facet normal 0.6087614290087202 -0.7933533402912356 -2.4574885722511e-18
    outer loop
      vertex 0.45 -0.7794228634059948 -0.8
      vertex 0.6363961030678928 -0.6363961030678928 -0.8
      vertex 0.6363961030678928 -0.6363961030678928 0
    endloop
  endfacet
  facet normal 0.7933533402912356 -0.6087614290087202 0
    outer loop
      vertex 0.6363961030678928 -0.6363961030678928 -0.8
      vertex 0.7794228634059948 -0.45 -0.8
      vertex 0.6363961030678928 -0.6363961030678928 0
    endloop
  endfacet
  facet normal 0 0 -1
    outer loop
      vertex 0.23293714059226867 -0.8693332436601615 -0.8
      vertex 0.45 0.7794228634059948 -0.8
      vertex 0.45 -0.7794228634059948 -0.8
    endloop
  endfacet
  facet normal 0 0 -1
    outer loop
      vertex 0.45 -0.7794228634059948 -0.8
      vertex 0.6363961030678928 0.6363961030678928 -0.8
      vertex 0.6363961030678928 -0.6363961030678928 -0.8
    endloop
  endfacet
  facet normal 0.9238795325112866 -0.38268343236509 0
    outer loop
      vertex 0.7794228634059948 -0.45 -0.8
      vertex 0.8693332436601615 -0.23293714059226867 -0.8
      vertex 0.7794228634059948 -0.45 0
    endloop
  endfacet
  facet normal 0 0 -1
    outer loop
      vertex 0.6363961030678928 -0.6363961030678928 -0.8
      vertex 0.7794228634059948 0.45 -0.8
      vertex 0.7794228634059948 -0.45 -0.8
    endloop
  endfacet
  facet normal 0 0 -1
    outer loop
      vertex 0.7794228634059948 -0.45 -0.8
      vertex 0.8693332436601615 0.23293714059226867 -0.8
      vertex 0.8693332436601615 -0.23293714059226867 -0.8
    endloop
  endfacet
  facet normal 0.9914448613738104 -0.13052619222005146 0
    outer loop
      vertex 0.8693332436601615 -0.23293714059226867 -0.8
      vertex 0.9 0 -0.8
      vertex 0.8693332436601615 -0.23293714059226867 0
    endloop
  endfacet
  facet normal 0.7933533402912356 -0.6087614290087202 0
    outer loop
      vertex 0.7794228634059948 -0.45 -0.8
      vertex 0.7794228634059948 -0.45 0
      vertex 0.6363961030678928 -0.6363961030678928 0
    endloop
  endfacet
  facet normal 0.9238795325112866 -0.38268343236509 0
    outer loop
      vertex 0.8693332436601615 -0.23293714059226867 -0.8
      vertex 0.8693332436601615 -0.23293714059226867 0
      vertex 0.7794228634059948 -0.45 0
    endloop
  endfacet
  facet normal 0.9914448613738104 -0.13052619222005146 0
    outer loop
      vertex 0.9 0 -0.8
      vertex 0.9 0 0
      vertex 0.8693332436601615 -0.23293714059226867 0
    endloop
  endfacet
  facet normal 0 0 -1
    outer loop
      vertex 0 -0.9 -0.8
      vertex 0 0.9 -0.8
      vertex 0.23293714059226867 0.8693332436601615 -0.8
    endloop
  endfacet
  facet normal 0 0 -1
    outer loop
      vertex 0.23293714059226867 -0.8693332436601615 -0.8
      vertex 0.23293714059226867 0.8693332436601615 -0.8
      vertex 0.45 0.7794228634059948 -0.8
    endloop
  endfacet
  facet normal 0 0 -1
    outer loop
      vertex 0.45 -0.7794228634059948 -0.8
      vertex 0.45 0.7794228634059948 -0.8
      vertex 0.6363961030678928 0.6363961030678928 -0.8
    endloop
  endfacet
  facet normal 0 0 -1
    outer loop
      vertex 0.6363961030678928 -0.6363961030678928 -0.8
      vertex 0.6363961030678928 0.6363961030678928 -0.8
      vertex 0.7794228634059948 0.45 -0.8
    endloop
  endfacet
  facet normal 0.6087614290087202 0.7933533402912356 0
    outer loop
      vertex 0.6363961030678928 0.6363961030678928 -0.8
      vertex 0.45 0.7794228634059948 0
      vertex 0.6363961030678928 0.6363961030678928 0
    endloop
  endfacet
  facet normal 0.7933533402912356 0.6087614290087202 0
    outer loop
      vertex 0.6363961030678928 0.6363961030678928 -0.8
      vertex 0.6363961030678928 0.6363961030678928 0
      vertex 0.7794228634059948 0.45 0
    endloop
  endfacet
  facet normal 0.13052619222005146 0.9914448613738104 0
    outer loop
      vertex 0 0.9 -0.8
      vertex 0 0.9 0
      vertex 0.23293714059226867 0.8693332436601615 -0.8
    endloop
  endfacet
  facet normal 0.38268343236509 0.9238795325112866 0
    outer loop
      vertex 0.23293714059226867 0.8693332436601615 -0.8
      vertex 0.23293714059226867 0.8693332436601615 0
      vertex 0.45 0.7794228634059948 -0.8
    endloop
  endfacet
  facet normal 0.6087614290087202 0.7933533402912356 2.4574885722511e-18
    outer loop
      vertex 0.6363961030678928 0.6363961030678928 -0.8
      vertex 0.45 0.7794228634059948 -0.8
      vertex 0.45 0.7794228634059948 0
    endloop
  endfacet
  facet normal 0.13052619222005146 0.9914448613738104 0
    outer loop
      vertex 0.23293714059226867 0.8693332436601615 -0.8
      vertex 0 0.9 0
      vertex 0.23293714059226867 0.8693332436601615 0
    endloop
  endfacet
  facet normal 0.38268343236509 0.9238795325112866 0
    outer loop
      vertex 0.45 0.7794228634059948 -0.8
      vertex 0.23293714059226867 0.8693332436601615 0
      vertex 0.45 0.7794228634059948 0
    endloop
  endfacet
  facet normal 0 0 -1
    outer loop
      vertex 0.7794228634059948 -0.45 -0.8
      vertex 0.7794228634059948 0.45 -0.8
      vertex 0.8693332436601615 0.23293714059226867 -0.8
    endloop
  endfacet
  facet normal 0 0 -1
    outer loop
      vertex 0.8693332436601615 -0.23293714059226867 -0.8
      vertex 0.8693332436601615 0.23293714059226867 -0.8
      vertex 0.9 0 -0.8
    endloop
  endfacet
  facet normal 0.9914448613738104 0.13052619222005146 0
    outer loop
      vertex 0.9 0 -0.8
      vertex 0.8693332436601615 0.23293714059226867 -0.8
      vertex 0.9 0 0
    endloop
  endfacet
  facet normal 0.9238795325112866 0.38268343236509 0
    outer loop
      vertex 0.8693332436601615 0.23293714059226867 -0.8
      vertex 0.7794228634059948 0.45 -0.8
      vertex 0.8693332436601615 0.23293714059226867 0
    endloop
  endfacet
  facet normal 0.7933533402912356 0.6087614290087202 2.4574885722511e-18
    outer loop
      vertex 0.6363961030678928 0.6363961030678928 -0.8
      vertex 0.7794228634059948 0.45 0
      vertex 0.7794228634059948 0.45 -0.8
    endloop
  endfacet
  facet normal 0.9914448613738104 0.13052619222005146 0
    outer loop
      vertex 0.8693332436601615 0.23293714059226867 -0.8
      vertex 0.8693332436601615 0.23293714059226867 0
      vertex 0.9 0 0
    endloop
  endfacet
  facet normal 0.9238795325112866 0.38268343236509 0
    outer loop
      vertex 0.7794228634059948 0.45 -0.8
      vertex 0.7794228634059948 0.45 0
      vertex 0.8693332436601615 0.23293714059226867 0
    endloop
  endfacet
endsolid OpenSCAD_Model
