solid OpenSCAD_Model
  facet normal 1 0 0
    outer loop
      vertex 7.999999999999999 12.65 0
      vertex 7.999999999999999 16.35 0
      vertex 7.999999999999999 16.35 1
    endloop
  endfacet
  facet normal 0 1 0
    outer loop
      vertex 7.999999999999999 12.65 0
      vertex 7.999999999999999 12.65 1
      vertex 13.399999999999999 12.65 0
    endloop
  endfacet
  facet normal 1 0 0
    outer loop
      vertex 7.999999999999999 12.65 0
      vertex 7.999999999999999 16.35 1
      vertex 7.999999999999999 12.65 1
    endloop
  endfacet
  facet normal 0 -1 0
    outer loop
      vertex 7.999999999999999 16.35 0
      vertex 13.399999999999999 16.35 1
      vertex 7.999999999999999 16.35 1
    endloop
  endfacet
  facet normal -1 0 0
    outer loop
      vertex 13.399999999999999 12.65 0
      vertex 13.399999999999999 12.65 1
      vertex 13.399999999999999 16.35 0
    endloop
  endfacet
  facet normal 0 1 0
    outer loop
      vertex 7.999999999999999 12.65 1
      vertex 13.399999999999999 12.65 1
      vertex 13.399999999999999 12.65 0
    endloop
  endfacet
  facet normal -1 0 0
    outer loop
      vertex 13.399999999999999 16.35 0
      vertex 13.399999999999999 12.65 1
      vertex 13.399999999999999 16.35 1
    endloop
  endfacet
  facet normal 0 -1 0
    outer loop
      vertex 7.999999999999999 16.35 0
      vertex 13.399999999999999 16.35 0
      vertex 13.399999999999999 16.35 1
    endloop
  endfacet
  facet normal 1 0 0
    outer loop
      vertex 7.999999999999999 1.6500000000000001 0
      vertex 7.999999999999999 5.35 0
      vertex 7.999999999999999 5.35 1
    endloop
  endfacet
  facet normal 0 1 0
    outer loop
      vertex 7.999999999999999 1.6500000000000001 0
      vertex 7.999999999999999 1.6500000000000001 1
      vertex 13.399999999999999 1.6500000000000001 0
    endloop
  endfacet
  facet normal 1 0 0
    outer loop
      vertex 7.999999999999999 1.6500000000000001 0
      vertex 7.999999999999999 5.35 1
      vertex 7.999999999999999 1.6500000000000001 1
    endloop
  endfacet
  facet normal 0 -1 0
    outer loop
      vertex 7.999999999999999 5.35 0
      vertex 13.399999999999999 5.35 1
      vertex 7.999999999999999 5.35 1
    endloop
  endfacet
  facet normal 0 -1 0
    outer loop
      vertex 7.999999999999999 5.35 0
      vertex 13.399999999999999 5.35 0
      vertex 13.399999999999999 5.35 1
    endloop
  endfacet
  facet normal -1 0 0
    outer loop
      vertex 13.399999999999999 1.6500000000000001 0
      vertex 13.399999999999999 1.6500000000000001 1
      vertex 13.399999999999999 5.35 0
    endloop
  endfacet
  facet normal 0 1 0
    outer loop
      vertex 7.999999999999999 1.6500000000000001 1
      vertex 13.399999999999999 1.6500000000000001 1
      vertex 13.399999999999999 1.6500000000000001 0
    endloop
  endfacet
  facet normal -1 0 0
    outer loop
      vertex 13.399999999999999 5.35 0
      vertex 13.399999999999999 1.6500000000000001 1
      vertex 13.399999999999999 5.35 1
    endloop
  endfacet
  facet normal 0 1 0
    outer loop
      vertex 3.3499999999999996 6.3 0
      vertex 3.3499999999999996 6.3 1
      vertex 7.049999999999999 6.3 0
    endloop
  endfacet
  facet normal 1 0 0
    outer loop
      vertex 3.3499999999999996 6.3 0
      vertex 3.3499999999999996 11.7 0
      vertex 3.3499999999999996 11.7 1
    endloop
  endfacet
  facet normal 1 0 0
    outer loop
      vertex 3.3499999999999996 6.3 0
      vertex 3.3499999999999996 11.7 1
      vertex 3.3499999999999996 6.3 1
    endloop
  endfacet
  facet normal -1 0 0
    outer loop
      vertex 7.049999999999999 6.3 0
      vertex 7.049999999999999 6.3 1
      vertex 7.049999999999999 11.7 0
    endloop
  endfacet
  facet normal 0 1 0
    outer loop
      vertex 7.049999999999999 6.3 0
      vertex 3.3499999999999996 6.3 1
      vertex 7.049999999999999 6.3 1
    endloop
  endfacet
  facet normal -1 0 0
    outer loop
      vertex 7.049999999999999 6.3 1
      vertex 7.049999999999999 11.7 1
      vertex 7.049999999999999 11.7 0
    endloop
  endfacet
  facet normal 0 -1 0
    outer loop
      vertex 3.3499999999999996 11.7 0
      vertex 7.049999999999999 11.7 1
      vertex 3.3499999999999996 11.7 1
    endloop
  endfacet
  facet normal 0 -1 0
    outer loop
      vertex 3.3499999999999996 11.7 0
      vertex 7.049999999999999 11.7 0
      vertex 7.049999999999999 11.7 1
    endloop
  endfacet
  facet normal 0 1 0
    outer loop
      vertex 14.35 6.3 0
      vertex 14.35 6.3 1
      vertex 18.05 6.3 0
    endloop
  endfacet
  facet normal 1 0 0
    outer loop
      vertex 14.35 6.3 0
      vertex 14.35 11.7 0
      vertex 14.35 11.7 1
    endloop
  endfacet
  facet normal 1 0 0
    outer loop
      vertex 14.35 6.3 0
      vertex 14.35 11.7 1
      vertex 14.35 6.3 1
    endloop
  endfacet
  facet normal -1 0 0
    outer loop
      vertex 18.05 6.3 0
      vertex 18.05 6.3 1
      vertex 18.05 11.7 0
    endloop
  endfacet
  facet normal 0 1 0
    outer loop
      vertex 18.05 6.3 0
      vertex 14.35 6.3 1
      vertex 18.05 6.3 1
    endloop
  endfacet
  facet normal -1 0 0
    outer loop
      vertex 18.05 6.3 1
      vertex 18.05 11.7 1
      vertex 18.05 11.7 0
    endloop
  endfacet
  facet normal 0 -1 0
    outer loop
      vertex 14.35 11.7 0
      vertex 18.05 11.7 1
      vertex 14.35 11.7 1
    endloop
  endfacet
  facet normal 0 -1 0
    outer loop
      vertex 14.35 11.7 0
      vertex 18.05 11.7 0
      vertex 18.05 11.7 1
    endloop
  endfacet
  facet normal 1 0 0
    outer loop
      vertex 7.999999999999999 7.15 0
      vertex 7.999999999999999 10.85 0
      vertex 7.999999999999999 10.85 1
    endloop
  endfacet
  facet normal 0 1 0
    outer loop
      vertex 7.999999999999999 7.15 0
      vertex 7.999999999999999 7.15 1
      vertex 13.399999999999999 7.15 0
    endloop
  endfacet
  facet normal 1 0 0
    outer loop
      vertex 7.999999999999999 7.15 0
      vertex 7.999999999999999 10.85 1
      vertex 7.999999999999999 7.15 1
    endloop
  endfacet
  facet normal 0 -1 0
    outer loop
      vertex 7.999999999999999 10.85 0
      vertex 13.399999999999999 10.85 1
      vertex 7.999999999999999 10.85 1
    endloop
  endfacet
  facet normal -1 0 0
    outer loop
      vertex 13.399999999999999 7.15 0
      vertex 13.399999999999999 7.15 1
      vertex 13.399999999999999 10.85 0
    endloop
  endfacet
  facet normal 0 1 0
    outer loop
      vertex 7.999999999999999 7.15 1
      vertex 13.399999999999999 7.15 1
      vertex 13.399999999999999 7.15 0
    endloop
  endfacet
  facet normal -1 0 0
    outer loop
      vertex 13.399999999999999 7.15 1
      vertex 13.399999999999999 10.85 1
      vertex 13.399999999999999 10.85 0
    endloop
  endfacet
  facet normal 0 -1 0
    outer loop
      vertex 7.999999999999999 10.85 0
      vertex 13.399999999999999 10.85 0
      vertex 13.399999999999999 10.85 1
    endloop
  endfacet
  facet normal 0 0 -1
    outer loop
      vertex 0 0 0
      vertex 7.999999999999999 5.35 0
      vertex 7.999999999999999 1.6500000000000001 0
    endloop
  endfacet
  facet normal 0 0 -1
    outer loop
      vertex 0 0 0
      vertex 3.3499999999999996 6.3 0
      vertex 7.049999999999999 6.3 0
    endloop
  endfacet
  facet normal 0 0 -1
    outer loop
      vertex 0 0 0
      vertex 7.049999999999999 6.3 0
      vertex 7.999999999999999 5.35 0
    endloop
  endfacet
  facet normal 0 0 -1
    outer loop
      vertex 0 0 0
      vertex 0 21.4 0
      vertex 3.3499999999999996 6.3 0
    endloop
  endfacet
  facet normal -1 0 0
    outer loop
      vertex 0 0 0
      vertex 0 0 1
      vertex 0 21.4 1
    endloop
  endfacet
  facet normal 0 0 -1
    outer loop
      vertex 0 0 0
      vertex 7.999999999999999 1.6500000000000001 0
      vertex 21.4 0 0
    endloop
  endfacet
  facet normal 0 -1 0
    outer loop
      vertex 0 0 0
      vertex 21.4 0 1
      vertex 0 0 1
    endloop
  endfacet
  facet normal 0 0 -1
    outer loop
      vertex 7.049999999999999 6.3 0
      vertex 7.999999999999999 7.15 0
      vertex 7.999999999999999 5.35 0
    endloop
  endfacet
  facet normal 0 0 -1
    outer loop
      vertex 7.049999999999999 6.3 0
      vertex 7.049999999999999 11.7 0
      vertex 7.999999999999999 7.15 0
    endloop
  endfacet
  facet normal 0 0 -1
    outer loop
      vertex 7.999999999999999 7.15 0
      vertex 7.049999999999999 11.7 0
      vertex 7.999999999999999 10.85 0
    endloop
  endfacet
  facet normal 0 0 -1
    outer loop
      vertex 7.999999999999999 5.35 0
      vertex 7.999999999999999 7.15 0
      vertex 13.399999999999999 7.15 0
    endloop
  endfacet
  facet normal 0 0 1
    outer loop
      vertex 0 0 1
      vertex 1.0050252531694166 1.0050252531694166 1
      vertex 0.8532843272420992 1.232121597344437 1
    endloop
  endfacet
  facet normal 0 0 1
    outer loop
      vertex 0 0 1
      vertex 0.8532843272420992 1.232121597344437 1
      vertex 0.7999999999999999 1.5 1
    endloop
  endfacet
  facet normal 0 0 1
    outer loop
      vertex 0 0 1
      vertex 0.7999999999999999 1.5 1
      vertex 0.8532843272420992 1.767878402655563 1
    endloop
  endfacet
  facet normal 0 0 1
    outer loop
      vertex 0 0 1
      vertex 1.232121597344437 0.8532843272420992 1
      vertex 1.0050252531694166 1.0050252531694166 1
    endloop
  endfacet
  facet normal 0 0 1
    outer loop
      vertex 0 0 1
      vertex 1.5 0.7999999999999999 1
      vertex 1.232121597344437 0.8532843272420992 1
    endloop
  endfacet
  facet normal 0 0 1
    outer loop
      vertex 3.3499999999999996 6.3 1
      vertex 1.0050252531694166 1.9949747468305834 1
      vertex 1.232121597344437 2.146715672757901 1
    endloop
  endfacet
  facet normal 0 0 1
    outer loop
      vertex 3.3499999999999996 6.3 1
      vertex 1.232121597344437 2.146715672757901 1
      vertex 1.5 2.2 1
    endloop
  endfacet
  facet normal 0 0 1
    outer loop
      vertex 3.3499999999999996 6.3 1
      vertex 1.5 2.2 1
      vertex 1.767878402655563 2.146715672757901 1
    endloop
  endfacet
  facet normal 0 0 1
    outer loop
      vertex 3.3499999999999996 6.3 1
      vertex 1.767878402655563 2.146715672757901 1
      vertex 1.9949747468305834 1.9949747468305834 1
    endloop
  endfacet
  facet normal 0 0 1
    outer loop
      vertex 0 0 1
      vertex 0.8532843272420992 1.767878402655563 1
      vertex 3.3499999999999996 11.7 1
    endloop
  endfacet
  facet normal 0 0 1
    outer loop
      vertex 3.3499999999999996 11.7 1
      vertex 0.8532843272420992 1.767878402655563 1
      vertex 1.0050252531694166 1.9949747468305834 1
    endloop
  endfacet
  facet normal 0 0 1
    outer loop
      vertex 0 0 1
      vertex 7.999999999999999 1.6500000000000001 1
      vertex 1.5 0.7999999999999999 1
    endloop
  endfacet
  facet normal 0 0 1
    outer loop
      vertex 7.999999999999999 1.6500000000000001 1
      vertex 1.767878402655563 0.8532843272420992 1
      vertex 1.5 0.7999999999999999 1
    endloop
  endfacet
  facet normal 0 0 1
    outer loop
      vertex 7.999999999999999 1.6500000000000001 1
      vertex 1.9949747468305834 1.0050252531694166 1
      vertex 1.767878402655563 0.8532843272420992 1
    endloop
  endfacet
  facet normal 0 0 1
    outer loop
      vertex 7.999999999999999 1.6500000000000001 1
      vertex 2.146715672757901 1.232121597344437 1
      vertex 1.9949747468305834 1.0050252531694166 1
    endloop
  endfacet
  facet normal 0 0 1
    outer loop
      vertex 7.999999999999999 1.6500000000000001 1
      vertex 2.2 1.5 1
      vertex 2.146715672757901 1.232121597344437 1
    endloop
  endfacet
  facet normal 0 0 1
    outer loop
      vertex 7.999999999999999 1.6500000000000001 1
      vertex 2.146715672757901 1.767878402655563 1
      vertex 2.2 1.5 1
    endloop
  endfacet
  facet normal 0 0 1
    outer loop
      vertex 7.999999999999999 1.6500000000000001 1
      vertex 1.9949747468305834 1.9949747468305834 1
      vertex 2.146715672757901 1.767878402655563 1
    endloop
  endfacet
  facet normal 0 0 1
    outer loop
      vertex 3.3499999999999996 6.3 1
      vertex 1.9949747468305834 1.9949747468305834 1
      vertex 7.999999999999999 1.6500000000000001 1
    endloop
  endfacet
  facet normal 0 0 1
    outer loop
      vertex 3.3499999999999996 6.3 1
      vertex 3.3499999999999996 11.7 1
      vertex 1.0050252531694166 1.9949747468305834 1
    endloop
  endfacet
  facet normal 0 0 1
    outer loop
      vertex 3.3499999999999996 6.3 1
      vertex 7.999999999999999 1.6500000000000001 1
      vertex 7.999999999999999 5.35 1
    endloop
  endfacet
  facet normal 0 0 1
    outer loop
      vertex 0 0 1
      vertex 21.4 0 1
      vertex 7.999999999999999 1.6500000000000001 1
    endloop
  endfacet
  facet normal 0 0 1
    outer loop
      vertex 3.3499999999999996 6.3 1
      vertex 7.999999999999999 5.35 1
      vertex 7.049999999999999 6.3 1
    endloop
  endfacet
  facet normal 0 0 1
    outer loop
      vertex 7.049999999999999 6.3 1
      vertex 7.999999999999999 7.15 1
      vertex 7.999999999999999 10.85 1
    endloop
  endfacet
  facet normal 0 0 1
    outer loop
      vertex 7.049999999999999 6.3 1
      vertex 7.999999999999999 10.85 1
      vertex 7.049999999999999 11.7 1
    endloop
  endfacet
  facet normal 0 0 1
    outer loop
      vertex 7.049999999999999 6.3 1
      vertex 7.999999999999999 5.35 1
      vertex 13.399999999999999 5.35 1
    endloop
  endfacet
  facet normal 0 0 1
    outer loop
      vertex 7.049999999999999 6.3 1
      vertex 14.35 6.3 1
      vertex 7.999999999999999 7.15 1
    endloop
  endfacet
  facet normal 0 0 -1
    outer loop
      vertex 3.3499999999999996 6.3 0
      vertex 0 21.4 0
      vertex 3.3499999999999996 11.7 0
    endloop
  endfacet
  facet normal -1 0 0
    outer loop
      vertex 0 0 0
      vertex 0 21.4 1
      vertex 0 21.4 0
    endloop
  endfacet
  facet normal 0 0 -1
    outer loop
      vertex 3.3499999999999996 11.7 0
      vertex 0 21.4 0
      vertex 7.999999999999999 16.35 0
    endloop
  endfacet
  facet normal 0 0 -1
    outer loop
      vertex 3.3499999999999996 11.7 0
      vertex 7.999999999999999 12.65 0
      vertex 7.049999999999999 11.7 0
    endloop
  endfacet
  facet normal 0 0 -1
    outer loop
      vertex 7.049999999999999 11.7 0
      vertex 7.999999999999999 12.65 0
      vertex 7.999999999999999 10.85 0
    endloop
  endfacet
  facet normal 0 0 -1
    outer loop
      vertex 3.3499999999999996 11.7 0
      vertex 7.999999999999999 16.35 0
      vertex 7.999999999999999 12.65 0
    endloop
  endfacet
  facet normal 0 0 -1
    outer loop
      vertex 7.999999999999999 10.85 0
      vertex 7.999999999999999 12.65 0
      vertex 13.399999999999999 12.65 0
    endloop
  endfacet
  facet normal 0 0 -1
    outer loop
      vertex 0 21.4 0
      vertex 13.399999999999999 16.35 0
      vertex 7.999999999999999 16.35 0
    endloop
  endfacet
  facet normal 0 1 0
    outer loop
      vertex 0 21.4 0
      vertex 0 21.4 1
      vertex 21.4 21.4 0
    endloop
  endfacet
  facet normal 0 0 1
    outer loop
      vertex 0 0 1
      vertex 3.3499999999999996 11.7 1
      vertex 0 21.4 1
    endloop
  endfacet
  facet normal 0 0 1
    outer loop
      vertex 3.3499999999999996 11.7 1
      vertex 7.049999999999999 11.7 1
      vertex 1.5 19.2 1
    endloop
  endfacet
  facet normal 0 0 1
    outer loop
      vertex 3.3499999999999996 11.7 1
      vertex 1.0050252531694166 19.405025253169416 1
      vertex 0.8532843272420992 19.632121597344437 1
    endloop
  endfacet
  facet normal 0 0 1
    outer loop
      vertex 3.3499999999999996 11.7 1
      vertex 1.232121597344437 19.2532843272421 1
      vertex 1.0050252531694166 19.405025253169416 1
    endloop
  endfacet
  facet normal 0 0 1
    outer loop
      vertex 3.3499999999999996 11.7 1
      vertex 1.5 19.2 1
      vertex 1.232121597344437 19.2532843272421 1
    endloop
  endfacet
  facet normal 0 0 1
    outer loop
      vertex 3.3499999999999996 11.7 1
      vertex 0.8532843272420992 19.632121597344437 1
      vertex 0 21.4 1
    endloop
  endfacet
  facet normal 0 0 1
    outer loop
      vertex 0 21.4 1
      vertex 0.8532843272420992 19.632121597344437 1
      vertex 0.7999999999999999 19.9 1
    endloop
  endfacet
  facet normal 0 0 1
    outer loop
      vertex 0 21.4 1
      vertex 0.7999999999999999 19.9 1
      vertex 0.8532843272420992 20.16787840265556 1
    endloop
  endfacet
  facet normal 0 0 1
    outer loop
      vertex 0 21.4 1
      vertex 0.8532843272420992 20.16787840265556 1
      vertex 1.0050252531694166 20.39497474683058 1
    endloop
  endfacet
  facet normal 0 0 1
    outer loop
      vertex 0 21.4 1
      vertex 1.0050252531694166 20.39497474683058 1
      vertex 1.232121597344437 20.546715672757898 1
    endloop
  endfacet
  facet normal 0 0 1
    outer loop
      vertex 0 21.4 1
      vertex 1.232121597344437 20.546715672757898 1
      vertex 1.5 20.599999999999998 1
    endloop
  endfacet
  facet normal 0 0 1
    outer loop
      vertex 7.999999999999999 12.65 1
      vertex 1.767878402655563 19.2532843272421 1
      vertex 1.5 19.2 1
    endloop
  endfacet
  facet normal 0 0 1
    outer loop
      vertex 7.999999999999999 16.35 1
      vertex 1.9949747468305834 19.405025253169416 1
      vertex 1.767878402655563 19.2532843272421 1
    endloop
  endfacet
  facet normal 0 0 1
    outer loop
      vertex 7.999999999999999 16.35 1
      vertex 2.146715672757901 19.632121597344437 1
      vertex 1.9949747468305834 19.405025253169416 1
    endloop
  endfacet
  facet normal 0 0 1
    outer loop
      vertex 7.999999999999999 16.35 1
      vertex 2.2 19.9 1
      vertex 2.146715672757901 19.632121597344437 1
    endloop
  endfacet
  facet normal 0 0 1
    outer loop
      vertex 7.049999999999999 11.7 1
      vertex 7.999999999999999 10.85 1
      vertex 1.5 19.2 1
    endloop
  endfacet
  facet normal 0 0 1
    outer loop
      vertex 7.999999999999999 10.85 1
      vertex 7.999999999999999 12.65 1
      vertex 1.5 19.2 1
    endloop
  endfacet
  facet normal 0 0 1
    outer loop
      vertex 7.999999999999999 10.85 1
      vertex 13.399999999999999 10.85 1
      vertex 7.999999999999999 12.65 1
    endloop
  endfacet
  facet normal 0 0 1
    outer loop
      vertex 7.999999999999999 12.65 1
      vertex 7.999999999999999 16.35 1
      vertex 1.767878402655563 19.2532843272421 1
    endloop
  endfacet
  facet normal 0 0 1
    outer loop
      vertex 0 21.4 1
      vertex 1.5 20.599999999999998 1
      vertex 21.4 21.4 1
    endloop
  endfacet
  facet normal 0 0 1
    outer loop
      vertex 21.4 21.4 1
      vertex 1.9949747468305834 20.39497474683058 1
      vertex 2.146715672757901 20.16787840265556 1
    endloop
  endfacet
  facet normal 0 0 1
    outer loop
      vertex 21.4 21.4 1
      vertex 2.146715672757901 20.16787840265556 1
      vertex 2.2 19.9 1
    endloop
  endfacet
  facet normal 0 0 1
    outer loop
      vertex 21.4 21.4 1
      vertex 1.5 20.599999999999998 1
      vertex 1.767878402655563 20.546715672757898 1
    endloop
  endfacet
  facet normal 0 0 1
    outer loop
      vertex 21.4 21.4 1
      vertex 1.767878402655563 20.546715672757898 1
      vertex 1.9949747468305834 20.39497474683058 1
    endloop
  endfacet
  facet normal 0 0 1
    outer loop
      vertex 7.999999999999999 16.35 1
      vertex 21.4 21.4 1
      vertex 2.2 19.9 1
    endloop
  endfacet
  facet normal 0 0 -1
    outer loop
      vertex 7.999999999999999 1.6500000000000001 0
      vertex 13.399999999999999 1.6500000000000001 0
      vertex 21.4 0 0
    endloop
  endfacet
  facet normal 0 -1 0
    outer loop
      vertex 0 0 0
      vertex 21.4 0 0
      vertex 21.4 0 1
    endloop
  endfacet
  facet normal 0 0 -1
    outer loop
      vertex 13.399999999999999 1.6500000000000001 0
      vertex 13.399999999999999 5.35 0
      vertex 18.05 6.3 0
    endloop
  endfacet
  facet normal 0 0 -1
    outer loop
      vertex 7.999999999999999 5.35 0
      vertex 13.399999999999999 7.15 0
      vertex 13.399999999999999 5.35 0
    endloop
  endfacet
  facet normal 0 0 -1
    outer loop
      vertex 13.399999999999999 5.35 0
      vertex 13.399999999999999 7.15 0
      vertex 14.35 6.3 0
    endloop
  endfacet
  facet normal 0 0 -1
    outer loop
      vertex 13.399999999999999 5.35 0
      vertex 14.35 6.3 0
      vertex 18.05 6.3 0
    endloop
  endfacet
  facet normal 0 0 -1
    outer loop
      vertex 14.35 6.3 0
      vertex 13.399999999999999 7.15 0
      vertex 13.399999999999999 10.85 0
    endloop
  endfacet
  facet normal 0 0 -1
    outer loop
      vertex 14.35 6.3 0
      vertex 13.399999999999999 10.85 0
      vertex 14.35 11.7 0
    endloop
  endfacet
  facet normal 0 0 -1
    outer loop
      vertex 13.399999999999999 1.6500000000000001 0
      vertex 18.05 6.3 0
      vertex 21.4 0 0
    endloop
  endfacet
  facet normal 0 0 -1
    outer loop
      vertex 21.4 0 0
      vertex 18.05 6.3 0
      vertex 18.05 11.7 0
    endloop
  endfacet
  facet normal 1 0 0
    outer loop
      vertex 21.4 0 0
      vertex 21.4 21.4 0
      vertex 21.4 0 1
    endloop
  endfacet
  facet normal 0 0 1
    outer loop
      vertex 7.999999999999999 1.6500000000000001 1
      vertex 21.4 0 1
      vertex 13.399999999999999 1.6500000000000001 1
    endloop
  endfacet
  facet normal 0 0 1
    outer loop
      vertex 13.399999999999999 1.6500000000000001 1
      vertex 19.2 1.5 1
      vertex 13.399999999999999 5.35 1
    endloop
  endfacet
  facet normal 0 0 1
    outer loop
      vertex 13.399999999999999 5.35 1
      vertex 19.2532843272421 1.767878402655563 1
      vertex 14.35 6.3 1
    endloop
  endfacet
  facet normal 0 0 1
    outer loop
      vertex 7.049999999999999 6.3 1
      vertex 13.399999999999999 5.35 1
      vertex 14.35 6.3 1
    endloop
  endfacet
  facet normal 0 0 1
    outer loop
      vertex 7.999999999999999 7.15 1
      vertex 14.35 6.3 1
      vertex 13.399999999999999 7.15 1
    endloop
  endfacet
  facet normal 0 0 1
    outer loop
      vertex 14.35 6.3 1
      vertex 14.35 11.7 1
      vertex 13.399999999999999 7.15 1
    endloop
  endfacet
  facet normal 0 0 1
    outer loop
      vertex 13.399999999999999 7.15 1
      vertex 14.35 11.7 1
      vertex 13.399999999999999 10.85 1
    endloop
  endfacet
  facet normal 0 0 1
    outer loop
      vertex 13.399999999999999 1.6500000000000001 1
      vertex 19.405025253169416 1.0050252531694166 1
      vertex 19.2532843272421 1.232121597344437 1
    endloop
  endfacet
  facet normal 0 0 1
    outer loop
      vertex 13.399999999999999 1.6500000000000001 1
      vertex 19.2532843272421 1.232121597344437 1
      vertex 19.2 1.5 1
    endloop
  endfacet
  facet normal 0 0 1
    outer loop
      vertex 13.399999999999999 1.6500000000000001 1
      vertex 19.632121597344437 0.8532843272420992 1
      vertex 19.405025253169416 1.0050252531694166 1
    endloop
  endfacet
  facet normal 0 0 1
    outer loop
      vertex 13.399999999999999 1.6500000000000001 1
      vertex 19.9 0.7999999999999999 1
      vertex 19.632121597344437 0.8532843272420992 1
    endloop
  endfacet
  facet normal 0 0 1
    outer loop
      vertex 13.399999999999999 1.6500000000000001 1
      vertex 21.4 0 1
      vertex 19.9 0.7999999999999999 1
    endloop
  endfacet
  facet normal 0 0 1
    outer loop
      vertex 13.399999999999999 5.35 1
      vertex 19.2 1.5 1
      vertex 19.2532843272421 1.767878402655563 1
    endloop
  endfacet
  facet normal 0 0 1
    outer loop
      vertex 14.35 6.3 1
      vertex 19.405025253169416 1.9949747468305834 1
      vertex 18.05 6.3 1
    endloop
  endfacet
  facet normal 0 0 1
    outer loop
      vertex 14.35 6.3 1
      vertex 19.2532843272421 1.767878402655563 1
      vertex 19.405025253169416 1.9949747468305834 1
    endloop
  endfacet
  facet normal 0 0 1
    outer loop
      vertex 21.4 0 1
      vertex 20.16787840265556 0.8532843272420992 1
      vertex 19.9 0.7999999999999999 1
    endloop
  endfacet
  facet normal 0 0 1
    outer loop
      vertex 21.4 0 1
      vertex 20.39497474683058 1.0050252531694166 1
      vertex 20.16787840265556 0.8532843272420992 1
    endloop
  endfacet
  facet normal 0 0 1
    outer loop
      vertex 21.4 0 1
      vertex 20.546715672757898 1.232121597344437 1
      vertex 20.39497474683058 1.0050252531694166 1
    endloop
  endfacet
  facet normal 0 0 1
    outer loop
      vertex 21.4 0 1
      vertex 20.599999999999998 1.5 1
      vertex 20.546715672757898 1.232121597344437 1
    endloop
  endfacet
  facet normal 0 0 1
    outer loop
      vertex 18.05 6.3 1
      vertex 19.405025253169416 1.9949747468305834 1
      vertex 19.632121597344437 2.146715672757901 1
    endloop
  endfacet
  facet normal 0 0 1
    outer loop
      vertex 18.05 6.3 1
      vertex 19.632121597344437 2.146715672757901 1
      vertex 19.9 2.2 1
    endloop
  endfacet
  facet normal 0 0 1
    outer loop
      vertex 18.05 6.3 1
      vertex 19.9 2.2 1
      vertex 20.16787840265556 2.146715672757901 1
    endloop
  endfacet
  facet normal 0 0 1
    outer loop
      vertex 18.05 6.3 1
      vertex 20.16787840265556 2.146715672757901 1
      vertex 20.39497474683058 1.9949747468305834 1
    endloop
  endfacet
  facet normal 0 0 1
    outer loop
      vertex 18.05 6.3 1
      vertex 20.39497474683058 1.9949747468305834 1
      vertex 20.546715672757898 1.767878402655563 1
    endloop
  endfacet
  facet normal 0 0 1
    outer loop
      vertex 21.4 0 1
      vertex 21.4 21.4 1
      vertex 20.599999999999998 1.5 1
    endloop
  endfacet
  facet normal 0 0 1
    outer loop
      vertex 18.05 6.3 1
      vertex 20.546715672757898 1.767878402655563 1
      vertex 21.4 21.4 1
    endloop
  endfacet
  facet normal 0 0 1
    outer loop
      vertex 21.4 21.4 1
      vertex 20.546715672757898 1.767878402655563 1
      vertex 20.599999999999998 1.5 1
    endloop
  endfacet
  facet normal 0 0 -1
    outer loop
      vertex 7.999999999999999 10.85 0
      vertex 14.35 11.7 0
      vertex 13.399999999999999 10.85 0
    endloop
  endfacet
  facet normal 0 0 -1
    outer loop
      vertex 7.999999999999999 10.85 0
      vertex 13.399999999999999 12.65 0
      vertex 14.35 11.7 0
    endloop
  endfacet
  facet normal 0 0 -1
    outer loop
      vertex 0 21.4 0
      vertex 21.4 21.4 0
      vertex 13.399999999999999 16.35 0
    endloop
  endfacet
  facet normal 0 1 0
    outer loop
      vertex 0 21.4 1
      vertex 21.4 21.4 1
      vertex 21.4 21.4 0
    endloop
  endfacet
  facet normal 0 0 -1
    outer loop
      vertex 14.35 11.7 0
      vertex 13.399999999999999 12.65 0
      vertex 21.4 21.4 0
    endloop
  endfacet
  facet normal 0 0 -1
    outer loop
      vertex 14.35 11.7 0
      vertex 21.4 21.4 0
      vertex 18.05 11.7 0
    endloop
  endfacet
  facet normal 0 0 -1
    outer loop
      vertex 21.4 0 0
      vertex 18.05 11.7 0
      vertex 21.4 21.4 0
    endloop
  endfacet
  facet normal 1 0 0
    outer loop
      vertex 21.4 0 1
      vertex 21.4 21.4 0
      vertex 21.4 21.4 1
    endloop
  endfacet
  facet normal 0 0 -1
    outer loop
      vertex 13.399999999999999 12.65 0
      vertex 13.399999999999999 16.35 0
      vertex 21.4 21.4 0
    endloop
  endfacet
  facet normal 0 0 1
    outer loop
      vertex 7.999999999999999 12.65 1
      vertex 13.399999999999999 10.85 1
      vertex 13.399999999999999 12.65 1
    endloop
  endfacet
  facet normal 0 0 1
    outer loop
      vertex 13.399999999999999 10.85 1
      vertex 14.35 11.7 1
      vertex 13.399999999999999 12.65 1
    endloop
  endfacet
  facet normal 0 0 1
    outer loop
      vertex 14.35 11.7 1
      vertex 18.05 11.7 1
      vertex 13.399999999999999 12.65 1
    endloop
  endfacet
  facet normal 0 0 1
    outer loop
      vertex 13.399999999999999 12.65 1
      vertex 18.05 11.7 1
      vertex 13.399999999999999 16.35 1
    endloop
  endfacet
  facet normal 0 0 1
    outer loop
      vertex 7.999999999999999 16.35 1
      vertex 13.399999999999999 16.35 1
      vertex 19.2532843272421 20.16787840265556 1
    endloop
  endfacet
  facet normal 0 0 1
    outer loop
      vertex 7.999999999999999 16.35 1
      vertex 19.2532843272421 20.16787840265556 1
      vertex 19.405025253169416 20.39497474683058 1
    endloop
  endfacet
  facet normal 0 0 1
    outer loop
      vertex 7.999999999999999 16.35 1
      vertex 19.405025253169416 20.39497474683058 1
      vertex 19.632121597344437 20.546715672757898 1
    endloop
  endfacet
  facet normal 0 0 1
    outer loop
      vertex 13.399999999999999 16.35 1
      vertex 18.05 11.7 1
      vertex 19.405025253169416 19.405025253169416 1
    endloop
  endfacet
  facet normal 0 0 1
    outer loop
      vertex 18.05 6.3 1
      vertex 21.4 21.4 1
      vertex 18.05 11.7 1
    endloop
  endfacet
  facet normal 0 0 1
    outer loop
      vertex 13.399999999999999 16.35 1
      vertex 19.405025253169416 19.405025253169416 1
      vertex 19.2532843272421 19.632121597344437 1
    endloop
  endfacet
  facet normal 0 0 1
    outer loop
      vertex 13.399999999999999 16.35 1
      vertex 19.2532843272421 19.632121597344437 1
      vertex 19.2 19.9 1
    endloop
  endfacet
  facet normal 0 0 1
    outer loop
      vertex 7.999999999999999 16.35 1
      vertex 19.632121597344437 20.546715672757898 1
      vertex 21.4 21.4 1
    endloop
  endfacet
  facet normal 0 0 1
    outer loop
      vertex 13.399999999999999 16.35 1
      vertex 19.2 19.9 1
      vertex 19.2532843272421 20.16787840265556 1
    endloop
  endfacet
  facet normal 0 0 1
    outer loop
      vertex 18.05 11.7 1
      vertex 19.9 19.2 1
      vertex 19.632121597344437 19.2532843272421 1
    endloop
  endfacet
  facet normal 0 0 1
    outer loop
      vertex 18.05 11.7 1
      vertex 20.16787840265556 19.2532843272421 1
      vertex 19.9 19.2 1
    endloop
  endfacet
  facet normal 0 0 1
    outer loop
      vertex 18.05 11.7 1
      vertex 19.632121597344437 19.2532843272421 1
      vertex 19.405025253169416 19.405025253169416 1
    endloop
  endfacet
  facet normal 0 0 1
    outer loop
      vertex 18.05 11.7 1
      vertex 20.39497474683058 19.405025253169416 1
      vertex 20.16787840265556 19.2532843272421 1
    endloop
  endfacet
  facet normal 0 0 1
    outer loop
      vertex 18.05 11.7 1
      vertex 20.546715672757898 19.632121597344437 1
      vertex 20.39497474683058 19.405025253169416 1
    endloop
  endfacet
  facet normal 0 0 1
    outer loop
      vertex 18.05 11.7 1
      vertex 21.4 21.4 1
      vertex 20.546715672757898 19.632121597344437 1
    endloop
  endfacet
  facet normal 0 0 1
    outer loop
      vertex 21.4 21.4 1
      vertex 19.632121597344437 20.546715672757898 1
      vertex 19.9 20.599999999999998 1
    endloop
  endfacet
  facet normal 0 0 1
    outer loop
      vertex 21.4 21.4 1
      vertex 19.9 20.599999999999998 1
      vertex 20.16787840265556 20.546715672757898 1
    endloop
  endfacet
  facet normal 0 0 1
    outer loop
      vertex 21.4 21.4 1
      vertex 20.16787840265556 20.546715672757898 1
      vertex 20.39497474683058 20.39497474683058 1
    endloop
  endfacet
  facet normal 0 0 1
    outer loop
      vertex 21.4 21.4 1
      vertex 20.599999999999998 19.9 1
      vertex 20.546715672757898 19.632121597344437 1
    endloop
  endfacet
  facet normal 0 0 1
    outer loop
      vertex 21.4 21.4 1
      vertex 20.546715672757898 20.16787840265556 1
      vertex 20.599999999999998 19.9 1
    endloop
  endfacet
  facet normal 0 0 1
    outer loop
      vertex 21.4 21.4 1
      vertex 20.39497474683058 20.39497474683058 1
      vertex 20.546715672757898 20.16787840265556 1
    endloop
  endfacet
  facet normal -0.8314696123025455 -0.555570233019602 0
    outer loop
      vertex 0.8532843272420992 1.232121597344437 2
      vertex 0.8532843272420992 1.232121597344437 1
      vertex 1.0050252531694166 1.0050252531694166 1
    endloop
  endfacet
  facet normal -0.555570233019602 -0.8314696123025455 0
    outer loop
      vertex 1.232121597344437 0.8532843272420992 2
      vertex 1.0050252531694166 1.0050252531694166 1
      vertex 1.232121597344437 0.8532843272420992 1
    endloop
  endfacet
  facet normal -0.9807852804032304 -0.1950903220161283 0
    outer loop
      vertex 0.7999999999999999 1.5 2
      vertex 0.7999999999999999 1.5 1
      vertex 0.8532843272420992 1.232121597344437 1
    endloop
  endfacet
  facet normal -0.9807852804032304 0.1950903220161283 0
    outer loop
      vertex 0.8532843272420992 1.767878402655563 2
      vertex 0.8532843272420992 1.767878402655563 1
      vertex 0.7999999999999999 1.5 1
    endloop
  endfacet
  facet normal -0.8314696123025455 0.555570233019602 0
    outer loop
      vertex 1.0050252531694166 1.9949747468305834 2
      vertex 1.0050252531694166 1.9949747468305834 1
      vertex 0.8532843272420992 1.767878402655563 1
    endloop
  endfacet
  facet normal -0.5555702330196023 0.8314696123025453 0
    outer loop
      vertex 1.0050252531694166 1.9949747468305834 2
      vertex 1.232121597344437 2.146715672757901 1
      vertex 1.0050252531694166 1.9949747468305834 1
    endloop
  endfacet
  facet normal -0.1950903220161283 0.9807852804032304 0
    outer loop
      vertex 1.232121597344437 2.146715672757901 2
      vertex 1.5 2.2 1
      vertex 1.232121597344437 2.146715672757901 1
    endloop
  endfacet
  facet normal -0.1950903220161283 -0.9807852804032304 0
    outer loop
      vertex 1.5 0.7999999999999999 2
      vertex 1.232121597344437 0.8532843272420992 1
      vertex 1.5 0.7999999999999999 1
    endloop
  endfacet
  facet normal 0.1950903220161283 -0.9807852804032304 0
    outer loop
      vertex 1.767878402655563 0.8532843272420992 2
      vertex 1.5 0.7999999999999999 1
      vertex 1.767878402655563 0.8532843272420992 1
    endloop
  endfacet
  facet normal 0.555570233019602 -0.8314696123025455 0
    outer loop
      vertex 1.9949747468305834 1.0050252531694166 2
      vertex 1.767878402655563 0.8532843272420992 1
      vertex 1.9949747468305834 1.0050252531694166 1
    endloop
  endfacet
  facet normal 0.8314696123025453 -0.5555702330196023 0
    outer loop
      vertex 1.9949747468305834 1.0050252531694166 2
      vertex 1.9949747468305834 1.0050252531694166 1
      vertex 2.146715672757901 1.232121597344437 1
    endloop
  endfacet
  facet normal 0.9807852804032304 -0.1950903220161283 0
    outer loop
      vertex 2.146715672757901 1.232121597344437 2
      vertex 2.146715672757901 1.232121597344437 1
      vertex 2.2 1.5 1
    endloop
  endfacet
  facet normal 0.1950903220161283 0.9807852804032304 0
    outer loop
      vertex 1.5 2.2 2
      vertex 1.767878402655563 2.146715672757901 1
      vertex 1.5 2.2 1
    endloop
  endfacet
  facet normal 0.5555702330196023 0.8314696123025453 0
    outer loop
      vertex 1.767878402655563 2.146715672757901 2
      vertex 1.9949747468305834 1.9949747468305834 1
      vertex 1.767878402655563 2.146715672757901 1
    endloop
  endfacet
  facet normal 0.9807852804032304 0.1950903220161283 0
    outer loop
      vertex 2.2 1.5 2
      vertex 2.2 1.5 1
      vertex 2.146715672757901 1.767878402655563 1
    endloop
  endfacet
  facet normal 0.8314696123025453 0.5555702330196023 0
    outer loop
      vertex 2.146715672757901 1.767878402655563 2
      vertex 2.146715672757901 1.767878402655563 1
      vertex 1.9949747468305834 1.9949747468305834 1
    endloop
  endfacet
  facet normal -0.9807852804032304 -0.1950903220161283 0
    outer loop
      vertex 0.8532843272420992 1.232121597344437 2
      vertex 0.7999999999999999 1.5 2
      vertex 0.8532843272420992 1.232121597344437 1
    endloop
  endfacet
  facet normal -0.8314696123025455 -0.555570233019602 0
    outer loop
      vertex 1.0050252531694166 1.0050252531694166 2
      vertex 0.8532843272420992 1.232121597344437 2
      vertex 1.0050252531694166 1.0050252531694166 1
    endloop
  endfacet
  facet normal -0.555570233019602 -0.8314696123025455 0
    outer loop
      vertex 1.0050252531694166 1.0050252531694166 2
      vertex 1.0050252531694166 1.0050252531694166 1
      vertex 1.232121597344437 0.8532843272420992 2
    endloop
  endfacet
  facet normal -0.1950903220161283 -0.9807852804032304 0
    outer loop
      vertex 1.232121597344437 0.8532843272420992 2
      vertex 1.232121597344437 0.8532843272420992 1
      vertex 1.5 0.7999999999999999 2
    endloop
  endfacet
  facet normal -0.9807852804032304 0.1950903220161283 0
    outer loop
      vertex 0.7999999999999999 1.5 2
      vertex 0.8532843272420992 1.767878402655563 2
      vertex 0.7999999999999999 1.5 1
    endloop
  endfacet
  facet normal -0.8314696123025455 0.555570233019602 0
    outer loop
      vertex 0.8532843272420992 1.767878402655563 2
      vertex 1.0050252531694166 1.9949747468305834 2
      vertex 0.8532843272420992 1.767878402655563 1
    endloop
  endfacet
  facet normal -0.5555702330196023 0.8314696123025453 1.080701788161335e-18
    outer loop
      vertex 1.0050252531694166 1.9949747468305834 2
      vertex 1.232121597344437 2.146715672757901 2
      vertex 1.232121597344437 2.146715672757901 1
    endloop
  endfacet
  facet normal 0.1950903220161283 -0.9807852804032304 0
    outer loop
      vertex 1.5 0.7999999999999999 2
      vertex 1.5 0.7999999999999999 1
      vertex 1.767878402655563 0.8532843272420992 2
    endloop
  endfacet
  facet normal 0.555570233019602 -0.8314696123025455 0
    outer loop
      vertex 1.767878402655563 0.8532843272420992 2
      vertex 1.767878402655563 0.8532843272420992 1
      vertex 1.9949747468305834 1.0050252531694166 2
    endloop
  endfacet
  facet normal 0.8314696123025453 -0.5555702330196023 1.080701788161335e-18
    outer loop
      vertex 1.9949747468305834 1.0050252531694166 2
      vertex 2.146715672757901 1.232121597344437 1
      vertex 2.146715672757901 1.232121597344437 2
    endloop
  endfacet
  facet normal -0.1950903220161283 0.9807852804032304 -1.399351278789392e-18
    outer loop
      vertex 1.232121597344437 2.146715672757901 2
      vertex 1.5 2.2 2
      vertex 1.5 2.2 1
    endloop
  endfacet
  facet normal 0.1950903220161283 0.9807852804032304 1.399351278789392e-18
    outer loop
      vertex 1.5 2.2 2
      vertex 1.767878402655563 2.146715672757901 2
      vertex 1.767878402655563 2.146715672757901 1
    endloop
  endfacet
  facet normal 0.5555702330196023 0.8314696123025453 0
    outer loop
      vertex 1.9949747468305834 1.9949747468305834 2
      vertex 1.9949747468305834 1.9949747468305834 1
      vertex 1.767878402655563 2.146715672757901 2
    endloop
  endfacet
  facet normal 0.9807852804032304 -0.1950903220161283 -1.399351278789392e-18
    outer loop
      vertex 2.146715672757901 1.232121597344437 2
      vertex 2.2 1.5 1
      vertex 2.2 1.5 2
    endloop
  endfacet
  facet normal 0.9807852804032304 0.1950903220161283 1.399351278789392e-18
    outer loop
      vertex 2.2 1.5 2
      vertex 2.146715672757901 1.767878402655563 1
      vertex 2.146715672757901 1.767878402655563 2
    endloop
  endfacet
  facet normal 0.8314696123025453 0.5555702330196023 0
    outer loop
      vertex 1.9949747468305834 1.9949747468305834 2
      vertex 2.146715672757901 1.767878402655563 2
      vertex 1.9949747468305834 1.9949747468305834 1
    endloop
  endfacet
  facet normal 0 0 1
    outer loop
      vertex 1.0050252531694166 1.0050252531694166 2
      vertex 0.8532843272420992 1.767878402655563 2
      vertex 0.8532843272420992 1.232121597344437 2
    endloop
  endfacet
  facet normal 0 0 1
    outer loop
      vertex 1.0050252531694166 1.0050252531694166 2
      vertex 1.232121597344437 0.8532843272420992 2
      vertex 1.0050252531694166 1.9949747468305834 2
    endloop
  endfacet
  facet normal 0 0 1
    outer loop
      vertex 1.232121597344437 0.8532843272420992 2
      vertex 1.5 0.7999999999999999 2
      vertex 1.232121597344437 2.146715672757901 2
    endloop
  endfacet
  facet normal 0 0 1
    outer loop
      vertex 0.8532843272420992 1.232121597344437 2
      vertex 0.8532843272420992 1.767878402655563 2
      vertex 0.7999999999999999 1.5 2
    endloop
  endfacet
  facet normal 0 0 1
    outer loop
      vertex 1.0050252531694166 1.0050252531694166 2
      vertex 1.0050252531694166 1.9949747468305834 2
      vertex 0.8532843272420992 1.767878402655563 2
    endloop
  endfacet
  facet normal 0 0 1
    outer loop
      vertex 1.232121597344437 0.8532843272420992 2
      vertex 1.232121597344437 2.146715672757901 2
      vertex 1.0050252531694166 1.9949747468305834 2
    endloop
  endfacet
  facet normal 0 0 1
    outer loop
      vertex 1.5 0.7999999999999999 2
      vertex 1.767878402655563 0.8532843272420992 2
      vertex 1.5 2.2 2
    endloop
  endfacet
  facet normal 0 0 1
    outer loop
      vertex 1.767878402655563 0.8532843272420992 2
      vertex 1.9949747468305834 1.0050252531694166 2
      vertex 1.767878402655563 2.146715672757901 2
    endloop
  endfacet
  facet normal 0 0 1
    outer loop
      vertex 1.5 0.7999999999999999 2
      vertex 1.5 2.2 2
      vertex 1.232121597344437 2.146715672757901 2
    endloop
  endfacet
  facet normal 0 0 1
    outer loop
      vertex 1.767878402655563 0.8532843272420992 2
      vertex 1.767878402655563 2.146715672757901 2
      vertex 1.5 2.2 2
    endloop
  endfacet
  facet normal 0 0 1
    outer loop
      vertex 1.9949747468305834 1.0050252531694166 2
      vertex 1.9949747468305834 1.9949747468305834 2
      vertex 1.767878402655563 2.146715672757901 2
    endloop
  endfacet
  facet normal 0 0 1
    outer loop
      vertex 1.9949747468305834 1.0050252531694166 2
      vertex 2.146715672757901 1.232121597344437 2
      vertex 1.9949747468305834 1.9949747468305834 2
    endloop
  endfacet
  facet normal 0 0 1
    outer loop
      vertex 2.146715672757901 1.232121597344437 2
      vertex 2.2 1.5 2
      vertex 2.146715672757901 1.767878402655563 2
    endloop
  endfacet
  facet normal 0 0 1
    outer loop
      vertex 1.9949747468305834 1.9949747468305834 2
      vertex 2.146715672757901 1.232121597344437 2
      vertex 2.146715672757901 1.767878402655563 2
    endloop
  endfacet
  facet normal -0.5555702330196016 -0.8314696123025457 0
    outer loop
      vertex 1.232121597344437 19.2532843272421 2
      vertex 1.0050252531694166 19.405025253169416 1
      vertex 1.232121597344437 19.2532843272421 1
    endloop
  endfacet
  facet normal -0.8314696123025455 -0.555570233019602 0
    outer loop
      vertex 0.8532843272420992 19.632121597344437 2
      vertex 0.8532843272420992 19.632121597344437 1
      vertex 1.0050252531694166 19.405025253169416 1
    endloop
  endfacet
  facet normal -0.9807852804032302 -0.19509032201612905 0
    outer loop
      vertex 0.7999999999999999 19.9 2
      vertex 0.7999999999999999 19.9 1
      vertex 0.8532843272420992 19.632121597344437 1
    endloop
  endfacet
  facet normal -0.9807852804032302 0.19509032201612905 0
    outer loop
      vertex 0.8532843272420992 20.16787840265556 2
      vertex 0.8532843272420992 20.16787840265556 1
      vertex 0.7999999999999999 19.9 1
    endloop
  endfacet
  facet normal -0.8314696123025455 0.555570233019602 0
    outer loop
      vertex 1.0050252531694166 20.39497474683058 2
      vertex 1.0050252531694166 20.39497474683058 1
      vertex 0.8532843272420992 20.16787840265556 1
    endloop
  endfacet
  facet normal -0.5555702330196016 0.8314696123025457 0
    outer loop
      vertex 1.0050252531694166 20.39497474683058 2
      vertex 1.232121597344437 20.546715672757898 1
      vertex 1.0050252531694166 20.39497474683058 1
    endloop
  endfacet
  facet normal -0.19509032201612989 0.9807852804032302 0
    outer loop
      vertex 1.232121597344437 20.546715672757898 2
      vertex 1.5 20.599999999999998 1
      vertex 1.232121597344437 20.546715672757898 1
    endloop
  endfacet
  facet normal -0.19509032201612989 -0.9807852804032302 0
    outer loop
      vertex 1.5 19.2 2
      vertex 1.232121597344437 19.2532843272421 1
      vertex 1.5 19.2 1
    endloop
  endfacet
  facet normal 0.19509032201612989 -0.9807852804032302 0
    outer loop
      vertex 1.767878402655563 19.2532843272421 2
      vertex 1.5 19.2 1
      vertex 1.767878402655563 19.2532843272421 1
    endloop
  endfacet
  facet normal 0.5555702330196016 -0.8314696123025457 0
    outer loop
      vertex 1.9949747468305834 19.405025253169416 2
      vertex 1.767878402655563 19.2532843272421 1
      vertex 1.9949747468305834 19.405025253169416 1
    endloop
  endfacet
  facet normal 0.8314696123025453 -0.5555702330196023 0
    outer loop
      vertex 1.9949747468305834 19.405025253169416 2
      vertex 1.9949747468305834 19.405025253169416 1
      vertex 2.146715672757901 19.632121597344437 1
    endloop
  endfacet
  facet normal 0.9807852804032302 -0.19509032201612905 0
    outer loop
      vertex 2.146715672757901 19.632121597344437 2
      vertex 2.146715672757901 19.632121597344437 1
      vertex 2.2 19.9 1
    endloop
  endfacet
  facet normal 0.9807852804032302 0.19509032201612905 0
    outer loop
      vertex 2.2 19.9 2
      vertex 2.2 19.9 1
      vertex 2.146715672757901 20.16787840265556 1
    endloop
  endfacet
  facet normal 0.19509032201612989 0.9807852804032302 0
    outer loop
      vertex 1.5 20.599999999999998 2
      vertex 1.767878402655563 20.546715672757898 1
      vertex 1.5 20.599999999999998 1
    endloop
  endfacet
  facet normal 0.5555702330196016 0.8314696123025457 0
    outer loop
      vertex 1.767878402655563 20.546715672757898 2
      vertex 1.9949747468305834 20.39497474683058 1
      vertex 1.767878402655563 20.546715672757898 1
    endloop
  endfacet
  facet normal 0.8314696123025453 0.5555702330196023 0
    outer loop
      vertex 2.146715672757901 20.16787840265556 2
      vertex 2.146715672757901 20.16787840265556 1
      vertex 1.9949747468305834 20.39497474683058 1
    endloop
  endfacet
  facet normal -0.5555702330196016 -0.8314696123025457 5.704656017094273e-18
    outer loop
      vertex 1.232121597344437 19.2532843272421 2
      vertex 1.0050252531694166 19.405025253169416 2
      vertex 1.0050252531694166 19.405025253169416 1
    endloop
  endfacet
  facet normal -0.19509032201612989 -0.9807852804032302 0
    outer loop
      vertex 1.232121597344437 19.2532843272421 2
      vertex 1.232121597344437 19.2532843272421 1
      vertex 1.5 19.2 2
    endloop
  endfacet
  facet normal -0.9807852804032302 -0.19509032201612905 0
    outer loop
      vertex 0.8532843272420992 19.632121597344437 2
      vertex 0.7999999999999999 19.9 2
      vertex 0.8532843272420992 19.632121597344437 1
    endloop
  endfacet
  facet normal -0.8314696123025455 -0.555570233019602 -1.0390736011650106e-17
    outer loop
      vertex 0.8532843272420992 19.632121597344437 2
      vertex 1.0050252531694166 19.405025253169416 1
      vertex 1.0050252531694166 19.405025253169416 2
    endloop
  endfacet
  facet normal -0.9807852804032302 0.19509032201612905 0
    outer loop
      vertex 0.7999999999999999 19.9 2
      vertex 0.8532843272420992 20.16787840265556 2
      vertex 0.7999999999999999 19.9 1
    endloop
  endfacet
  facet normal -0.8314696123025455 0.555570233019602 0
    outer loop
      vertex 0.8532843272420992 20.16787840265556 2
      vertex 1.0050252531694166 20.39497474683058 2
      vertex 0.8532843272420992 20.16787840265556 1
    endloop
  endfacet
  facet normal -0.5555702330196016 0.8314696123025457 -5.704656017094273e-18
    outer loop
      vertex 1.0050252531694166 20.39497474683058 2
      vertex 1.232121597344437 20.546715672757898 2
      vertex 1.232121597344437 20.546715672757898 1
    endloop
  endfacet
  facet normal 0.19509032201612989 -0.9807852804032302 0
    outer loop
      vertex 1.5 19.2 2
      vertex 1.5 19.2 1
      vertex 1.767878402655563 19.2532843272421 2
    endloop
  endfacet
  facet normal 0.5555702330196016 -0.8314696123025457 0
    outer loop
      vertex 1.767878402655563 19.2532843272421 2
      vertex 1.767878402655563 19.2532843272421 1
      vertex 1.9949747468305834 19.405025253169416 2
    endloop
  endfacet
  facet normal 0.8314696123025453 -0.5555702330196023 1.080701788161335e-18
    outer loop
      vertex 1.9949747468305834 19.405025253169416 2
      vertex 2.146715672757901 19.632121597344437 1
      vertex 2.146715672757901 19.632121597344437 2
    endloop
  endfacet
  facet normal 0.9807852804032302 -0.19509032201612905 -2.046995518649495e-18
    outer loop
      vertex 2.146715672757901 19.632121597344437 2
      vertex 2.2 19.9 1
      vertex 2.2 19.9 2
    endloop
  endfacet
  facet normal -0.19509032201612989 0.9807852804032302 2.264562640090025e-18
    outer loop
      vertex 1.232121597344437 20.546715672757898 2
      vertex 1.5 20.599999999999998 2
      vertex 1.5 20.599999999999998 1
    endloop
  endfacet
  facet normal 0.19509032201612989 0.9807852804032302 -2.264562640090025e-18
    outer loop
      vertex 1.5 20.599999999999998 2
      vertex 1.767878402655563 20.546715672757898 2
      vertex 1.767878402655563 20.546715672757898 1
    endloop
  endfacet
  facet normal 0.5555702330196016 0.8314696123025457 5.704656017094273e-18
    outer loop
      vertex 1.767878402655563 20.546715672757898 2
      vertex 1.9949747468305834 20.39497474683058 2
      vertex 1.9949747468305834 20.39497474683058 1
    endloop
  endfacet
  facet normal 0.9807852804032302 0.19509032201612905 2.046995518649495e-18
    outer loop
      vertex 2.2 19.9 2
      vertex 2.146715672757901 20.16787840265556 1
      vertex 2.146715672757901 20.16787840265556 2
    endloop
  endfacet
  facet normal 0.8314696123025453 0.5555702330196023 0
    outer loop
      vertex 1.9949747468305834 20.39497474683058 2
      vertex 2.146715672757901 20.16787840265556 2
      vertex 1.9949747468305834 20.39497474683058 1
    endloop
  endfacet
  facet normal 0 0 1
    outer loop
      vertex 0.8532843272420992 19.632121597344437 2
      vertex 0.8532843272420992 20.16787840265556 2
      vertex 0.7999999999999999 19.9 2
    endloop
  endfacet
  facet normal 0 0 1
    outer loop
      vertex 0.8532843272420992 19.632121597344437 2
      vertex 1.0050252531694166 19.405025253169416 2
      vertex 0.8532843272420992 20.16787840265556 2
    endloop
  endfacet
  facet normal 0 0 1
    outer loop
      vertex 1.0050252531694166 19.405025253169416 2
      vertex 1.0050252531694166 20.39497474683058 2
      vertex 0.8532843272420992 20.16787840265556 2
    endloop
  endfacet
  facet normal 0 0 1
    outer loop
      vertex 1.232121597344437 19.2532843272421 2
      vertex 1.0050252531694166 20.39497474683058 2
      vertex 1.0050252531694166 19.405025253169416 2
    endloop
  endfacet
  facet normal 0 0 1
    outer loop
      vertex 1.232121597344437 19.2532843272421 2
      vertex 1.5 19.2 2
      vertex 1.232121597344437 20.546715672757898 2
    endloop
  endfacet
  facet normal 0 0 1
    outer loop
      vertex 1.232121597344437 19.2532843272421 2
      vertex 1.232121597344437 20.546715672757898 2
      vertex 1.0050252531694166 20.39497474683058 2
    endloop
  endfacet
  facet normal 0 0 1
    outer loop
      vertex 1.5 19.2 2
      vertex 1.767878402655563 19.2532843272421 2
      vertex 1.5 20.599999999999998 2
    endloop
  endfacet
  facet normal 0 0 1
    outer loop
      vertex 1.767878402655563 19.2532843272421 2
      vertex 1.9949747468305834 19.405025253169416 2
      vertex 1.767878402655563 20.546715672757898 2
    endloop
  endfacet
  facet normal 0 0 1
    outer loop
      vertex 1.9949747468305834 19.405025253169416 2
      vertex 2.146715672757901 19.632121597344437 2
      vertex 1.9949747468305834 20.39497474683058 2
    endloop
  endfacet
  facet normal 0 0 1
    outer loop
      vertex 2.146715672757901 19.632121597344437 2
      vertex 2.2 19.9 2
      vertex 2.146715672757901 20.16787840265556 2
    endloop
  endfacet
  facet normal 0 0 1
    outer loop
      vertex 1.5 19.2 2
      vertex 1.5 20.599999999999998 2
      vertex 1.232121597344437 20.546715672757898 2
    endloop
  endfacet
  facet normal 0 0 1
    outer loop
      vertex 1.767878402655563 19.2532843272421 2
      vertex 1.767878402655563 20.546715672757898 2
      vertex 1.5 20.599999999999998 2
    endloop
  endfacet
  facet normal 0 0 1
    outer loop
      vertex 1.9949747468305834 19.405025253169416 2
      vertex 1.9949747468305834 20.39497474683058 2
      vertex 1.767878402655563 20.546715672757898 2
    endloop
  endfacet
  facet normal 0 0 1
    outer loop
      vertex 1.9949747468305834 20.39497474683058 2
      vertex 2.146715672757901 19.632121597344437 2
      vertex 2.146715672757901 20.16787840265556 2
    endloop
  endfacet
  facet normal -0.8314696123025457 -0.5555702330196016 0
    outer loop
      vertex 19.2532843272421 1.232121597344437 2
      vertex 19.2532843272421 1.232121597344437 1
      vertex 19.405025253169416 1.0050252531694166 1
    endloop
  endfacet
  facet normal -0.555570233019602 -0.8314696123025455 0
    outer loop
      vertex 19.632121597344437 0.8532843272420992 2
      vertex 19.405025253169416 1.0050252531694166 1
      vertex 19.632121597344437 0.8532843272420992 1
    endloop
  endfacet
  facet normal -0.19509032201612905 -0.9807852804032302 0
    outer loop
      vertex 19.9 0.7999999999999999 2
      vertex 19.632121597344437 0.8532843272420992 1
      vertex 19.9 0.7999999999999999 1
    endloop
  endfacet
  facet normal -0.9807852804032302 -0.19509032201612989 0
    outer loop
      vertex 19.2 1.5 2
      vertex 19.2 1.5 1
      vertex 19.2532843272421 1.232121597344437 1
    endloop
  endfacet
  facet normal -0.9807852804032302 0.19509032201612989 0
    outer loop
      vertex 19.2532843272421 1.767878402655563 2
      vertex 19.2532843272421 1.767878402655563 1
      vertex 19.2 1.5 1
    endloop
  endfacet
  facet normal -0.8314696123025457 0.5555702330196016 0
    outer loop
      vertex 19.405025253169416 1.9949747468305834 2
      vertex 19.405025253169416 1.9949747468305834 1
      vertex 19.2532843272421 1.767878402655563 1
    endloop
  endfacet
  facet normal -0.5555702330196023 0.8314696123025453 0
    outer loop
      vertex 19.405025253169416 1.9949747468305834 2
      vertex 19.632121597344437 2.146715672757901 1
      vertex 19.405025253169416 1.9949747468305834 1
    endloop
  endfacet
  facet normal -0.19509032201612905 0.9807852804032302 0
    outer loop
      vertex 19.632121597344437 2.146715672757901 2
      vertex 19.9 2.2 1
      vertex 19.632121597344437 2.146715672757901 1
    endloop
  endfacet
  facet normal 0.19509032201612905 0.9807852804032302 0
    outer loop
      vertex 19.9 2.2 2
      vertex 20.16787840265556 2.146715672757901 1
      vertex 19.9 2.2 1
    endloop
  endfacet
  facet normal 0.19509032201612905 -0.9807852804032302 0
    outer loop
      vertex 20.16787840265556 0.8532843272420992 2
      vertex 19.9 0.7999999999999999 1
      vertex 20.16787840265556 0.8532843272420992 1
    endloop
  endfacet
  facet normal 0.555570233019602 -0.8314696123025455 0
    outer loop
      vertex 20.39497474683058 1.0050252531694166 2
      vertex 20.16787840265556 0.8532843272420992 1
      vertex 20.39497474683058 1.0050252531694166 1
    endloop
  endfacet
  facet normal 0.8314696123025457 -0.5555702330196016 0
    outer loop
      vertex 20.39497474683058 1.0050252531694166 2
      vertex 20.39497474683058 1.0050252531694166 1
      vertex 20.546715672757898 1.232121597344437 1
    endloop
  endfacet
  facet normal 0.9807852804032302 -0.19509032201612989 0
    outer loop
      vertex 20.546715672757898 1.232121597344437 2
      vertex 20.546715672757898 1.232121597344437 1
      vertex 20.599999999999998 1.5 1
    endloop
  endfacet
  facet normal 0.9807852804032302 0.19509032201612989 0
    outer loop
      vertex 20.599999999999998 1.5 2
      vertex 20.599999999999998 1.5 1
      vertex 20.546715672757898 1.767878402655563 1
    endloop
  endfacet
  facet normal 0.8314696123025457 0.5555702330196016 0
    outer loop
      vertex 20.546715672757898 1.767878402655563 2
      vertex 20.546715672757898 1.767878402655563 1
      vertex 20.39497474683058 1.9949747468305834 1
    endloop
  endfacet
  facet normal 0.5555702330196023 0.8314696123025453 0
    outer loop
      vertex 20.16787840265556 2.146715672757901 2
      vertex 20.39497474683058 1.9949747468305834 1
      vertex 20.16787840265556 2.146715672757901 1
    endloop
  endfacet
  facet normal -0.8314696123025457 -0.5555702330196016 5.704656017094273e-18
    outer loop
      vertex 19.2532843272421 1.232121597344437 2
      vertex 19.405025253169416 1.0050252531694166 1
      vertex 19.405025253169416 1.0050252531694166 2
    endloop
  endfacet
  facet normal -0.9807852804032302 -0.19509032201612989 0
    outer loop
      vertex 19.2532843272421 1.232121597344437 2
      vertex 19.2 1.5 2
      vertex 19.2532843272421 1.232121597344437 1
    endloop
  endfacet
  facet normal -0.555570233019602 -0.8314696123025455 0
    outer loop
      vertex 19.405025253169416 1.0050252531694166 2
      vertex 19.405025253169416 1.0050252531694166 1
      vertex 19.632121597344437 0.8532843272420992 2
    endloop
  endfacet
  facet normal -0.19509032201612905 -0.9807852804032302 0
    outer loop
      vertex 19.632121597344437 0.8532843272420992 2
      vertex 19.632121597344437 0.8532843272420992 1
      vertex 19.9 0.7999999999999999 2
    endloop
  endfacet
  facet normal 0.19509032201612905 -0.9807852804032302 0
    outer loop
      vertex 19.9 0.7999999999999999 2
      vertex 19.9 0.7999999999999999 1
      vertex 20.16787840265556 0.8532843272420992 2
    endloop
  endfacet
  facet normal -0.9807852804032302 0.19509032201612989 0
    outer loop
      vertex 19.2 1.5 2
      vertex 19.2532843272421 1.767878402655563 2
      vertex 19.2 1.5 1
    endloop
  endfacet
  facet normal -0.8314696123025457 0.5555702330196016 0
    outer loop
      vertex 19.2532843272421 1.767878402655563 2
      vertex 19.405025253169416 1.9949747468305834 2
      vertex 19.2532843272421 1.767878402655563 1
    endloop
  endfacet
  facet normal -0.5555702330196023 0.8314696123025453 1.080701788161335e-18
    outer loop
      vertex 19.405025253169416 1.9949747468305834 2
      vertex 19.632121597344437 2.146715672757901 2
      vertex 19.632121597344437 2.146715672757901 1
    endloop
  endfacet
  facet normal -0.19509032201612905 0.9807852804032302 -2.046995518649495e-18
    outer loop
      vertex 19.632121597344437 2.146715672757901 2
      vertex 19.9 2.2 2
      vertex 19.9 2.2 1
    endloop
  endfacet
  facet normal 0.555570233019602 -0.8314696123025455 0
    outer loop
      vertex 20.16787840265556 0.8532843272420992 2
      vertex 20.16787840265556 0.8532843272420992 1
      vertex 20.39497474683058 1.0050252531694166 2
    endloop
  endfacet
  facet normal 0.8314696123025457 -0.5555702330196016 -5.704656017094273e-18
    outer loop
      vertex 20.39497474683058 1.0050252531694166 2
      vertex 20.546715672757898 1.232121597344437 1
      vertex 20.546715672757898 1.232121597344437 2
    endloop
  endfacet
  facet normal 0.9807852804032302 -0.19509032201612989 2.264562640090025e-18
    outer loop
      vertex 20.546715672757898 1.232121597344437 2
      vertex 20.599999999999998 1.5 1
      vertex 20.599999999999998 1.5 2
    endloop
  endfacet
  facet normal 0.8314696123025457 0.5555702330196016 0
    outer loop
      vertex 20.39497474683058 1.9949747468305834 2
      vertex 20.546715672757898 1.767878402655563 2
      vertex 20.39497474683058 1.9949747468305834 1
    endloop
  endfacet
  facet normal 0.9807852804032302 0.19509032201612989 -2.264562640090025e-18
    outer loop
      vertex 20.599999999999998 1.5 2
      vertex 20.546715672757898 1.767878402655563 1
      vertex 20.546715672757898 1.767878402655563 2
    endloop
  endfacet
  facet normal 0.19509032201612905 0.9807852804032302 2.046995518649495e-18
    outer loop
      vertex 19.9 2.2 2
      vertex 20.16787840265556 2.146715672757901 2
      vertex 20.16787840265556 2.146715672757901 1
    endloop
  endfacet
  facet normal 0.5555702330196023 0.8314696123025453 0
    outer loop
      vertex 20.39497474683058 1.9949747468305834 2
      vertex 20.39497474683058 1.9949747468305834 1
      vertex 20.16787840265556 2.146715672757901 2
    endloop
  endfacet
  facet normal 0 0 1
    outer loop
      vertex 19.2532843272421 1.232121597344437 2
      vertex 19.405025253169416 1.0050252531694166 2
      vertex 19.2532843272421 1.767878402655563 2
    endloop
  endfacet
  facet normal 0 0 1
    outer loop
      vertex 19.405025253169416 1.0050252531694166 2
      vertex 19.632121597344437 0.8532843272420992 2
      vertex 19.405025253169416 1.9949747468305834 2
    endloop
  endfacet
  facet normal 0 0 1
    outer loop
      vertex 19.632121597344437 0.8532843272420992 2
      vertex 19.9 0.7999999999999999 2
      vertex 19.632121597344437 2.146715672757901 2
    endloop
  endfacet
  facet normal 0 0 1
    outer loop
      vertex 19.9 0.7999999999999999 2
      vertex 20.16787840265556 0.8532843272420992 2
      vertex 19.9 2.2 2
    endloop
  endfacet
  facet normal 0 0 1
    outer loop
      vertex 19.2532843272421 1.232121597344437 2
      vertex 19.2532843272421 1.767878402655563 2
      vertex 19.2 1.5 2
    endloop
  endfacet
  facet normal 0 0 1
    outer loop
      vertex 19.2532843272421 1.767878402655563 2
      vertex 19.405025253169416 1.0050252531694166 2
      vertex 19.405025253169416 1.9949747468305834 2
    endloop
  endfacet
  facet normal 0 0 1
    outer loop
      vertex 19.632121597344437 0.8532843272420992 2
      vertex 19.632121597344437 2.146715672757901 2
      vertex 19.405025253169416 1.9949747468305834 2
    endloop
  endfacet
  facet normal 0 0 1
    outer loop
      vertex 19.9 0.7999999999999999 2
      vertex 19.9 2.2 2
      vertex 19.632121597344437 2.146715672757901 2
    endloop
  endfacet
  facet normal 0 0 1
    outer loop
      vertex 20.16787840265556 0.8532843272420992 2
      vertex 20.39497474683058 1.0050252531694166 2
      vertex 20.16787840265556 2.146715672757901 2
    endloop
  endfacet
  facet normal 0 0 1
    outer loop
      vertex 20.16787840265556 0.8532843272420992 2
      vertex 20.16787840265556 2.146715672757901 2
      vertex 19.9 2.2 2
    endloop
  endfacet
  facet normal 0 0 1
    outer loop
      vertex 20.39497474683058 1.0050252531694166 2
      vertex 20.39497474683058 1.9949747468305834 2
      vertex 20.16787840265556 2.146715672757901 2
    endloop
  endfacet
  facet normal 0 0 1
    outer loop
      vertex 20.39497474683058 1.0050252531694166 2
      vertex 20.546715672757898 1.232121597344437 2
      vertex 20.39497474683058 1.9949747468305834 2
    endloop
  endfacet
  facet normal 0 0 1
    outer loop
      vertex 20.546715672757898 1.232121597344437 2
      vertex 20.546715672757898 1.767878402655563 2
      vertex 20.39497474683058 1.9949747468305834 2
    endloop
  endfacet
  facet normal 0 0 1
    outer loop
      vertex 20.546715672757898 1.232121597344437 2
      vertex 20.599999999999998 1.5 2
      vertex 20.546715672757898 1.767878402655563 2
    endloop
  endfacet
  facet normal -0.8314696123025457 -0.5555702330196016 0
    outer loop
      vertex 19.2532843272421 19.632121597344437 2
      vertex 19.2532843272421 19.632121597344437 1
      vertex 19.405025253169416 19.405025253169416 1
    endloop
  endfacet
  facet normal -0.98078528040323 -0.19509032201613066 0
    outer loop
      vertex 19.2 19.9 2
      vertex 19.2 19.9 1
      vertex 19.2532843272421 19.632121597344437 1
    endloop
  endfacet
  facet normal -0.5555702330196016 -0.8314696123025457 0
    outer loop
      vertex 19.632121597344437 19.2532843272421 2
      vertex 19.405025253169416 19.405025253169416 1
      vertex 19.632121597344437 19.2532843272421 1
    endloop
  endfacet
  facet normal -0.19509032201613066 -0.98078528040323 0
    outer loop
      vertex 19.9 19.2 2
      vertex 19.632121597344437 19.2532843272421 1
      vertex 19.9 19.2 1
    endloop
  endfacet
  facet normal -0.98078528040323 0.19509032201613066 0
    outer loop
      vertex 19.2532843272421 20.16787840265556 2
      vertex 19.2532843272421 20.16787840265556 1
      vertex 19.2 19.9 1
    endloop
  endfacet
  facet normal -0.8314696123025457 0.5555702330196016 0
    outer loop
      vertex 19.405025253169416 20.39497474683058 2
      vertex 19.405025253169416 20.39497474683058 1
      vertex 19.2532843272421 20.16787840265556 1
    endloop
  endfacet
  facet normal -0.5555702330196016 0.8314696123025457 0
    outer loop
      vertex 19.405025253169416 20.39497474683058 2
      vertex 19.632121597344437 20.546715672757898 1
      vertex 19.405025253169416 20.39497474683058 1
    endloop
  endfacet
  facet normal -0.19509032201613066 0.98078528040323 0
    outer loop
      vertex 19.632121597344437 20.546715672757898 2
      vertex 19.9 20.599999999999998 1
      vertex 19.632121597344437 20.546715672757898 1
    endloop
  endfacet
  facet normal 0.19509032201613066 0.98078528040323 0
    outer loop
      vertex 19.9 20.599999999999998 2
      vertex 20.16787840265556 20.546715672757898 1
      vertex 19.9 20.599999999999998 1
    endloop
  endfacet
  facet normal 0.19509032201613066 -0.98078528040323 0
    outer loop
      vertex 20.16787840265556 19.2532843272421 2
      vertex 19.9 19.2 1
      vertex 20.16787840265556 19.2532843272421 1
    endloop
  endfacet
  facet normal 0.5555702330196016 -0.8314696123025457 0
    outer loop
      vertex 20.39497474683058 19.405025253169416 2
      vertex 20.16787840265556 19.2532843272421 1
      vertex 20.39497474683058 19.405025253169416 1
    endloop
  endfacet
  facet normal 0.8314696123025457 -0.5555702330196016 0
    outer loop
      vertex 20.39497474683058 19.405025253169416 2
      vertex 20.39497474683058 19.405025253169416 1
      vertex 20.546715672757898 19.632121597344437 1
    endloop
  endfacet
  facet normal 0.98078528040323 -0.19509032201613066 0
    outer loop
      vertex 20.546715672757898 19.632121597344437 2
      vertex 20.546715672757898 19.632121597344437 1
      vertex 20.599999999999998 19.9 1
    endloop
  endfacet
  facet normal 0.98078528040323 0.19509032201613066 0
    outer loop
      vertex 20.599999999999998 19.9 2
      vertex 20.599999999999998 19.9 1
      vertex 20.546715672757898 20.16787840265556 1
    endloop
  endfacet
  facet normal 0.5555702330196016 0.8314696123025457 0
    outer loop
      vertex 20.16787840265556 20.546715672757898 2
      vertex 20.39497474683058 20.39497474683058 1
      vertex 20.16787840265556 20.546715672757898 1
    endloop
  endfacet
  facet normal 0.8314696123025457 0.5555702330196016 0
    outer loop
      vertex 20.546715672757898 20.16787840265556 2
      vertex 20.546715672757898 20.16787840265556 1
      vertex 20.39497474683058 20.39497474683058 1
    endloop
  endfacet
  facet normal -0.8314696123025457 -0.5555702330196016 5.704656017094273e-18
    outer loop
      vertex 19.2532843272421 19.632121597344437 2
      vertex 19.405025253169416 19.405025253169416 1
      vertex 19.405025253169416 19.405025253169416 2
    endloop
  endfacet
  facet normal -0.98078528040323 -0.19509032201613066 0
    outer loop
      vertex 19.2532843272421 19.632121597344437 2
      vertex 19.2 19.9 2
      vertex 19.2532843272421 19.632121597344437 1
    endloop
  endfacet
  facet normal -0.98078528040323 0.19509032201613066 0
    outer loop
      vertex 19.2 19.9 2
      vertex 19.2532843272421 20.16787840265556 2
      vertex 19.2 19.9 1
    endloop
  endfacet
  facet normal -0.5555702330196016 -0.8314696123025457 5.704656017094273e-18
    outer loop
      vertex 19.632121597344437 19.2532843272421 2
      vertex 19.405025253169416 19.405025253169416 2
      vertex 19.405025253169416 19.405025253169416 1
    endloop
  endfacet
  facet normal -0.19509032201613066 -0.98078528040323 0
    outer loop
      vertex 19.632121597344437 19.2532843272421 2
      vertex 19.632121597344437 19.2532843272421 1
      vertex 19.9 19.2 2
    endloop
  endfacet
  facet normal 0.19509032201613066 -0.98078528040323 0
    outer loop
      vertex 19.9 19.2 2
      vertex 19.9 19.2 1
      vertex 20.16787840265556 19.2532843272421 2
    endloop
  endfacet
  facet normal -0.8314696123025457 0.5555702330196016 0
    outer loop
      vertex 19.2532843272421 20.16787840265556 2
      vertex 19.405025253169416 20.39497474683058 2
      vertex 19.2532843272421 20.16787840265556 1
    endloop
  endfacet
  facet normal -0.5555702330196016 0.8314696123025457 -5.704656017094273e-18
    outer loop
      vertex 19.405025253169416 20.39497474683058 2
      vertex 19.632121597344437 20.546715672757898 2
      vertex 19.632121597344437 20.546715672757898 1
    endloop
  endfacet
  facet normal -0.19509032201613066 0.98078528040323 1.6169184002281312e-18
    outer loop
      vertex 19.632121597344437 20.546715672757898 2
      vertex 19.9 20.599999999999998 2
      vertex 19.9 20.599999999999998 1
    endloop
  endfacet
  facet normal 0.5555702330196016 -0.8314696123025457 0
    outer loop
      vertex 20.16787840265556 19.2532843272421 2
      vertex 20.16787840265556 19.2532843272421 1
      vertex 20.39497474683058 19.405025253169416 2
    endloop
  endfacet
  facet normal 0.8314696123025457 -0.5555702330196016 -5.704656017094273e-18
    outer loop
      vertex 20.39497474683058 19.405025253169416 2
      vertex 20.546715672757898 19.632121597344437 1
      vertex 20.546715672757898 19.632121597344437 2
    endloop
  endfacet
  facet normal 0.98078528040323 -0.19509032201613066 1.6169184002281312e-18
    outer loop
      vertex 20.546715672757898 19.632121597344437 2
      vertex 20.599999999999998 19.9 1
      vertex 20.599999999999998 19.9 2
    endloop
  endfacet
  facet normal 0.19509032201613066 0.98078528040323 -1.6169184002281312e-18
    outer loop
      vertex 19.9 20.599999999999998 2
      vertex 20.16787840265556 20.546715672757898 2
      vertex 20.16787840265556 20.546715672757898 1
    endloop
  endfacet
  facet normal 0.5555702330196016 0.8314696123025457 5.704656017094273e-18
    outer loop
      vertex 20.16787840265556 20.546715672757898 2
      vertex 20.39497474683058 20.39497474683058 2
      vertex 20.39497474683058 20.39497474683058 1
    endloop
  endfacet
  facet normal 0.8314696123025457 0.5555702330196016 5.704656017094273e-18
    outer loop
      vertex 20.546715672757898 20.16787840265556 2
      vertex 20.39497474683058 20.39497474683058 1
      vertex 20.39497474683058 20.39497474683058 2
    endloop
  endfacet
  facet normal 0.98078528040323 0.19509032201613066 -1.6169184002281312e-18
    outer loop
      vertex 20.599999999999998 19.9 2
      vertex 20.546715672757898 20.16787840265556 1
      vertex 20.546715672757898 20.16787840265556 2
    endloop
  endfacet
  facet normal 0 0 1
    outer loop
      vertex 19.2532843272421 19.632121597344437 2
      vertex 19.405025253169416 19.405025253169416 2
      vertex 19.2532843272421 20.16787840265556 2
    endloop
  endfacet
  facet normal 0 0 1
    outer loop
      vertex 19.2532843272421 19.632121597344437 2
      vertex 19.2532843272421 20.16787840265556 2
      vertex 19.2 19.9 2
    endloop
  endfacet
  facet normal 0 0 1
    outer loop
      vertex 19.2532843272421 20.16787840265556 2
      vertex 19.405025253169416 19.405025253169416 2
      vertex 19.405025253169416 20.39497474683058 2
    endloop
  endfacet
  facet normal 0 0 1
    outer loop
      vertex 19.632121597344437 19.2532843272421 2
      vertex 19.405025253169416 20.39497474683058 2
      vertex 19.405025253169416 19.405025253169416 2
    endloop
  endfacet
  facet normal 0 0 1
    outer loop
      vertex 19.632121597344437 19.2532843272421 2
      vertex 19.9 19.2 2
      vertex 19.632121597344437 20.546715672757898 2
    endloop
  endfacet
  facet normal 0 0 1
    outer loop
      vertex 19.9 19.2 2
      vertex 20.16787840265556 19.2532843272421 2
      vertex 19.9 20.599999999999998 2
    endloop
  endfacet
  facet normal 0 0 1
    outer loop
      vertex 19.632121597344437 19.2532843272421 2
      vertex 19.632121597344437 20.546715672757898 2
      vertex 19.405025253169416 20.39497474683058 2
    endloop
  endfacet
  facet normal 0 0 1
    outer loop
      vertex 19.9 19.2 2
      vertex 19.9 20.599999999999998 2
      vertex 19.632121597344437 20.546715672757898 2
    endloop
  endfacet
  facet normal 0 0 1
    outer loop
      vertex 20.16787840265556 19.2532843272421 2
      vertex 20.39497474683058 19.405025253169416 2
      vertex 20.16787840265556 20.546715672757898 2
    endloop
  endfacet
  facet normal 0 0 1
    outer loop
      vertex 20.39497474683058 19.405025253169416 2
      vertex 20.546715672757898 19.632121597344437 2
      vertex 20.39497474683058 20.39497474683058 2
    endloop
  endfacet
  facet normal 0 0 1
    outer loop
      vertex 20.546715672757898 19.632121597344437 2
      vertex 20.599999999999998 19.9 2
      vertex 20.546715672757898 20.16787840265556 2
    endloop
  endfacet
  facet normal 0 0 1
    outer loop
      vertex 20.16787840265556 19.2532843272421 2
      vertex 20.16787840265556 20.546715672757898 2
      vertex 19.9 20.599999999999998 2
    endloop
  endfacet
  facet normal 0 0 1
    outer loop
      vertex 20.39497474683058 19.405025253169416 2
      vertex 20.39497474683058 20.39497474683058 2
      vertex 20.16787840265556 20.546715672757898 2
    endloop
  endfacet
  facet normal 0 0 1
    outer loop
      vertex 20.546715672757898 19.632121597344437 2
      vertex 20.546715672757898 20.16787840265556 2
      vertex 20.39497474683058 20.39497474683058 2
    endloop
  endfacet
endsolid OpenSCAD_Model
